<?xml version="1.0" encoding="utf-8"?>
<!-- Generator: Adobe Illustrator 20.1.0, SVG Export Plug-In . SVG Version: 6.00 Build 0)  -->
<svg version="1.1" id="Layer_1" xmlns="http://www.w3.org/2000/svg" xmlns:xlink="http://www.w3.org/1999/xlink" x="0px" y="0px"
	 width="49.2px" height="48.5px" viewBox="0 0 49.2 48.5" style="enable-background:new 0 0 49.2 48.5;" xml:space="preserve">
<style type="text/css">
	.st0{fill:#F2F2F2;}
</style>
<g>
	<path class="st0" d="M16.9,27.9c0.1,0,0.2,0.1,0.2,0.2v7c0,0.1-0.1,0.2-0.2,0.2H14c-0.1,0-0.2-0.1-0.2-0.2v-7
		c0-0.1,0.1-0.2,0.2-0.2L16.9,27.9L16.9,27.9z"/>
	<path class="st0" d="M48,38.3H1.3c-0.1,0-0.2,0.1-0.2,0.2v2.9c0,0.1,0.1,0.2,0.2,0.2H48c0.1,0,0.2-0.1,0.2-0.2v-2.9
		C48.2,38.4,48.1,38.3,48,38.3"/>
	<path class="st0" d="M48,44H1.3c-0.1,0-0.2,0.1-0.2,0.2v2.9c0,0.1,0.1,0.2,0.2,0.2H48c0.1,0,0.2-0.1,0.2-0.2v-2.9
		C48.2,44.1,48.1,44,48,44"/>
	<path class="st0" d="M39.1,20.2c-0.6-0.5-2.1-1.5-4-1.5c-1.4,0-2.6,0.5-3.7,1.6c-0.1,0.1-0.1,0.2-0.1,0.3v0.3c0,0.1,0,0.2,0.1,0.3
		c0.1,0.1,0.2,0.1,0.3,0.1c0,0,0.1,0,0.1,0c0.1,0,0.2-0.1,0.2-0.1c0.2-0.2,0.9-0.4,1.9-0.4c1,0,2.9,0.3,4.8,2l0,0
		c0.1,0.1,0.3,0.2,0.4,0.2c0.1,0,0.3-0.1,0.4-0.2l0,0c1.9-1.8,3.8-2,4.8-2c1,0,1.6,0.2,1.9,0.4c0.1,0.1,0.1,0.1,0.3,0.2
		c0,0,0.2,0,0.3,0c0.2,0,0.3-0.2,0.3-0.4v-0.2c0-0.1,0-0.2-0.1-0.3c-1.1-1.1-2.4-1.6-3.8-1.6C41.2,18.7,39.7,19.7,39.1,20.2"/>
	<path class="st0" d="M36.2,1.6c-0.1,0-0.2,0.1-0.2,0.2l0,0.2c0,0.1,0,0.3,0.1,0.4c0.1,0.1,0.2,0.2,0.3,0.2c0,0,0,0,0.1,0
		c0.1,0,0.2,0,0.2-0.1c0,0,0.1,0,0.3,0c0.2,0,2.1,0.1,3.3,2.2l0,0c0.1,0.1,0.2,0.2,0.3,0.2c0,0,0.1,0,0.1,0c0.1,0,0.2,0,0.2-0.1l0,0
		c0.7-0.3,1.4-0.5,2.1-0.5c1.2,0,1.9,0.5,2.1,0.7c0,0.1,0.1,0.1,0.2,0.2c0,0,0.1,0.1,0.2,0.1c0,0,0,0,0.1,0c0,0,0,0,0,0
		c0.1,0,0.1,0,0.2,0c0.1,0,0.2-0.1,0.2-0.2l0-0.1c0,0,0-0.1,0-0.1c0-0.1,0-0.1-0.1-0.2c-0.9-1.6-2.2-1.9-3.2-1.9
		c-0.7,0-1.3,0.2-1.7,0.3c-0.4-0.6-1.5-1.8-3.1-1.8C37.4,1.1,36.8,1.3,36.2,1.6"/>
	<path class="st0" d="M26.3,8.8l0,0.2c0,0.1,0.1,0.2,0.2,0.3c0.1,0.1,0.2,0.1,0.3,0c0,0,0,0,0.1,0c0.1,0,0.1-0.1,0.2-0.1
		c0.2-0.1,0.8-0.4,1.8-0.4c0.9,0,2.3,0.2,3.7,1.4l0,0c0.1,0.1,0.2,0.1,0.4,0.1h0c0.1,0,0.3-0.1,0.4-0.2l0,0c1.6-1.6,3.2-1.9,4.1-1.9
		c0.6,0,1,0.1,1.2,0.2c0.1,0.1,0.1,0.1,0.2,0.1c0,0,0.1,0,0.2,0c0,0,0.1,0,0.1,0c0.2-0.1,0.3-0.2,0.3-0.4l0-0.2
		c0-0.1-0.1-0.2-0.1-0.3c-0.9-0.8-1.9-1.2-3-1.2c-1.6,0-3,1-3.5,1.4c-0.5-0.3-1.7-1-3.1-1c-1.2,0-2.4,0.5-3.3,1.5
		C26.4,8.5,26.3,8.6,26.3,8.8"/>
	<path class="st0" d="M2.7,12.5c0-2.8,2.3-5.1,5.1-5.1c0.1,0,0.2,0,0.3,0c0.3-3.5,3.2-6.3,6.8-6.3c3.8,0,6.8,3.1,6.8,6.8
		c0,1.1-0.3,2.1-0.7,3c3.4,0.8,6,3.8,6,7.5c0,4.2-3.4,7.6-7.6,7.6C19.1,26.1,9.2,26,9.2,26l0,0c-3,0-5.4-2.4-5.4-5.4
		c0-1.4,0.6-2.7,1.5-3.7C3.7,16,2.7,14.4,2.7,12.5z"/>
</g>
</svg>
