<?xml version="1.0" encoding="utf-8"?>
<!-- Generator: Adobe Illustrator 20.1.0, SVG Export Plug-In . SVG Version: 6.00 Build 0)  -->
<svg version="1.1" id="Layer_1" xmlns="http://www.w3.org/2000/svg" xmlns:xlink="http://www.w3.org/1999/xlink" x="0px" y="0px"
	 width="49.2px" height="48.5px" viewBox="0 0 49.2 48.5" style="enable-background:new 0 0 49.2 48.5;" xml:space="preserve">
<style type="text/css">
	.st0{fill:#F2F2F2;}
</style>
<path class="st0" d="M46.4,26.7l-10.4-6v-12c0-0.3-0.1-0.5-0.4-0.6L25,2c-0.2-0.1-0.5-0.1-0.7,0L13.6,8.2c-0.2,0.1-0.4,0.4-0.4,0.6
	v12l-10.4,6c-0.2,0.1-0.4,0.4-0.4,0.6v12.4c0,0.3,0.1,0.5,0.4,0.6l10.7,6.2c0.1,0.1,0.2,0.1,0.4,0.1s0.2,0,0.4-0.1l10.4-6l10.4,6
	c0.1,0.1,0.2,0.1,0.4,0.1c0.1,0,0.2,0,0.4-0.1l10.7-6.2c0.2-0.1,0.4-0.4,0.4-0.6V27.3C46.7,27.1,46.6,26.8,46.4,26.7z M23.9,38.5
	l-8.6-5l8.6-5V38.5z M33.9,21.1l-8.6,5v-9.9L33.9,21.1z M23.9,26.1l-8.6-5l8.6-5V26.1z M26,27.3l9.3-5.4l9.3,5.4l-9.3,5.4L26,27.3z
	 M34.6,19.9L26,15l8.6-5V19.9z M23.2,15l-8.6,5V10L23.2,15z M13.2,44.6l-9.3-5.4V28.5l9.3,5.4V44.6z M14.6,44.6v-9.9l8.6,5
	L14.6,44.6z M45.3,39.3L36,44.6V33.9l9.3-5.4V39.3z"/>
</svg>
