<?xml version="1.0" encoding="utf-8"?>
<!-- Generator: Adobe Illustrator 20.1.0, SVG Export Plug-In . SVG Version: 6.00 Build 0)  -->
<svg version="1.1" id="Layer_1" xmlns="http://www.w3.org/2000/svg" xmlns:xlink="http://www.w3.org/1999/xlink" x="0px" y="0px"
	 width="49.2px" height="48.5px" viewBox="0 0 49.2 48.5" style="enable-background:new 0 0 49.2 48.5;" xml:space="preserve">
<style type="text/css">
	.st0{fill:#F2F2F2;}
</style>
<g>
	<path class="st0" d="M49.1,36.4c-1.1-1.5-8.3-10.6-18.3-10.6c-8.7,0-18,7.9-18,7.9s-3.5-7.2-10.7-7.9c0,0-0.1,0-0.1,0h0
		c-0.1,0-0.3,0.2-0.3,0.3c0,0.1,0.1,0.3,0.1,0.3C2.7,27.9,5,32.3,5,36.6c0,4.4-2.4,8.8-3.3,10.3L1.7,47c0,0,0,0.1,0,0.2
		c0,0.2,0.1,0.3,0.3,0.3l0.1,0c0,0,0,0,0.1,0c7.2-0.7,10.7-7.9,10.7-7.9s9.3,7.9,18,7.9c10,0,17.2-9.1,18.3-10.6
		c0,0,0.1-0.1,0.1-0.1c0,0,0-0.1,0-0.1c0,0,0-0.1,0-0.1C49.2,36.5,49.2,36.4,49.1,36.4 M36.4,37.8c-1.6,0-2.9-1.3-2.9-2.9
		c0-1.6,1.3-2.9,2.9-2.9c1.6,0,2.9,1.3,2.9,2.9C39.3,36.5,38,37.8,36.4,37.8"/>
	<path class="st0" d="M1.9,8.6C1.8,8.6,1.8,8.6,1.9,8.6c-0.2,0-0.3,0.1-0.3,0.3v2c0,0.1,0,0.2,0.1,0.2c4.8,4.2,9.4,0.3,10.5-0.8
		c0,0,0-0.1,0.1-0.1c0,0,0.1-0.1,0.2-0.1c0.1,0,0.1,0,0.2,0.1c0,0,0,0,0,0c5.5,5.2,11.2,1,12.4,0l0.1-0.1c0,0,0.1,0,0.1,0
		c0,0,0.1,0,0.1,0l0.1,0.1c1.2,1,6.9,5.2,12.4,0c0,0,0,0,0,0c0.1,0,0.1-0.1,0.2-0.1c0.1,0,0.1,0,0.2,0.1c0,0,0.1,0,0.1,0.1
		c1.1,1,5.6,5,10.5,0.8c0.1-0.1,0.1-0.1,0.1-0.2v-2c0-0.2-0.1-0.3-0.3-0.3c0,0,0,0-0.1,0c0,0-0.1,0.1-0.1,0.1
		c-1.5,0.7-6.1,2.5-10.3-1.4c0,0-0.1-0.1-0.1-0.1c0,0-0.1,0-0.1,0c0,0-0.1,0-0.1,0c-0.1,0-0.1,0.1-0.1,0.1c-1.3,1-7,4.8-12.1,0.1
		l-0.1-0.1c-0.1,0-0.1-0.1-0.2-0.1c-0.1,0-0.1,0-0.2,0.1l-0.1,0.1c-5.1,4.8-10.9,0.9-12.1-0.1c0,0-0.1-0.1-0.1-0.1c0,0-0.1,0-0.1,0
		c0,0-0.1,0-0.1,0c0,0-0.1,0.1-0.1,0.1C8.1,11.2,3.5,9.4,2,8.7C2,8.7,1.9,8.6,1.9,8.6"/>
	<path class="st0" d="M12.1,17.6C12.1,17.6,12.1,17.5,12.1,17.6c0.1-0.1,0.2-0.1,0.2-0.1c0.1,0,0.1,0,0.2,0.1c0,0,0,0,0,0
		c5.5,5.2,11.2,1,12.4,0l0.1-0.1c0,0,0.1,0,0.1,0c0,0,0.1,0,0.1,0l0.1,0.1c1.2,1,6.9,5.2,12.4,0c0,0,0,0,0,0
		c0.1-0.1,0.1-0.1,0.2-0.1c0.1,0,0.1,0,0.2,0.1c0,0,0.1,0,0.1,0.1c1.1,1,5.6,5,10.5,0.8c0.1-0.1,0.1-0.1,0.1-0.2v-2
		c0-0.2-0.1-0.3-0.3-0.3c0,0,0,0-0.1,0c0,0-0.1,0-0.1,0.1c-1.5,0.7-6.1,2.5-10.3-1.4c0,0-0.1-0.1-0.1-0.1c0,0-0.1,0-0.1,0
		c0,0-0.1,0-0.1,0c-0.1,0-0.1,0.1-0.1,0.1c-1.2,1-7,4.8-12.1,0.1l-0.1-0.1c-0.1-0.1-0.1-0.1-0.2-0.1c-0.1,0-0.1,0-0.2,0.1l-0.1,0.1
		c-5.1,4.8-10.9,0.9-12.1-0.1c0-0.1-0.1-0.1-0.1-0.1c0,0-0.1,0-0.1,0c0,0-0.1,0-0.1,0c0,0-0.1,0.1-0.1,0.1C8.1,18.5,3.5,16.7,2,16
		c-0.1,0-0.1-0.1-0.1-0.1c0,0,0,0-0.1,0c-0.2,0-0.3,0.1-0.3,0.3v2c0,0.1,0,0.2,0.1,0.2C6.5,22.6,11,18.6,12.1,17.6"/>
</g>
</svg>
