<?xml version="1.0" encoding="utf-8"?>
<!-- Generator: Adobe Illustrator 20.1.0, SVG Export Plug-In . SVG Version: 6.00 Build 0)  -->
<svg version="1.1" id="Layer_1" xmlns="http://www.w3.org/2000/svg" xmlns:xlink="http://www.w3.org/1999/xlink" x="0px" y="0px"
	 width="49.2px" height="48.5px" viewBox="0 0 49.2 48.5" style="enable-background:new 0 0 49.2 48.5;" xml:space="preserve">
<style type="text/css">
	.st0{fill:#F2F2F2;}
</style>
<path class="st0" d="M49.2,21.4c0-6.9-5.5-12.6-12.4-12.8C35.1,3.6,30.3,0,24.7,0S14.4,3.6,12.6,8.6C5.8,8.8,0.3,14.5,0.3,21.4
	c0,4.1,1.9,7.8,5,10.1c-0.3,1.1-0.5,2.3-0.5,3.6c0,7.1,5.8,12.8,12.8,12.8c2.7,0,5.2-0.8,7.2-2.2c2,1.4,4.5,2.2,7.1,2.2
	c7.1,0,12.8-5.8,12.8-12.8c0-1.2-0.2-2.4-0.5-3.5C47.3,29.1,49.2,25.5,49.2,21.4 M35,12.8c0,5.1-3.8,9.4-8.7,10.1
	c-0.1-0.5-0.1-1-0.1-1.6c0-5.1,3.8-9.4,8.7-10.1C34.9,11.8,35,12.3,35,12.8 M24.8,42.3c-1.9-1.9-3.1-4.5-3.1-7.3
	c0-2.8,1.2-5.4,3-7.3c1.9,1.9,3.1,4.5,3.1,7.3C27.8,37.9,26.7,40.5,24.8,42.3 M14.6,11.3c4.9,0.7,8.7,5,8.7,10.1
	c0,0.5-0.1,1.1-0.1,1.6c-4.9-0.7-8.7-5-8.7-10.1C14.5,12.3,14.5,11.8,14.6,11.3 M22.3,26c-1.7,3.4-5.2,5.7-9.2,5.7
	c-1.7,0-3.3-0.4-4.7-1.2c1.7-3.4,5.2-5.7,9.2-5.7C19.3,24.8,20.9,25.2,22.3,26 M27.2,25.9c1.4-0.7,3-1.2,4.7-1.2
	c4,0,7.5,2.3,9.2,5.7c-1.4,0.7-3,1.2-4.7,1.2C32.3,31.6,28.9,29.3,27.2,25.9 M24.7,2.6c4.2,0,7.8,2.5,9.4,6.2
	c-4.2,0.7-7.7,3.5-9.4,7.2c-1.7-3.7-5.2-6.5-9.4-7.2C16.9,5.1,20.5,2.6,24.7,2.6 M2.9,21.4c0-5.3,4-9.6,9.2-10.2
	c-0.1,0.5-0.1,1.1-0.1,1.6c0,3.8,1.6,7.1,4.2,9.5c-4.3,0.5-7.9,3.1-9.8,6.7C4.2,27.1,2.9,24.4,2.9,21.4 M7.3,35.1
	c0-0.7,0.1-1.4,0.2-2.1c1.7,0.8,3.6,1.3,5.6,1.3c2.2,0,4.4-0.6,6.2-1.6c-0.1,0.8-0.2,1.6-0.2,2.4c0,3.5,1.4,6.6,3.6,8.9
	c-1.5,0.9-3.3,1.4-5.2,1.4C11.9,45.3,7.3,40.7,7.3,35.1 M42.2,35c0,5.7-4.6,10.2-10.3,10.2c-1.8,0-3.6-0.5-5.1-1.3
	c2.2-2.3,3.5-5.4,3.5-8.8c0-0.8-0.1-1.7-0.2-2.5c1.8,1,4,1.6,6.2,1.6c2,0,3.9-0.5,5.6-1.3C42.1,33.6,42.2,34.3,42.2,35 M33.5,22.2
	c2.5-2.3,4.1-5.7,4.1-9.4c0-0.6,0-1.1-0.1-1.6c5.1,0.6,9.2,4.9,9.2,10.2c0,3-1.3,5.7-3.4,7.6C41.3,25.3,37.7,22.8,33.5,22.2"/>
</svg>
