<?xml version="1.0" encoding="utf-8"?>
<!-- Generator: Adobe Illustrator 20.1.0, SVG Export Plug-In . SVG Version: 6.00 Build 0)  -->
<svg version="1.1" id="Layer_1" xmlns="http://www.w3.org/2000/svg" xmlns:xlink="http://www.w3.org/1999/xlink" x="0px" y="0px"
	 width="65.1px" height="53.4px" viewBox="0 0 65.1 53.4" style="enable-background:new 0 0 65.1 53.4;" xml:space="preserve">
<style type="text/css">
	.st0{fill:#F2F2F2;}
</style>
<g>
	<polygon class="st0" points="25.6,16.2 5.5,4.6 5.5,42.2 25.6,48.2 	"/>
	<polygon class="st0" points="27.8,16.3 27.8,48.3 48.1,42.2 48.1,4.6 	"/>
	<path class="st0" d="M63.9,3.7c0-1.3-1.1-2.4-2.4-2.4c-1.3,0-2.4,1.1-2.4,2.4v2.6h4.8V3.7z"/>
	<polygon class="st0" points="59.7,41.5 59.1,41.5 61.5,49.8 63.9,41.5 63.3,41.5 63.9,41.5 63.9,8.1 63.3,8.1 62.7,8.1 62.1,8.1 
		60.9,8.1 60.3,8.1 59.7,8.1 59.1,8.1 59.1,41.5 	"/>
	<polygon class="st0" points="52.4,6.2 50.2,4.5 50.2,43.2 27.9,50.4 26.9,50.4 26.7,50.4 25.6,50.4 3.4,44.2 3.4,4.5 1.2,6.2 
		1.2,45.7 25.5,52.4 26.7,52.4 26.9,52.4 28,52.4 50.4,45.3 52.4,44.7 	"/>
</g>
</svg>
