<?xml version="1.0" encoding="utf-8"?>
<!-- Generator: Adobe Illustrator 20.1.0, SVG Export Plug-In . SVG Version: 6.00 Build 0)  -->
<svg version="1.1" id="Layer_1" xmlns="http://www.w3.org/2000/svg" xmlns:xlink="http://www.w3.org/1999/xlink" x="0px" y="0px"
	 width="61.9px" height="53.4px" viewBox="0 0 61.9 53.4" style="enable-background:new 0 0 61.9 53.4;" xml:space="preserve">
<style type="text/css">
	.st0{fill:#F2F2F2;}
</style>
<g>
	<path class="st0" d="M20.9,48.7v1.5c0,0,0,0,0,0c0,0,0,0,0,0c0,0.4,0.3,0.7,0.7,0.7c0,0,0,0,0,0c0,0,0,0,0,0h18c0,0,0,0,0,0
		c0,0,0,0,0,0c0.4,0,0.7-0.3,0.7-0.7c0,0,0,0,0,0c0,0,0,0,0,0v-1.7C50.4,45.3,58,37.1,59.7,27.1c0,0,0,0,0-0.1c0,0,0-0.1,0-0.1
		c0-0.4-0.3-0.7-0.7-0.7H2.1H1.7c-0.4,0-0.7,0.3-0.7,0.7l0,0.3C2.8,37.3,10.6,45.6,20.9,48.7"/>
	<path class="st0" d="M40.3,1.7c-0.2,0.3-5.8,8.3,0.1,14.7c2.7,3,2.5,5.6,1.7,7.3h3.8c0.8-2.6,0.4-5.9-2.6-9.2
		C39,9.8,43.4,3.4,43.4,3.3c0.5-0.7,0.2-1.7-0.6-2.1C41.9,0.8,40.8,1,40.3,1.7"/>
	<path class="st0" d="M30.7,23.8h3.8c0.8-2.6,0.4-5.9-2.6-9.2C27.6,9.8,32,3.4,32,3.3c0.5-0.7,0.2-1.7-0.6-2.1
		c-0.9-0.4-2-0.2-2.5,0.5c-0.2,0.3-5.8,8.3,0.1,14.7C31.8,19.4,31.5,22,30.7,23.8"/>
	<path class="st0" d="M17.5,1.7c-0.2,0.3-5.8,8.3,0.1,14.7c2.7,3,2.5,5.6,1.7,7.3h3.8c0.8-2.6,0.4-5.9-2.6-9.2
		c-4.3-4.7,0.1-11.2,0.1-11.3c0.5-0.7,0.2-1.7-0.6-2.1C19.2,0.8,18.1,1,17.5,1.7"/>
</g>
</svg>
