<?xml version="1.0" encoding="utf-8"?>
<!-- Generator: Adobe Illustrator 20.1.0, SVG Export Plug-In . SVG Version: 6.00 Build 0)  -->
<svg version="1.1" id="Layer_1" xmlns="http://www.w3.org/2000/svg" xmlns:xlink="http://www.w3.org/1999/xlink" x="0px" y="0px"
	 width="49.2px" height="48.5px" viewBox="0 0 49.2 48.5" style="enable-background:new 0 0 49.2 48.5;" xml:space="preserve">
<style type="text/css">
	.st0{fill:#F2F2F2;}
</style>
<path class="st0" d="M49,23c-1.8-2.5-9.7-12.3-24.4-12.3C9.9,10.7,2,20.5,0.2,23c-0.1,0.1-0.1,0.2-0.2,0.3c0.1,0.1,0.1,0.2,0.2,0.3
	C2,26,9.9,35.8,24.6,35.8c14.7,0,22.6-9.8,24.4-12.3c0.1-0.1,0.1-0.2,0.2-0.3C49.1,23.2,49.1,23.1,49,23 M16.4,16.9
	c0.1-0.2,0.6-0.8,0.6-0.8c0.1-0.1,0.3-0.2,0.5-0.2c0.2,0,0.4,0.1,0.4,0.2c0,0.1-0.1,0.6-0.1,0.7c-0.2,0.2-0.8,0.5-1.1,0.5
	C16.5,17.2,16.4,17,16.4,16.9 M15.9,17.9C15.9,17.9,15.9,17.9,15.9,17.9c0.2-0.3,0.6-0.3,0.9-0.4c0.3,0,0.6,0.1,0.6,0.3
	c0,0.2-0.6,0.5-0.8,0.6c-0.4,0.3-0.9,1-1.2,1.1c-0.1,0-0.2,0-0.3,0C15.3,18.9,15.6,18.4,15.9,17.9 M21.4,29.2
	c-0.2,0.8-0.4,1.1-0.6,1.3c-0.2,0.2-0.9,0.6-1.4,0.5c-0.5,0-0.5-1.3-0.5-1.9c0-0.2-0.3,0.4-0.5-0.9c-0.1-0.9-0.7,0.1-0.7-0.5
	c0-0.6-0.3-0.5-0.6-0.8c-0.3-0.4-0.6,0-1,0.2c-0.4,0.2-0.2,0.3-0.8,0.1c0,0,0,0,0,0c-0.5-1.2-0.8-2.6-0.8-4c0-0.3,0-0.7,0.1-1
	c0,0,0-0.1,0.1-0.1c0.5-0.6,0.5-0.8,0.5-0.8l0.6-0.2c0,0,1,0.1,1.7,0.4c0.6,0.2,1.5,0.7,2.1,0.5c0.4-0.2,0.7-0.4,0.7-0.7
	c0-0.4-0.4-0.5-0.8-0.2c-0.1,0.1-0.5-0.6-0.7-0.6c-0.2,0,0.3,0.8,0.1,0.9c-0.2,0-0.6-0.8-0.7-1c-0.1-0.1-0.4-0.5-0.7-0.2
	c-0.6,0.6-1.6,0.5-1.8,0.7c-0.6,0.5-0.8-0.1-0.7-0.5c0-0.1,0-0.2,0.1-0.2c0.2-0.2,0.9-0.3,1.1-0.1c0.3,0.2,0.5,0,0.6-0.2
	c0.1-0.1,0.1-0.3,0-0.4c-0.1-0.1,0.1-0.2,0.3-0.3c0.1,0,0.6-0.4,0.8-0.5c0.2-0.1,1.1-0.2,1.6,0c0.4,0.2,0.8,0,1-0.2
	c0.3-0.3,0.6-0.5,0.7-0.6c0.1-0.1-0.4-0.6-0.8,0c-0.4,0.5-0.6,0.6-0.8,0.6s-1.4-0.3-1.5-0.7c-0.1-0.4,0.4-0.7,0.8-0.9
	c0.4-0.2,1.6-0.2,1.9-0.3c0.6-0.1,1.4-0.4,1.8-0.2c0.4,0.3-1.7,0.7-1,1.1c0.2,0.1,1.3-0.6,1.7-0.8c0.9-0.5-0.9-0.6-0.6-1.5
	c0.3-1-2.1-0.6-3.3-0.6c1.6-1,3.5-1.6,5.5-1.6c4.8,0,8.9,3.4,10,7.9c0,0.2,0,0.4,0,0.5c-0.1,0.4-0.8,0.7-1.2,0.1
	c-0.1-0.1-0.5-0.6-0.5,0.1c0,0.7,0.7,0.8,0,1.2c-0.7,0.4-0.8,0.3-1.1,0.4c-0.3,0.1-0.6,0.8-0.5,1.2c0.1,0.4,1,1.5,0.3,1.4
	c-0.2,0-1.4-0.8-1.6-1.4c-0.2-0.6-0.4-1.1-0.6-1.5c-0.2-0.4-0.6-0.5-1-0.3c-0.4,0.2,0.1,0.5-0.2,1c-0.3,0.5-0.4,1-0.8,0.6
	c-1-1.1-2.5-0.6-2.7-1.9c-0.1-0.7-0.7-0.6-1.2-1c-0.5-0.4-0.8-0.6-0.9-0.3c-0.1,0.2,1.6,1.5,1.7,1.9c0.2,0.5-0.5,0.9-1,1
	c-0.5,0.1-0.7-0.3-1.2-0.8c-0.5-0.5-0.7-0.9-0.7-0.5c0,0.6,0.5,1.4,0.9,1.7c0.4,0.3,0.9,0.4,0.7,0.8c-0.1,0.4,0,0.2-0.5,0.6
	c-0.5,0.5-0.6,0.6-0.5,1.2c0,0.6-0.1,0.7-0.2,1.2C21.8,28.9,21.6,28.5,21.4,29.2 M32.4,25.2c0.3,0,0.9,0.5,0.7,0.6
	c-0.2,0.2-0.7,0.1-1-0.1C31.8,25.5,32.2,25.2,32.4,25.2 M32,24.8c-0.1,0-0.2-0.1-0.3-0.4c-0.1-0.3,0.1-0.4,0.3-0.3
	c0.2,0.1,0.5,0.4,0.5,0.6C32.5,24.9,32.1,24.9,32,24.8 M27.4,24.8c-0.2,0.2-0.7,0.1-1-0.1c-0.3-0.2,0.2-0.5,0.3-0.5
	C27.1,24.2,27.6,24.6,27.4,24.8 M23.2,26.9c-0.1,0.2-0.5,2-0.8,1.8c-0.3-0.2,0.1-2,0.2-2.1C23,25.7,23.9,25.8,23.2,26.9 M24.6,33.5
	c-1,0-2-0.1-2.9-0.4c-0.1-0.1-0.2-0.3-0.1-0.5c0.3-0.8,1.3-1.2,2-1.2c1.7-0.2,3.8,1.1,4.2,0.9c0.3-0.2,1.1-1.1,2.1-1.1
	c0.7,0,0.7,0.1,0.9,0.2C29.1,32.8,27,33.5,24.6,33.5 M31.9,30.6c-0.1,0-0.2-0.1-0.3-0.1c-0.6-0.3-0.5,0.2-0.8,0.1
	c-0.3-0.1,0.3-0.7-0.5-0.2c-0.8,0.5-0.6-0.1-1-1c-0.4-0.9,0.4-2,1.1-2.2c0.9-0.3,1.4-0.4,1.9-0.5c1.2-0.3,1.5-1,1.7-0.6
	c0,0.1,0.1,0.2,0.1,0.2c0.1,0.1,0.2,0.4,0.2,0.7C33.7,28.3,32.9,29.5,31.9,30.6 M34.7,25.4c-0.3-0.1-1.4-1.7-0.5-2.7
	c0.2-0.2-0.3-0.7-0.2-0.7c0.5,0,0.8,0.3,0.9,0.7c0,0.2,0,0.4,0,0.6C34.9,24,34.8,24.7,34.7,25.4"/>
</svg>
