<?xml version="1.0" encoding="utf-8"?>
<!-- Generator: Adobe Illustrator 20.1.0, SVG Export Plug-In . SVG Version: 6.00 Build 0)  -->
<svg version="1.1" id="Layer_1" xmlns="http://www.w3.org/2000/svg" xmlns:xlink="http://www.w3.org/1999/xlink" x="0px" y="0px"
	 width="49.2px" height="48.5px" viewBox="0 0 49.2 48.5" style="enable-background:new 0 0 49.2 48.5;" xml:space="preserve">
<style type="text/css">
	.st0{fill:#F2F2F2;}
</style>
<g>
	<path class="st0" d="M24.5,11.3c-7.1,0-12.9,5.8-12.9,12.9c0,7.1,5.8,12.9,12.9,12.9c7.1,0,12.9-5.8,12.9-12.9
		C37.4,17.1,31.7,11.3,24.5,11.3 M23.6,16.4c0-0.4,0.4-0.9,1-0.9c0.5,0,1,0.5,1,0.9v4.4c0,0.4-0.4,0.9-1,0.9c-0.5,0-1-0.5-1-0.9
		V16.4z M24.5,30.8c-3.7,0-6.7-3-6.7-6.7c0-3,2-5.6,4.7-6.4v2.5c-1.4,0.7-2.4,2.2-2.4,3.9c0,2.4,2,4.4,4.4,4.4c2.4,0,4.4-2,4.4-4.4
		c0-1.7-1-3.2-2.4-3.9v-2.5c2.7,0.8,4.7,3.4,4.7,6.4C31.2,27.8,28.2,30.8,24.5,30.8"/>
	<path class="st0" d="M9.7,24.1c0-0.6-0.5-1.1-1-1.1H3.1c-0.5,0-1,0.5-1,1.1c0,0.6,0.5,1.1,1,1.1h5.7C9.2,25.2,9.7,24.7,9.7,24.1"/>
	<path class="st0" d="M47,24.1c0-0.6-0.5-1.1-1-1.1h-5.7c-0.5,0-1,0.5-1,1.1c0,0.6,0.5,1.1,1,1.1H46C46.5,25.2,47,24.7,47,24.1"/>
	<path class="st0" d="M24.5,9.3c0.6,0,1.1-0.5,1.1-1V2.6c0-0.5-0.5-1-1.1-1c-0.6,0-1.1,0.5-1.1,1v5.7C23.5,8.8,24,9.3,24.5,9.3"/>
	<path class="st0" d="M24.5,46.6c0.6,0,1.1-0.5,1.1-1v-5.7c0-0.5-0.5-1-1.1-1c-0.6,0-1.1,0.5-1.1,1v5.7C23.5,46,24,46.6,24.5,46.6"
		/>
	<path class="st0" d="M11.7,16.7c0.3-0.5,0.1-1.2-0.3-1.4l-4.9-2.8C6,12.3,5.3,12.4,5,12.9c-0.3,0.5-0.1,1.2,0.3,1.4l4.9,2.8
		C10.7,17.4,11.4,17.2,11.7,16.7"/>
	<path class="st0" d="M44,35.3c0.3-0.5,0.1-1.2-0.3-1.4L38.8,31c-0.4-0.2-1.1-0.1-1.4,0.4c-0.3,0.5-0.1,1.2,0.3,1.4l4.9,2.8
		C43.1,35.9,43.7,35.8,44,35.3"/>
	<path class="st0" d="M31.9,11.2c0.5,0.3,1.2,0.1,1.4-0.3L36.1,6c0.2-0.4,0.1-1.1-0.4-1.4c-0.5-0.3-1.2-0.1-1.4,0.3l-2.8,4.9
		C31.2,10.3,31.4,11,31.9,11.2"/>
	<path class="st0" d="M13.4,43.6c0.5,0.3,1.2,0.1,1.4-0.3l2.8-4.9c0.2-0.4,0.1-1.1-0.4-1.4c-0.5-0.3-1.2-0.1-1.4,0.3L13,42.2
		C12.7,42.6,12.9,43.3,13.4,43.6"/>
	<path class="st0" d="M17.2,11.3c0.5-0.3,0.7-1,0.4-1.4L14.8,5c-0.2-0.4-0.9-0.6-1.4-0.3c-0.5,0.3-0.7,1-0.4,1.4l2.8,4.9
		C16,11.3,16.6,11.5,17.2,11.3"/>
	<path class="st0" d="M35.7,43.6c0.5-0.3,0.7-1,0.4-1.4l-2.8-4.9c-0.2-0.4-0.9-0.6-1.4-0.3c-0.5,0.3-0.7,1-0.4,1.4l2.8,4.9
		C34.6,43.6,35.2,43.9,35.7,43.6"/>
	<path class="st0" d="M37.4,16.7c0.3,0.5,1,0.7,1.4,0.4l4.9-2.8c0.4-0.2,0.6-0.9,0.3-1.4c-0.3-0.5-1-0.7-1.4-0.4l-4.9,2.8
		C37.3,15.5,37.1,16.2,37.4,16.7"/>
	<path class="st0" d="M5.1,35.3c0.3,0.5,1,0.7,1.4,0.4l4.9-2.8c0.4-0.2,0.6-0.9,0.3-1.4c-0.3-0.5-1-0.7-1.4-0.4l-4.9,2.8
		C5,34.1,4.8,34.8,5.1,35.3"/>
</g>
</svg>
