<?xml version="1.0" encoding="utf-8"?>
<!-- Generator: Adobe Illustrator 20.1.0, SVG Export Plug-In . SVG Version: 6.00 Build 0)  -->
<svg version="1.1" id="Layer_1" xmlns="http://www.w3.org/2000/svg" xmlns:xlink="http://www.w3.org/1999/xlink" x="0px" y="0px"
	 width="41px" height="53.4px" viewBox="0 0 41 53.4" style="enable-background:new 0 0 41 53.4;" xml:space="preserve">
<style type="text/css">
	.st0{fill:#F2F2F2;}
</style>
<g>
	<path class="st0" d="M39.5,0.5H27.3c-0.1,0-0.2,0.1-0.2,0.2v4c0,0.1,0.1,0.2,0.2,0.2h4.9l-5.4,5.4c-2.7-2.1-6.1-3.4-9.8-3.4
		c-8.8,0-16,7.2-16,16c0,8.1,6.1,14.8,13.9,15.8v4.7h-4.8c-0.1,0-0.2,0.1-0.2,0.2v4.3c0,0.1,0.1,0.2,0.2,0.2h4.8v4.6
		c0,0.1,0.1,0.2,0.2,0.2h4.3c0.1,0,0.2-0.1,0.2-0.2V48h4.8c0.1,0,0.2-0.1,0.2-0.2v-4.3c0-0.1-0.1-0.2-0.2-0.2h-4.8v-4.7
		c7.6-1.2,13.4-7.8,13.4-15.7c0-3.4-1.1-6.6-2.9-9.2l5.3-5.3v4.5c0,0.1,0.1,0.2,0.2,0.2h4c0.1,0,0.2-0.1,0.2-0.2V0.7
		C39.7,0.6,39.6,0.5,39.5,0.5 M17,34.6c-6.5,0-11.7-5.3-11.7-11.7c0-6.5,5.3-11.7,11.7-11.7c6.5,0,11.7,5.3,11.7,11.7
		C28.7,29.3,23.4,34.6,17,34.6"/>
	<path class="st0" d="M24.1,18H9.9c-0.1,0-0.2,0.1-0.2,0.1v3.4c0,0.1,0.1,0.1,0.2,0.1h14.2c0.1,0,0.2-0.1,0.2-0.1v-3.4
		C24.3,18.1,24.2,18,24.1,18"/>
	<path class="st0" d="M24.1,24.2H9.9c-0.1,0-0.2,0.1-0.2,0.1v3.4c0,0.1,0.1,0.1,0.2,0.1h14.2c0.1,0,0.2-0.1,0.2-0.1v-3.4
		C24.3,24.2,24.2,24.2,24.1,24.2"/>
</g>
</svg>
