<?xml version="1.0" encoding="utf-8"?>
<!-- Generator: Adobe Illustrator 20.1.0, SVG Export Plug-In . SVG Version: 6.00 Build 0)  -->
<svg version="1.1" id="Layer_1" xmlns="http://www.w3.org/2000/svg" xmlns:xlink="http://www.w3.org/1999/xlink" x="0px" y="0px"
	 width="75.1px" height="53.4px" viewBox="0 0 75.1 53.4" style="enable-background:new 0 0 75.1 53.4;" xml:space="preserve">
<style type="text/css">
	.st0{fill:#F2F2F2;}
</style>
<g>
	<path class="st0" d="M75.1,28.2c0-3.2-2-5.7-5.1-5.7c-1.5,0-3.4,1.7-4.4,2.7c-1-1-2.7-2.7-4.3-2.7c-3.1,0-5.2,2.6-5.2,5.7
		c0,1.6,0.6,3,1.6,4l0,0l7.9,7.9l7.8-7.9l0,0C74.5,31.2,75.1,29.8,75.1,28.2z"/>
	<g>
		<path class="st0" d="M41.7,53C41.6,53,41.6,53,41.7,53c-0.7,0-1.2-0.5-1.3-1.1l-4-23.2l-6,11.2c-0.3,0.5-0.8,0.8-1.4,0.7
			c-0.5-0.1-1-0.5-1.1-1.1l-2.6-17.9L20.7,32c-0.2,0.5-0.7,0.8-1.2,0.8H1.3c-0.7,0-1.3-0.6-1.3-1.3s0.6-1.3,1.3-1.3h17.4l6.2-13.9
			c0.2-0.5,0.8-0.8,1.4-0.8c0.6,0.1,1,0.5,1.1,1.1L30,35.2l6-11c0.3-0.5,0.8-0.8,1.3-0.7c0.5,0.1,1,0.5,1.1,1.1L42,46.1L55.5,1.3
			c0.2-0.5,0.6-0.9,1.1-0.9c0.5,0,1,0.2,1.3,0.7L65,15.8c0.3,0.6,0,1.4-0.6,1.7c-0.6,0.3-1.4,0-1.7-0.6L57,5.3L42.9,52
			C42.7,52.6,42.2,53,41.7,53z"/>
	</g>
</g>
</svg>
