<?xml version="1.0" encoding="utf-8"?>
<!-- Generator: Adobe Illustrator 16.0.0, SVG Export Plug-In . SVG Version: 6.00 Build 0)  -->
<!DOCTYPE svg PUBLIC "-//W3C//DTD SVG 1.1//EN" "http://www.w3.org/Graphics/SVG/1.1/DTD/svg11.dtd">
<svg version="1.1" id="Layer_1" xmlns="http://www.w3.org/2000/svg" xmlns:xlink="http://www.w3.org/1999/xlink" x="0px" y="0px"
	 width="49.2304688px" height="48.4614258px" viewBox="0.0002441 0 49.2304688 48.4614258"
	 enable-background="new 0.0002441 0 49.2304688 48.4614258" xml:space="preserve">
<g>
	<g>
		<path fill="#F7F7F7" d="M1.3059082,33.190918h0.1064453H11.670166c0.140625,0,0.2539063-0.1142578,0.2539063-0.2548828
			c0-0.0644531-0.0273438-0.1240234-0.0664063-0.1689453l-0.0146484-0.0146484l-5.1552734-6.671875l-0.0498047-0.0556641
			c-0.046875-0.0507813-0.1142578-0.0830078-0.1875-0.0830078c-0.0644531,0-0.1220703,0.0253906-0.1669922,0.0644531
			l-0.03125,0.0371094l-0.0478516,0.0546875L1.1721191,32.699707l-0.0771484,0.09375
			c-0.0283203,0.0410156-0.0429688,0.0898438-0.0429688,0.1425781C1.052002,33.0766602,1.1662598,33.190918,1.3059082,33.190918z"/>
		<path fill="#F7F7F7" d="M11.6398926,34.1313477H1.2541504c-0.140625,0-0.2539063,0.1152344-0.2539063,0.2539063v8.1279297
			c0,0.1396484,0.1132813,0.2548828,0.2539063,0.2548828h3.3427734v-5.1132813c0-0.1416016,0.1132813-0.2539063,0.2539063-0.2539063
			h3.1035156c0.1396484,0,0.2539063,0.1132813,0.2539063,0.2539063v5.1132813h3.4316406
			c0.1396484,0,0.2539063-0.1152344,0.2539063-0.2548828v-8.1279297
			C11.8937988,34.246582,11.779541,34.1313477,11.6398926,34.1313477z"/>
	</g>
	<path fill="#F7F7F7" d="M47.5334473,32.0043945H37.2541504c-0.1376953,0-0.25,0.1074219-0.25,0.2441406v10.3789063
		c0,0.1357422,0.1123047,0.2460938,0.25,0.2460938h10.2792969c0.1396484,0,0.2519531-0.109375,0.2519531-0.2460938V32.2485352
		C47.7854004,32.1118164,47.6730957,32.0043945,47.5334473,32.0043945 M41.9104004,38.7797852
		c0,0.1367188-0.1132813,0.2460938-0.2509766,0.2460938h-3.0712891c-0.1396484,0-0.2519531-0.109375-0.2519531-0.2460938v-1.8652344
		c0-0.1367188,0.1123047-0.2460938,0.2519531-0.2460938h3.0712891c0.1386719,0,0.2509766,0.109375,0.2509766,0.2460938V38.7797852z
		 M41.9104004,35.3325195c0,0.1347656-0.1132813,0.2441406-0.2509766,0.2441406h-3.0712891
		c-0.1396484,0-0.2519531-0.109375-0.2519531-0.2441406v-1.8691406c0-0.1347656,0.1123047-0.2441406,0.2519531-0.2441406h3.0712891
		c0.1386719,0,0.2509766,0.109375,0.2509766,0.2441406V35.3325195z M46.6027832,38.7797852
		c0,0.1367188-0.1113281,0.2460938-0.2509766,0.2460938h-3.0693359c-0.140625,0-0.2529297-0.109375-0.2529297-0.2460938v-1.8652344
		c0-0.1367188,0.1123047-0.2460938,0.2529297-0.2460938h3.0693359c0.1396484,0,0.2509766,0.109375,0.2509766,0.2460938V38.7797852z
		 M46.6027832,35.3325195c0,0.1347656-0.1113281,0.2441406-0.2509766,0.2441406h-3.0693359
		c-0.140625,0-0.2529297-0.109375-0.2529297-0.2441406v-1.8691406c0-0.1347656,0.1123047-0.2441406,0.2529297-0.2441406h3.0693359
		c0.1396484,0,0.2509766,0.109375,0.2509766,0.2441406V35.3325195z"/>
	<path fill="#F7F7F7" d="M23.638916,7.9111328H13.5803223c-0.1357422,0-0.2460938,0.1088867-0.2460938,0.2470703v34.3774414
		c0,0.1367188,0.1103516,0.2460938,0.2460938,0.2460938h10.0595703c0.1337891,0,0.2480469-0.109375,0.2480469-0.2460938V8.1582031
		C23.8869629,8.0209961,23.7727051,7.9111328,23.638916,7.9111328 M17.654541,38.8657227
		c0,0.0732422-0.0585938,0.1328125-0.1318359,0.1328125h-2.3027344c-0.0732422,0-0.1318359-0.0605469-0.1318359-0.1328125
		v-2.5664063c0-0.0722656,0.0585938-0.1308594,0.1318359-0.1308594h2.3027344c0.0732422,0,0.1318359,0.0585938,0.1318359,0.1308594
		V38.8657227z M17.654541,32.9692383c0,0.0761719-0.0585938,0.1328125-0.1318359,0.1328125h-2.3027344
		c-0.0732422,0-0.1318359-0.0585938-0.1318359-0.1328125v-2.5644531c0-0.0742188,0.0585938-0.1318359,0.1318359-0.1318359h2.3027344
		c0.0732422,0,0.1318359,0.0576172,0.1318359,0.1318359V32.9692383z M17.654541,27.0766602
		c0,0.0732422-0.0585938,0.1328125-0.1318359,0.1328125h-2.3027344c-0.0732422,0-0.1318359-0.0595703-0.1318359-0.1328125
		v-2.5678711c0-0.0717773,0.0585938-0.1318359,0.1318359-0.1318359h2.3027344c0.0732422,0,0.1318359,0.0600586,0.1318359,0.1318359
		V27.0766602z M17.654541,21.1821289c0,0.0727539-0.0585938,0.1318359-0.1318359,0.1318359h-2.3027344
		c-0.0732422,0-0.1318359-0.0600586-0.1318359-0.1318359v-2.5668945c0-0.0722656,0.0585938-0.1313477,0.1318359-0.1313477h2.3027344
		c0.0732422,0,0.1318359,0.059082,0.1318359,0.1313477V21.1821289z M17.654541,15.2890625
		c0,0.0708008-0.0585938,0.1308594-0.1318359,0.1308594h-2.3027344c-0.0732422,0-0.1318359-0.0600586-0.1318359-0.1308594
		v-2.5693359c0-0.0727539,0.0585938-0.1318359,0.1318359-0.1318359h2.3027344c0.0732422,0,0.1318359,0.059082,0.1318359,0.1318359
		V15.2890625z M22.1721191,38.8657227c0,0.0732422-0.0595703,0.1328125-0.1328125,0.1328125h-2.3027344
		c-0.0732422,0-0.1318359-0.0605469-0.1318359-0.1328125v-2.5664063c0-0.0722656,0.0585938-0.1308594,0.1318359-0.1308594h2.3027344
		c0.0732422,0,0.1328125,0.0585938,0.1328125,0.1308594V38.8657227z M22.1721191,32.9692383
		c0,0.0761719-0.0595703,0.1328125-0.1328125,0.1328125h-2.3027344c-0.0732422,0-0.1318359-0.0585938-0.1318359-0.1328125
		v-2.5644531c0-0.0742188,0.0585938-0.1318359,0.1318359-0.1318359h2.3027344c0.0732422,0,0.1328125,0.0576172,0.1328125,0.1318359
		V32.9692383z M22.1721191,27.0766602c0,0.0732422-0.0595703,0.1328125-0.1328125,0.1328125h-2.3027344
		c-0.0732422,0-0.1318359-0.0595703-0.1318359-0.1328125v-2.5678711c0-0.0717773,0.0585938-0.1318359,0.1318359-0.1318359h2.3027344
		c0.0732422,0,0.1328125,0.0600586,0.1328125,0.1318359V27.0766602z M22.1721191,21.1821289
		c0,0.0727539-0.0595703,0.1318359-0.1328125,0.1318359h-2.3027344c-0.0732422,0-0.1318359-0.0600586-0.1318359-0.1318359
		v-2.5668945c0-0.0722656,0.0585938-0.1313477,0.1318359-0.1313477h2.3027344c0.0732422,0,0.1328125,0.059082,0.1328125,0.1313477
		V21.1821289z M22.1721191,15.2890625c0,0.0708008-0.0595703,0.1308594-0.1328125,0.1308594h-2.3027344
		c-0.0732422,0-0.1318359-0.0600586-0.1318359-0.1308594v-2.5693359c0-0.0727539,0.0585938-0.1318359,0.1318359-0.1318359h2.3027344
		c0.0732422,0,0.1328125,0.059082,0.1328125,0.1318359V15.2890625z"/>
	<path fill="#F7F7F7" d="M47.7727051,30.9594727c0,0.1171875-0.0917969,0.2089844-0.2070313,0.2089844H37.2209473
		c-0.1132813,0-0.2070313-0.0917969-0.2070313-0.2089844v-2.0683594c0-0.1142578,0.09375-0.2060547,0.2070313-0.2060547h10.3457031
		c0.1152344,0,0.2070313,0.0917969,0.2070313,0.2060547v2.0683594H47.7727051z"/>
	<path fill="#F7F7F7" d="M35.7902832,14.4038086c-0.0341797-0.1098633-0.1318359-0.1928711-0.2519531-0.1928711
		c-0.0546875,0-0.1025391,0.0200195-0.1445313,0.0478516c-0.0058594,0.0043945-0.0117188,0.0073242-0.0185547,0.012207
		l-0.0839844,0.1069336l-9.8886719,12.5424805l-0.0458984,0.0605469c-0.0507813,0.0507813-0.0830078,0.1191406-0.0849609,0.1953125
		v0.0175781v15.3945313c0,0.1367188,0.1103516,0.2460938,0.2470703,0.2460938H35.567627
		c0.1367188,0,0.2460938-0.109375,0.2460938-0.2460938V14.5058594C35.8127441,14.46875,35.8039551,14.434082,35.7902832,14.4038086z
		 M31.6271973,21.2138672l0.0693359-0.0878906c0.6777344-0.8691406,1.8173828-2.2719727,2.3730469-2.9541016l0.0722656-0.0869141
		c0.0527344-0.0629883,0.1318359-0.1040039,0.2216797-0.1040039c0.1376953,0,0.2470703,0.1000977,0.2744141,0.2299805v0.1113281
		v0.0898438v2.9707031c0,0.1533203-0.1220703,0.2763672-0.2724609,0.2832031c-0.0058594,0-0.0097656,0.0019531-0.0136719,0.0019531
		s-0.0078125-0.0019531-0.0126953-0.0019531h-2.3476563h-0.1210938c-0.0048828,0-0.0097656,0.0019531-0.0136719,0.0019531
		s-0.0078125-0.0019531-0.0117188-0.0019531c-0.1513672-0.0068359-0.2734375-0.1298828-0.2734375-0.2832031
		C31.5705566,21.3198242,31.592041,21.262207,31.6271973,21.2138672z M30.0627441,38.7788086
		c0,0.1357422-0.109375,0.2460938-0.2460938,0.2460938h-2.9980469c-0.1357422,0-0.2451172-0.1103516-0.2451172-0.2460938v-1.8769531
		c0-0.1357422,0.109375-0.2451172,0.2451172-0.2451172h2.9980469c0.1367188,0,0.2460938,0.109375,0.2460938,0.2451172V38.7788086z
		 M30.0627441,35.3120117c0,0.1376953-0.109375,0.2460938-0.2460938,0.2460938h-2.9980469
		c-0.1357422,0-0.2451172-0.1083984-0.2451172-0.2460938v-1.8769531c0-0.1376953,0.109375-0.2460938,0.2451172-0.2460938h2.9980469
		c0.1367188,0,0.2460938,0.1083984,0.2460938,0.2460938V35.3120117z M30.0627441,31.8442383
		c0,0.1337891-0.109375,0.2441406-0.2460938,0.2441406h-2.9980469c-0.1357422,0-0.2451172-0.1103516-0.2451172-0.2441406V29.965332
		c0-0.1347656,0.109375-0.2460938,0.2451172-0.2460938h2.9980469c0.1367188,0,0.2460938,0.109375,0.2460938,0.2460938V31.8442383z
		 M30.0705566,24.2460938v0.0898438v4.043457c0,0.1367188-0.1103516,0.2460938-0.2451172,0.2460938h-2.9980469
		c-0.1376953,0-0.2470703-0.1083984-0.2470703-0.2460938v-0.5v-0.0205078
		c0.0009766-0.0322266,0.0068359-0.0634766,0.0175781-0.0917969c0.0048828-0.0107422,0.0058594-0.0146484,0.015625-0.0292969
		c0.0068359-0.0117188,0.0146484-0.0224609,0.0224609-0.0322266c0.0068359-0.0117188,0.0185547-0.0263672,0.0283203-0.0410156
		c0.3828125-0.5488281,2.1113281-2.6787109,2.8378906-3.5683594l0.0732422-0.0883789
		c0.0527344-0.0629883,0.1318359-0.1040039,0.2207031-0.1040039c0.1376953,0,0.2480469,0.1010742,0.2734375,0.2299805v0.1123047
		H30.0705566z M34.645752,38.7788086c0,0.1357422-0.1103516,0.2460938-0.2460938,0.2460938h-2.9980469
		c-0.1367188,0-0.2480469-0.1103516-0.2480469-0.2460938v-1.8769531c0-0.1357422,0.1103516-0.2451172,0.2480469-0.2451172h2.9980469
		c0.1347656,0,0.2460938,0.109375,0.2460938,0.2451172V38.7788086z M34.645752,35.3120117
		c0,0.1376953-0.1103516,0.2460938-0.2460938,0.2460938h-2.9980469c-0.1367188,0-0.2480469-0.1083984-0.2480469-0.2460938
		v-1.8769531c0-0.1376953,0.1103516-0.2460938,0.2480469-0.2460938h2.9980469c0.1347656,0,0.2460938,0.1083984,0.2460938,0.2460938
		V35.3120117z M34.645752,31.8442383c0,0.1337891-0.1103516,0.2441406-0.2460938,0.2441406h-2.9980469
		c-0.1367188,0-0.2480469-0.1103516-0.2480469-0.2441406V29.965332c0-0.1347656,0.1103516-0.2460938,0.2480469-0.2460938h2.9980469
		c0.1347656,0,0.2460938,0.109375,0.2460938,0.2460938V31.8442383z M34.645752,28.3754883
		c0,0.1347656-0.1103516,0.2460938-0.2460938,0.2460938h-2.9980469c-0.1367188,0-0.2480469-0.109375-0.2480469-0.2460938v-1.875
		c0-0.1376953,0.1103516-0.2460938,0.2480469-0.2460938h2.9980469c0.1347656,0,0.2460938,0.1083984,0.2460938,0.2460938V28.3754883z
		 M34.645752,24.9067383c0,0.1367188-0.1103516,0.2460938-0.2460938,0.2460938h-2.9980469
		c-0.1367188,0-0.2480469-0.109375-0.2480469-0.2460938V23.03125c0-0.137207,0.1103516-0.2470703,0.2480469-0.2470703h2.9980469
		c0.1347656,0,0.2460938,0.1088867,0.2460938,0.2470703V24.9067383z"/>
</g>
</svg>
