<?xml version="1.0" encoding="utf-8"?>
<!-- Generator: Adobe Illustrator 20.1.0, SVG Export Plug-In . SVG Version: 6.00 Build 0)  -->
<svg version="1.1" id="Layer_1" xmlns="http://www.w3.org/2000/svg" xmlns:xlink="http://www.w3.org/1999/xlink" x="0px" y="0px"
	 width="49.2px" height="48.5px" viewBox="0 0 49.2 48.5" style="enable-background:new 0 0 49.2 48.5;" xml:space="preserve">
<style type="text/css">
	.st0{fill:#F2F2F2;}
</style>
<g>
	<path class="st0" d="M42.1,12.3l-9.1,8.7c-0.3,0.3-0.5,0.6-0.5,1.3v24.3c0,0.3,0.2,0.5,0.5,0.5h9.4c0.3,0,0.5-0.2,0.5-0.5V12.5
		C42.9,12.2,42.7,11.7,42.1,12.3"/>
	<path class="st0" d="M15.8,23.6l-9.1,8.7c-0.3,0.3-0.5,0.6-0.5,1.3v13c0,0.3,0.2,0.5,0.5,0.5h9.4c0.3,0,0.5-0.2,0.5-0.5V23.8
		C16.6,23.5,16.4,23,15.8,23.6"/>
	<path class="st0" d="M46.2,1.7c0-0.1,0-0.1-0.1-0.2c0,0-0.1-0.1-0.2-0.1l0,0l-0.1,0l-7,1.6l-0.1,0c0,0-0.1,0-0.1,0.1
		c-0.1,0.1-0.1,0.3,0,0.4l0.1,0.1l1.6,1.6L24.4,21l-7.3-7.3c-0.1-0.1-0.2-0.1-0.3,0l-2,2c0,0,0,0,0,0L3.1,27.4
		c-0.1,0.1-0.1,0.2,0,0.3l2,2c0.1,0.1,0.2,0.1,0.3,0L17,18.1l5.3,5.3c0,0,0,0,0,0l2,2c0.1,0.1,0.2,0.1,0.3,0l18-18l1.7,1.7
		c0.1,0.1,0.3,0.1,0.4,0c0,0,0.1-0.1,0.1-0.2l0,0L46.2,1.7L46.2,1.7z"/>
	<path class="st0" d="M29,25.1l-4.4,4.5c-0.1,0.1-0.2,0.1-0.3,0l-4-4.1c-0.7-0.7-0.9-0.1-0.9,0.1v21c0,0.3,0.2,0.5,0.5,0.5h9.4
		c0.3,0,0.5-0.2,0.5-0.5V25.3C29.8,25,29.6,24.4,29,25.1"/>
</g>
</svg>
