<?xml version="1.0" encoding="utf-8"?>
<!-- Generator: Adobe Illustrator 20.1.0, SVG Export Plug-In . SVG Version: 6.00 Build 0)  -->
<svg version="1.1" id="Layer_1" xmlns="http://www.w3.org/2000/svg" xmlns:xlink="http://www.w3.org/1999/xlink" x="0px" y="0px"
	 width="49.2px" height="48.5px" viewBox="0 0 49.2 48.5" style="enable-background:new 0 0 49.2 48.5;" xml:space="preserve">
<style type="text/css">
	.st0{fill:#F2F2F2;}
</style>
<g>
	<path class="st0" d="M42.3,0.4c0,0-1,1.4-0.7,2.7c0.3,1.3,1.8,2.1,1.8,2.1s1-1.4,0.7-2.7C43.7,1.2,42.3,0.4,42.3,0.4"/>
	<path class="st0" d="M40.6,8.2c0,0,1-1.4,0.7-2.7c-0.3-1.3-1.8-2.1-1.8-2.1s-1,1.4-0.7,2.7C39.2,7.4,40.6,8.2,40.6,8.2"/>
	<path class="st0" d="M44.7,6.7c0,0,1,1.1,2.2,1c1.2-0.1,2.1-1.4,2.1-1.4s-1-1.1-2.2-1C45.6,5.4,44.7,6.7,44.7,6.7"/>
	<path class="st0" d="M46.4,0.9c-1,1-0.8,2.8-0.8,2.8s1.7,0.2,2.7-0.9c1-1,0.8-2.8,0.8-2.8S47.4-0.1,46.4,0.9"/>
	<path class="st0" d="M44.3,10.8c1.2,0.1,2.3-0.9,2.3-0.9s-0.8-1.3-2-1.4c-1.2-0.1-2.3,0.9-2.3,0.9S43.1,10.6,44.3,10.8"/>
	<path class="st0" d="M45.4,30.6h-8.9c-0.7,0-1.3,0.6-1.3,1.3c0,0.7,0.6,1.3,1.3,1.3h8.9c0.7,0,1.3-0.6,1.3-1.3
		C46.6,31.1,46.1,30.6,45.4,30.6"/>
	<path class="st0" d="M45.4,44.9h-8.9c-0.7,0-1.3,0.6-1.3,1.3c0,0.7,0.6,1.3,1.3,1.3h8.9c0.7,0,1.3-0.6,1.3-1.3
		C46.6,45.5,46.1,44.9,45.4,44.9"/>
	<path class="st0" d="M5.3,27.4c-0.2-0.1-0.4-0.1-0.6-0.2C4.7,27.2,4.9,27.3,5.3,27.4"/>
	<path class="st0" d="M45,34.1h-8.3c-0.4,0-0.7,0.3-0.7,0.7v2.6L30.7,38l-7.9-0.2v-5c1-0.1,2.1-0.4,3.1-0.7
		c7.6-2.2,9.2-7.1,9.1-11.6c-0.2-4.6,1.2-6.3,3.3-7.1c0.6-0.2,1.2-0.4,1.7-0.5c0,1.1,0.2,2.4,0.7,4c0.2,0,0.4,0,0.5,0
		c-0.5-1.6-0.7-2.9-0.7-4c1-0.1,1.8-0.1,1.8-0.1s-0.7-0.4-1.7-1.3c0.3-2.2,1.6-3.5,2.9-4.8c0.7-0.7,1.4-1.5,2-2.4L45,4.1
		c-0.5,0.9-1.3,1.6-1.9,2.3c-1.3,1.3-2.5,2.7-2.9,4.8c-0.4-0.4-0.8-0.8-1.3-1.3c-1.9-2.2-4.3-0.6-7.7,2.7c-3.4,3.3-7.7,3.4-12-1
		C13.6,5.7,8.7,5.7,5.4,6.1c2.3,1,3.1,3.2,4.2,8.8c1.2,5.9,4.3,8.5,8.4,8.9c-1.9,0.3-2.4,0.6-5.5,2.8c-2.4,1.7-5.8,1.2-7.2,0.9
		c2.5,0.8,5.5,3.6,8.2,4.5c1.6,0.6,3.2,0.9,4.9,1v4.8L3.5,37.4v3.3l27.2-0.6l5.4,0.6v2.6c0,0.4,0.3,0.7,0.7,0.7H45
		c0.4,0,0.7-0.3,0.7-0.7v-8.5C45.8,34.4,45.4,34.1,45,34.1z M19.7,33c0.6,0,1.2,0,1.8,0v4.8l-1.8,0V33z"/>
	<path class="st0" d="M2.7,40.2c0,0.7-0.5,1.3-1.1,1.3H1.1c-0.6,0-1.1-0.6-1.1-1.3v-2.3c0-0.7,0.5-1.3,1.1-1.3h0.6
		c0.6,0,1.1,0.6,1.1,1.3V40.2z"/>
</g>
</svg>
