<?xml version="1.0" encoding="utf-8"?>
<!-- Generator: Adobe Illustrator 20.1.0, SVG Export Plug-In . SVG Version: 6.00 Build 0)  -->
<svg version="1.1" id="Layer_1" xmlns="http://www.w3.org/2000/svg" xmlns:xlink="http://www.w3.org/1999/xlink" x="0px" y="0px"
	 width="41px" height="53.4px" viewBox="0 0 41 53.4" style="enable-background:new 0 0 41 53.4;" xml:space="preserve">
<style type="text/css">
	.st0{fill:#F2F2F2;}
</style>
<path class="st0" d="M38.7,0.7c-0.1-0.1-0.2-0.1-0.3-0.1H1.4c-0.1,0-0.2,0.1-0.3,0.1C1,0.8,1,0.9,1,1l6.2,37.5
	c0,0.2,0.2,0.4,0.4,0.4h7.6l0.5,6.1l-3.2,0l7.4,7.4l7.5-7.5l-3.2,0l0.5-6.1h7.7c0.2,0,0.4-0.2,0.4-0.4L38.8,1
	C38.8,0.9,38.7,0.8,38.7,0.7z M24.4,30.7c0,0-1.7,1.7-4.4,1.5c-2.7,0.2-4.4-1.5-4.4-1.5c-2.8-2.8-1.8-6.2-0.8-8
	c0.6-1.1,4.8-7.5,5.2-8v0c0,0,0,0,0,0l0,0v0c0.4,0.5,4.6,6.9,5.2,8C26.2,24.5,27.2,27.9,24.4,30.7z M36.1,8.6
	c-1-0.4-2.3-0.3-3.5,0.2c-4.6,1.9-7.7,2.5-12.5,1c-3-0.9-5.9-2.9-9.2-1.7C8.7,8.9,6.6,9.6,4.1,9.6L2.6,2.2h34.5L36.1,8.6z"/>
</svg>
