<?xml version="1.0" encoding="utf-8"?>
<!-- Generator: Adobe Illustrator 20.1.0, SVG Export Plug-In . SVG Version: 6.00 Build 0)  -->
<svg version="1.1" id="Layer_1" xmlns="http://www.w3.org/2000/svg" xmlns:xlink="http://www.w3.org/1999/xlink" x="0px" y="0px"
	 width="49.2px" height="48.5px" viewBox="0 0 49.2 48.5" style="enable-background:new 0 0 49.2 48.5;" xml:space="preserve">
<style type="text/css">
	.st0{fill:#F2F2F2;stroke:#FFFFFF;stroke-width:0.73;stroke-miterlimit:10;}
</style>
<path class="st0" d="M44.2,16.4c-3.4-2.7-7.9-2.7-9.6-2.3l-0.2,0c-1.9,0.4-4.9,1.2-8.5,5.6c0,0,0,0-0.1,0.1l0,0.1
	c0,0-0.1,0.1-0.1,0.2c0,0.1,0,0.1,0,0.1l0.1,0.1c0.4,0.7,1,1.7,1.5,2.6c0,0,0,0,0,0c0,0.1,0.2,0.2,0.3,0.2c0.1,0,0.2,0,0.2-0.1
	c0,0,0-0.1,0.1-0.1c3.1-4.3,5.6-4.9,7.3-5.3l0.2,0c0.9-0.2,4.2-0.2,6.6,1.7c1.9,1.5,2.8,3.8,2.8,6.9c0,5.3-2.6,7.3-4.7,8.1
	c-3.3,1.2-6.5-0.4-6.5-0.4l-0.1-0.1c-1.8-0.8-4.6-2.4-7.1-7.6c-5.2-10.4-9.5-11.4-12.4-12l-0.2,0c-1.3-0.3-5.8-0.5-9.4,2.3
	c-1.9,1.5-4.1,4.4-4.1,9.7c0,3.2,0.7,5.4,2.4,7.6c0.4,0.5,4.2,5.4,11.6,4c1.2-0.2,2.8-0.8,4.6-2.1l1.6,1.5c0.1,0.1,0.3,0.1,0.4,0
	c0,0,0.1-0.1,0.1-0.2v0l1.2-7.2l0-0.1c0-0.1,0-0.1-0.1-0.2c0,0-0.1-0.1-0.2-0.1l0,0l-0.1,0l-6.9,1.9l-0.1,0c-0.1,0-0.1,0-0.1,0.1
	c-0.1,0.1-0.1,0.3,0,0.4l0.1,0.1l1.6,1.4c-1,0.7-1.9,0.9-2.5,1.1c-5.4,1-8-2.5-8.1-2.6l0-0.1c-1.2-1.6-1.7-3-1.7-5.5
	c0-3.1,0.9-5.5,2.8-6.9c2.3-1.9,5.5-1.9,6.4-1.7l0.2,0c2.4,0.5,5.6,1.3,10,10.2c2.3,4.6,5.2,7.7,8.8,9.2c0.5,0.2,2.7,1.3,5.5,1.3
	c1.2,0,2.5-0.2,3.9-0.7c2.1-0.8,7-3.5,7-11.4C48.4,20.8,46.1,17.9,44.2,16.4"/>
</svg>
