<?xml version="1.0" encoding="utf-8"?>
<!-- Generator: Adobe Illustrator 16.0.0, SVG Export Plug-In . SVG Version: 6.00 Build 0)  -->
<!DOCTYPE svg PUBLIC "-//W3C//DTD SVG 1.1//EN" "http://www.w3.org/Graphics/SVG/1.1/DTD/svg11.dtd">
<svg version="1.1" id="Layer_1" xmlns="http://www.w3.org/2000/svg" xmlns:xlink="http://www.w3.org/1999/xlink" x="0px" y="0px"
	 width="220px" height="220px" viewBox="0 0 220 220" enable-background="new 0 0 220 220" xml:space="preserve">
<circle fill="#E5243D" cx="110" cy="109.744" r="108"/>
<g>
	<path fill="#FFFFFF" d="M84.219,16.61v38.338h-9.6V26.149l-6.66,0.24v-6.66l11.459-3.12H84.219z"/>
</g>
<g>
	<path fill="#FFFFFF" d="M98.591,30.769l-4.357-8.066l0.072,8.066h-2.845V17.265h2.845l4.357,8.066l-0.072-8.066h2.845v13.504
		H98.591z"/>
	<path fill="#FFFFFF" d="M102.711,26.267c0-2.809,0.9-4.753,4.231-4.753c3.331,0,4.23,1.945,4.23,4.753
		c0,2.809-0.9,4.753-4.23,4.753C103.611,31.021,102.711,29.076,102.711,26.267z M105.592,26.267c0,1.801,0.36,2.449,1.351,2.449
		c0.99,0,1.35-0.648,1.35-2.449c0-1.8-0.36-2.449-1.35-2.449C105.952,23.818,105.592,24.467,105.592,26.267z"/>
	<path fill="#FFFFFF" d="M94.342,48.769h-2.881V35.265h4.573c3.602,0,4.844,2.106,4.844,4.411c0,2.341-1.242,4.412-4.844,4.412
		h-1.692V48.769z M94.342,41.495h1.71c1.44,0,1.71-1.099,1.71-1.801s-0.27-1.801-1.71-1.801h-1.71V41.495z"/>
	<path fill="#FFFFFF" d="M101.163,44.267c0-2.809,0.9-4.753,4.231-4.753c3.331,0,4.231,1.945,4.231,4.753
		c0,2.809-0.9,4.753-4.231,4.753C102.063,49.021,101.163,47.076,101.163,44.267z M104.044,44.267c0,1.801,0.36,2.449,1.351,2.449
		c0.99,0,1.35-0.648,1.35-2.449c0-1.8-0.36-2.449-1.35-2.449C104.404,41.818,104.044,42.467,104.044,44.267z"/>
	<path fill="#FFFFFF" d="M113.331,48.913l-3.349-9.146h3.007l1.585,5.582l1.584-5.582h3.007l-3.349,9.146H113.331z"/>
	<path fill="#FFFFFF" d="M122.188,45.222c-0.072,1.17,0.54,1.512,1.944,1.512c1.351,0,2.358-0.27,3.007-0.594v2.251
		c-1.044,0.432-2.305,0.63-3.385,0.63c-2.971,0-4.411-1.512-4.411-4.753c0-3.241,1.422-4.753,4.213-4.753
		c3.854,0,4.123,2.881,3.89,5.708H122.188z M122.188,43.457h2.557c0.162-0.99-0.054-1.783-1.152-1.783
		C122.619,41.674,122.188,42.323,122.188,43.457z"/>
	<path fill="#FFFFFF" d="M134.537,41.962c-0.145-0.036-0.505-0.072-0.883-0.072c-0.882,0-1.675,0.306-1.908,0.522v6.356h-2.882
		v-9.002h1.729l0.359,0.648c0.45-0.432,1.423-0.9,2.773-0.9c0.36,0,0.684,0.072,0.811,0.126V41.962z"/>
	<path fill="#FFFFFF" d="M141.215,48.84c-0.396,0.108-1.08,0.18-1.477,0.18c-2.521,0-3.475-1.062-3.475-3.187v-3.673h-1.459v-1.909
		l1.459-0.396v-1.854l2.881-0.774v2.539h2.232v2.395h-2.232V45.6c0,0.702,0.27,1.098,1.188,1.098c0.379,0,0.738-0.072,0.883-0.108
		V48.84z"/>
	<path fill="#FFFFFF" d="M144.939,39.766l1.477,5.293l1.477-5.293h3.114l-5.149,13.504h-3.15l2.34-5.096l-3.223-8.408H144.939z"/>
</g>
<g>
	<path fill="#FFFFFF" d="M162.877,70.332c0-2.756,2.206-4.986,4.926-4.986c2.715,0,4.916,2.23,4.916,4.986
		c0,2.752-2.201,4.985-4.916,4.985C165.083,75.317,162.877,73.084,162.877,70.332"/>
	<path fill="#FFFFFF" d="M173.55,77.238c3.34,0.307,5.958,3.151,5.958,6.62v1.657v0.724v11.436c0,1.063-0.855,1.931-1.906,1.931
		c-1.059,0-1.909-0.868-1.909-1.931V85.809c0-0.445-0.128-1.048-0.933-1.048c-0.555,0-0.67,0.597-0.69,0.976v35.569
		c0,1.527-1.224,2.775-2.741,2.775c-1.519,0-2.747-1.248-2.747-2.775v-20.497c-0.008-0.226-0.082-0.814-0.778-0.814H167.8
		c-0.699,0-0.784,0.588-0.793,0.814v20.497c0,1.527-1.221,2.775-2.738,2.775c-1.521,0-2.743-1.248-2.743-2.775V85.737
		c-0.019-0.379-0.139-0.976-0.689-0.976c-0.809,0-0.931,0.603-0.931,1.048v11.867c0,1.063-0.855,1.931-1.91,1.931
		c-1.056,0-1.906-0.868-1.906-1.931V86.239v-0.724v-1.657c0-3.469,2.62-6.313,5.966-6.62c0.109-0.014,0.229-0.03,0.361-0.03h5.387
		h5.373C173.316,77.208,173.432,77.225,173.55,77.238"/>
</g>
<g>
	<path fill="#FFFFFF" d="M133.6,72.95c0-2.607-2.081-4.725-4.657-4.725c-2.577,0-4.665,2.118-4.665,4.725
		c0,2.608,2.088,4.721,4.665,4.721C131.519,77.67,133.6,75.558,133.6,72.95"/>
	<path fill="#FFFFFF" d="M119.548,83.642l-3.875,12.772c0,0-0.691,2.342,1.271,2.926c1.951,0.585,2.544-1.7,2.544-1.7l3.126-10.661
		c0,0,0.169-0.82,0.778-0.642c0.609,0.177,0.381,1.054,0.381,1.054l-5.439,19.978h5.059v14.309c0,1.354,1.089,2.456,2.432,2.456
		c1.34,0,2.424-1.103,2.424-2.456v-14.309h0.694h0.686v14.309c0,1.354,1.083,2.456,2.428,2.456c1.346,0,2.433-1.103,2.433-2.456
		v-14.309h5.056l-5.435-19.978c0,0-0.229-0.877,0.379-1.054c0.61-0.178,0.779,0.642,0.779,0.642l3.125,10.661
		c0,0,0.594,2.286,2.543,1.7c1.967-0.584,1.272-2.926,1.272-2.926l-3.876-12.772c0,0-1.385-3.692-4.451-3.692h-4.938h-4.94
		C120.937,79.949,119.548,83.642,119.548,83.642"/>
</g>
<g>
	<path fill="#FFFFFF" d="M105.678,72.95c0-2.607-2.085-4.725-4.66-4.725c-2.577,0-4.662,2.118-4.662,4.725
		c0,2.608,2.085,4.721,4.662,4.721C103.593,77.67,105.678,75.558,105.678,72.95"/>
	<path fill="#FFFFFF" d="M91.624,83.642l-3.873,12.772c0,0-0.693,2.342,1.271,2.926c1.951,0.585,2.543-1.7,2.543-1.7l3.125-10.661
		c0,0,0.169-0.82,0.778-0.642c0.611,0.177,0.38,1.054,0.38,1.054l-5.437,19.978h5.057v14.309c0,1.354,1.092,2.456,2.432,2.456
		c1.342,0,2.427-1.103,2.427-2.456v-14.309h0.696h0.684v14.309c0,1.354,1.081,2.456,2.429,2.456c1.346,0,2.429-1.103,2.429-2.456
		v-14.309h5.059l-5.434-19.978c0,0-0.231-0.877,0.375-1.054c0.608-0.178,0.78,0.642,0.78,0.642l3.122,10.661
		c0,0,0.595,2.286,2.545,1.7c1.965-0.584,1.271-2.926,1.271-2.926l-3.876-12.772c0,0-1.381-3.692-4.449-3.692h-4.935h-4.944
		C93.014,79.949,91.624,83.642,91.624,83.642"/>
</g>
<g>
	<path fill="#FFFFFF" d="M149.258,99.366c2.146,0,3.878-1.758,3.878-3.932c0-2.172-1.732-3.926-3.878-3.926
		c-2.147,0-3.882,1.754-3.882,3.926C145.376,97.608,147.11,99.366,149.258,99.366"/>
	<path fill="#FFFFFF" d="M139.953,111.571c-0.19,0.46-0.345,1.433,0.565,1.859c1.068,0.496,1.663-0.549,1.663-0.549l2.11-6.812
		c0,0,0.365-0.456,0.365,0.016v16.033h0.01c0,1.116,0.888,2.017,1.992,2.017c1.1,0,1.989-0.9,1.989-2.017v-6.327
		c0,0-0.115-0.895,0.597-0.895c0.713,0,0.603,0.895,0.603,0.895v6.327c0,1.116,0.894,2.017,1.994,2.017
		c1.099,0,1.995-0.9,1.995-2.017v-16.033c0-0.472,0.246-0.135,0.246-0.135l1.653,4.665c0,0,0.718,2.083,0.938,2.175
		c0.746,0.318,1.609-0.042,1.924-0.805c0.206-0.497,0.127-1.031-0.158-1.433l0.015-0.015c-0.048-0.151-2.471-6.168-2.757-7.013
		c-0.874-2.587-2.468-2.564-4.001-2.607c-1.535-0.038-2.452,0-2.452,0s-0.979-0.041-3.006,0.02
		c-2.021,0.064-2.659,1.113-4.891,6.924c-0.318,0.836-1.396,3.545-1.409,3.707L139.953,111.571z"/>
</g>
<g>
	<g>
		<path fill="#FFFFFF" d="M64.043,70.332c0-2.756-2.208-4.986-4.927-4.986c-2.716,0-4.917,2.23-4.917,4.986
			c0,2.752,2.2,4.985,4.917,4.985C61.834,75.317,64.043,73.084,64.043,70.332"/>
		<path fill="#FFFFFF" d="M53.368,77.238c-3.339,0.307-5.96,3.151-5.96,6.62v1.657v0.724v11.436c0,1.063,0.855,1.931,1.91,1.931
			c1.056,0,1.91-0.868,1.91-1.931V85.809c0-0.445,0.127-1.048,0.931-1.048c0.555,0,0.67,0.597,0.694,0.976v35.569
			c0,1.527,1.22,2.775,2.739,2.775c1.516,0,2.742-1.248,2.742-2.775v-20.497c0.012-0.226,0.085-0.814,0.782-0.814h0.002
			c0.699,0,0.784,0.588,0.791,0.814v20.497c0,1.527,1.224,2.775,2.74,2.775c1.519,0,2.742-1.248,2.742-2.775V85.737
			c0.016-0.379,0.141-0.976,0.692-0.976c0.808,0,0.929,0.603,0.929,1.048v11.867c0,1.063,0.855,1.931,1.91,1.931
			c1.054,0,1.907-0.868,1.907-1.931V86.239v-0.724v-1.657c0-3.469-2.619-6.313-5.964-6.62c-0.111-0.014-0.229-0.03-0.362-0.03
			h-5.387h-5.372C53.603,77.208,53.484,77.225,53.368,77.238"/>
	</g>
	
		<line fill="none" stroke="#FFFFFF" stroke-width="1.3067" stroke-linecap="round" stroke-miterlimit="10" x1="49.075" y1="99.684" x2="44.703" y2="123.145"/>
</g>
<g>
	<path fill="#FFFFFF" d="M73.167,97.308c-0.254-0.402-0.693-0.671-1.198-0.671c-0.779,0-1.414,0.643-1.414,1.428
		c0,0.229,0.138,0.628,0.138,0.628l3.913,7.167c0,0,0.24,0.494,0.24,0.945v15.391h0.007c0,1.073,0.855,1.937,1.914,1.937
		c1.055,0,1.907-0.863,1.907-1.937v-6.074c0,0-0.108-0.858,0.578-0.858c0.683,0,0.576,0.858,0.576,0.858v6.074
		c0,1.073,0.858,1.937,1.915,1.937c1.056,0,1.916-0.863,1.916-1.937v-15.391c0-0.451,0.236-0.945,0.236-0.945l3.617-6.617
		c0,0,0.442-0.95,0.442-1.179c0-0.786-0.632-1.428-1.415-1.428c-0.512,0-0.949,0.269-1.197,0.671l-0.016-0.008
		c-0.113,0.099-1.924,3.364-2.522,3.969c-0.632,0.646-1.197,0.574-1.197,0.574H79.25h-2.349c0,0-0.57,0.071-1.199-0.574
		c-0.605-0.604-2.409-3.87-2.524-3.969L73.167,97.308z"/>
	<path fill="#FFFFFF" d="M79.25,99.366c2.146,0,3.878-1.758,3.878-3.932c0-2.172-1.732-3.926-3.878-3.926
		c-2.146,0-3.879,1.754-3.879,3.926C75.372,97.608,77.105,99.366,79.25,99.366"/>
	<polygon fill="#FFFFFF" points="79.256,104.88 83.643,108.119 85.727,115.889 79.256,115.889 72.782,115.889 74.871,108.119 	"/>
</g>
<g>
	<path fill="#FFFFFF" d="M62.162,156.295h-2.241v-10.506h3.558c2.802,0,3.768,1.639,3.768,3.432c0,1.821-0.966,3.433-3.768,3.433
		h-1.316V156.295z M62.162,150.636h1.331c1.121,0,1.331-0.854,1.331-1.4c0-0.547-0.21-1.401-1.331-1.401h-1.331V150.636z"/>
	<path fill="#FFFFFF" d="M70.282,156.295h-2.241v-10.506h3.572c2.83,0,3.754,1.289,3.754,3.292c0,1.303-0.364,2.297-1.471,2.829
		l1.863,4.385h-2.619l-1.415-3.937h-1.442V156.295z M70.282,150.328h1.527c0.994,0,1.121-0.673,1.121-1.247
		c0-0.588-0.126-1.247-1.121-1.247h-1.527V150.328z"/>
	<path fill="#FFFFFF" d="M76.664,156.295v-10.506h2.241v10.506H76.664z"/>
	<path fill="#FFFFFF" d="M80.276,151.042c0-3.208,0.882-5.449,4.188-5.449c3.306,0,4.188,2.241,4.188,5.449
		s-0.882,5.449-4.188,5.449C81.158,156.491,80.276,154.25,80.276,151.042z M82.545,151.042c0,2.451,0.532,3.418,1.919,3.418
		s1.919-0.967,1.919-3.418s-0.532-3.418-1.919-3.418S82.545,148.591,82.545,151.042z"/>
	<path fill="#FFFFFF" d="M92.107,156.295h-2.241v-10.506h3.572c2.83,0,3.754,1.289,3.754,3.292c0,1.303-0.364,2.297-1.471,2.829
		l1.863,4.385h-2.619l-1.415-3.937h-1.442V156.295z M92.107,150.328h1.527c0.994,0,1.121-0.673,1.121-1.247
		c0-0.588-0.126-1.247-1.121-1.247h-1.527V150.328z"/>
	<path fill="#FFFFFF" d="M102.118,147.834v8.461h-2.241v-8.461h-2.536v-2.045h7.312v2.045H102.118z"/>
	<path fill="#FFFFFF" d="M105.658,156.295v-10.506h2.241v10.506H105.658z"/>
	<path fill="#FFFFFF" d="M109.116,156.295v-1.484l4.692-6.864l-4.272,0.042v-2.199h7.34v1.485l-4.692,6.863l4.902-0.042v2.199
		H109.116z"/>
	<path fill="#FFFFFF" d="M118.301,156.295v-10.506h2.241v10.506H118.301z"/>
	<path fill="#FFFFFF" d="M127.529,156.295l-3.39-6.275l0.056,6.275h-2.213v-10.506h2.213l3.39,6.275l-0.056-6.275h2.213v10.506
		H127.529z"/>
	<path fill="#FFFFFF" d="M130.956,151.042c0-3.656,1.316-5.449,4.511-5.449c1.429,0,2.465,0.211,3.096,0.49v2.186
		c-0.869-0.364-1.808-0.574-2.676-0.574c-2.003,0-2.661,0.896-2.661,3.348c0,2.619,0.714,3.348,2.661,3.348
		c0.21,0,0.49-0.014,0.645-0.042v-2.129h-1.485v-2.003h3.727v5.561c-0.631,0.393-1.863,0.715-3.376,0.715
		C132.272,156.491,130.956,154.698,130.956,151.042z"/>
	<path fill="#FFFFFF" d="M146.722,147.834v8.461h-2.241v-8.461h-2.535v-2.045h7.313v2.045H146.722z"/>
	<path fill="#FFFFFF" d="M155.542,156.295v-4.398h-3.193v4.398h-2.241v-10.506h2.241v4.063h3.193v-4.063h2.241v10.506H155.542z"/>
	<path fill="#FFFFFF" d="M165.356,151.868h-4.048v2.382h4.454v2.045h-6.695v-10.506h6.695v2.045h-4.454v2.031h4.048V151.868z"/>
	<path fill="#FFFFFF" d="M48.877,172.295v-4.398h-3.193v4.398h-2.241v-10.506h2.241v4.063h3.193v-4.063h2.241v10.506H48.877z"/>
	<path fill="#FFFFFF" d="M58.692,167.868h-4.048v2.382h4.454v2.045h-6.695v-10.506h6.695v2.045h-4.454v2.031h4.048V167.868z"/>
	<path fill="#FFFFFF" d="M59.878,172.295l2.914-10.562h2.577l2.914,10.562h-2.381l-0.49-2.157H62.75l-0.49,2.157H59.878z
		 M63.184,168.358h1.793l-0.896-3.978L63.184,168.358z"/>
	<path fill="#FFFFFF" d="M71.444,170.25h4.244v2.045h-6.485v-10.506h2.241V170.25z"/>
	<path fill="#FFFFFF" d="M79.425,163.834v8.461h-2.241v-8.461h-2.536v-2.045h7.312v2.045H79.425z"/>
	<path fill="#FFFFFF" d="M88.245,172.295v-4.398h-3.193v4.398h-2.241v-10.506h2.241v4.063h3.193v-4.063h2.241v10.506H88.245z"/>
	<path fill="#FFFFFF" d="M100.117,172.295l-3.39-6.275l0.056,6.275H94.57v-10.506h2.213l3.39,6.275l-0.056-6.275h2.213v10.506
		H100.117z"/>
	<path fill="#FFFFFF" d="M109.903,167.868h-4.048v2.382h4.454v2.045h-6.695v-10.506h6.695v2.045h-4.454v2.031h4.048V167.868z"/>
	<path fill="#FFFFFF" d="M117.743,167.868h-4.048v2.382h4.454v2.045h-6.695v-10.506h6.695v2.045h-4.454v2.031h4.048V167.868z"/>
	<path fill="#FFFFFF" d="M119.295,172.295v-10.506h3.403c3.559,0,4.482,2.27,4.482,5.253s-0.924,5.253-4.482,5.253H119.295z
		 M121.536,170.25h1.204c1.64,0,2.115-1.177,2.115-3.208c0-2.017-0.476-3.208-2.115-3.208h-1.204V170.25z"/>
	<path fill="#FFFFFF" d="M135.581,168.947c0,2.605-1.639,3.544-4.118,3.544c-1.135,0-2.521-0.196-3.278-0.645v-2.297
		c0.49,0.279,1.667,0.813,3.054,0.813c1.583,0,2.046-0.49,2.046-1.205c0-0.799-0.351-1.064-1.415-1.205
		c-2.662-0.35-3.685-1.134-3.685-3.193c0-1.905,1.163-3.166,3.937-3.166c1.429,0,2.479,0.253,2.97,0.519v2.171
		c-0.574-0.279-1.737-0.56-2.802-0.56c-1.162,0-1.807,0.364-1.807,1.036c0,0.757,0.406,0.994,1.499,1.148
		C134.307,166.229,135.581,166.706,135.581,168.947z"/>
	<path fill="#FFFFFF" d="M139.385,167.042c0-3.208,0.883-5.449,4.188-5.449s4.188,2.241,4.188,5.449s-0.883,5.449-4.188,5.449
		S139.385,170.25,139.385,167.042z M141.654,167.042c0,2.451,0.532,3.418,1.919,3.418s1.919-0.967,1.919-3.418
		s-0.532-3.418-1.919-3.418S141.654,164.591,141.654,167.042z"/>
	<path fill="#FFFFFF" d="M155.18,168.009h-3.964v4.286h-2.241v-10.506h6.625v2.045h-4.384v2.172h3.964V168.009z"/>
	<path fill="#FFFFFF" d="M163.199,163.834v8.461h-2.241v-8.461h-2.535v-2.045h7.313v2.045H163.199z"/>
	<path fill="#FFFFFF" d="M172.02,172.295v-4.398h-3.193v4.398h-2.241v-10.506h2.241v4.063h3.193v-4.063h2.241v10.506H172.02z"/>
	<path fill="#FFFFFF" d="M181.834,167.868h-4.048v2.382h4.454v2.045h-6.695v-10.506h6.695v2.045h-4.454v2.031h4.048V167.868z"/>
</g>
</svg>
