<svg width="218" height="218" xmlns="http://www.w3.org/2000/svg">
 <style type="text/css">.st0{fill:#17496B;}
	.st1{fill:#FFFFFF;}
	.st2{fill:#F8F4F9;}</style>

 <g>
  <title>background</title>
  <rect fill="none" id="canvas_background" height="402" width="582" y="-1" x="-1"/>
 </g>
 <g>
  <title>Layer 1</title>
  <g id="svg_1">
   <circle id="svg_2" r="108" cy="108.939316" cx="109.382172" class="st0"/>
  </g>
  <g id="svg_3">
   <path id="svg_4" d="m56.061523,26.566406l0,26.842774l-6.721191,0l0,-20.163574l-4.662598,0.167968l0,-4.662597l8.02295,-2.184571l3.360839,0z" class="st1"/>
   <path id="svg_5" d="m61.813477,58.660156l11.594238,-25.456543l-13.694824,0.125977l0,-6.175293l20.037597,0l0,4.117187l-10.333496,27.388672l-7.603515,0z" class="st1"/>
  </g>
  <path id="svg_29" d="m142.873001,94.448998c0,-9.654 -7.679001,-17.540001 -17.244995,-17.888001c-2.460998,-6.949997 -9.098,-11.942001 -16.879997,-11.942001s-14.417,4.993003 -16.881005,11.942001c-9.567001,0.349007 -17.243003,8.235001 -17.243003,17.888001c0,5.726997 2.708,10.832 6.908996,14.111999c-0.456001,1.579002 -0.708,3.245003 -0.708,4.969002c0,9.869003 8.031998,17.899994 17.904999,17.899994c3.746002,0 7.225998,-1.158997 10.104004,-3.134995c2.845001,1.903 6.261001,3.016007 9.932998,3.016007c9.871994,0 17.903,-8.031998 17.903,-17.900002c0,-1.688003 -0.238998,-3.320999 -0.677993,-4.870002c4.182998,-3.280999 6.880996,-8.376 6.880996,-14.092003m-19.827003,-11.927994c0,7.166 -5.304001,13.098999 -12.190003,14.124c-0.111999,-0.718002 -0.185997,-1.447998 -0.185997,-2.195999c0,-7.168999 5.304001,-13.102997 12.189003,-14.125c0.112999,0.715996 0.186997,1.446999 0.186997,2.196999m-14.232995,41.131996c-2.677002,-2.598999 -4.346,-6.227997 -4.346,-10.241997c0,-3.952003 1.614998,-7.536003 4.213997,-10.125c2.675003,2.598999 4.346,6.227997 4.346,10.245003c0.001,3.949997 -1.611999,7.531997 -4.213997,10.121994m-14.177001,-43.330002c6.885002,1.023003 12.191002,6.957001 12.191002,14.126c0,0.748001 -0.075997,1.477996 -0.188004,2.195999c-6.886002,-1.024003 -12.190002,-6.958001 -12.190002,-14.124001c0,-0.749992 0.075004,-1.480995 0.187004,-2.197998m10.660995,20.521004c-2.352997,4.677002 -7.185997,7.903 -12.770004,7.903c-2.367996,0 -4.599999,-0.589997 -6.568001,-1.612999c2.352997,-4.678002 7.188003,-7.902001 12.771004,-7.902001c2.369003,0 4.598007,0.587998 6.567001,1.612m6.855003,-0.096001c1.981003,-1.039001 4.226998,-1.636002 6.614998,-1.636002c5.622002,0 10.481003,3.270997 12.817994,8c-1.981995,1.040001 -4.231003,1.636002 -6.614998,1.636002c-5.622994,-0.000999 -10.483994,-3.271004 -12.817994,-8m-3.404998,-32.525001c5.859001,0 10.900001,3.542999 13.108001,8.597999c-5.817001,1.026001 -10.672996,4.863999 -13.108001,10.058998c-2.432,-5.194999 -7.290001,-9.034004 -13.106003,-10.058998c2.208,-5.055 7.248001,-8.597999 13.106003,-8.597999m-30.519005,26.225998c0,-7.369004 5.599998,-13.447998 12.765999,-14.215005c-0.095002,0.749001 -0.150002,1.512001 -0.150002,2.288003c0,5.233001 2.259003,9.947998 5.849999,13.223998c-5.938004,0.677002 -11.004998,4.265999 -13.727997,9.302002c-2.899994,-2.617996 -4.737999,-6.393997 -4.737999,-10.598998m6.202003,19.081001c0,-1.016998 0.108002,-2.007004 0.313004,-2.962998c2.355003,1.142998 4.996002,1.782997 7.783996,1.782997c3.135002,0 6.080002,-0.811996 8.644997,-2.232002c-0.198998,1.067001 -0.308998,2.168999 -0.308998,3.292999c0,4.835 1.933998,9.227997 5.060997,12.451996c-2.116997,1.238999 -4.570999,1.962998 -7.193001,1.962998c-7.887993,0.000015 -14.300995,-6.412987 -14.300995,-14.29599m48.635994,-0.118996c0,7.881996 -6.414993,14.297005 -14.298996,14.297005c-2.566002,0 -4.967003,-0.688004 -7.050003,-1.876999c3.041001,-3.208 4.917,-7.541001 4.917,-12.301003c0,-1.171997 -0.119003,-2.316001 -0.333,-3.426002c2.570999,1.429001 5.526001,2.246002 8.669998,2.246002c2.796997,0 5.447006,-0.646004 7.806,-1.796997c0.18901,0.925987 0.289001,1.880989 0.289001,2.857994m-12.152992,-17.771004c3.526001,-3.270996 5.739006,-7.941002 5.739006,-13.119003c0,-0.775001 -0.054993,-1.539001 -0.149994,-2.288002c7.166,0.766998 12.766998,6.846001 12.766998,14.215004c0,4.184998 -1.819,7.945 -4.697998,10.561997c-2.695007,-5.046998 -7.736007,-8.656998 -13.658012,-9.369996" class="st1"/>
  <text style="cursor: move;" xml:space="preserve" text-anchor="start" font-family="Helvetica, Arial, sans-serif" font-size="18" id="svg_215" y="40.885418" x="85.692931" fill-opacity="null" stroke-opacity="null" stroke-width="0" stroke="null" fill="#ffffff">Samvinna</text>
  <text style="cursor: move;" xml:space="preserve" text-anchor="start" font-family="Helvetica, Arial, sans-serif" font-size="18" id="svg_216" y="59.114411" x="85.953345" fill-opacity="null" stroke-opacity="null" stroke-width="0" stroke="null" fill="#ffffff">um markmiðin</text>
  <text xml:space="preserve" text-anchor="start" font-family="Helvetica, Arial, sans-serif" font-size="12" id="svg_217" y="149.478132" x="24.756012" fill-opacity="null" stroke-opacity="null" stroke-width="0" stroke="null" fill="#ffffff">Styrkja framkvæmd og blása lífi í</text>
  <text xml:space="preserve" text-anchor="start" font-family="Helvetica, Arial, sans-serif" font-size="12" id="svg_218" y="165.102983" x="47.67246" fill-opacity="null" stroke-opacity="null" stroke-width="0" stroke="null" fill="#ffffff">alþjóðlegt samstarf um</text>
  <text xml:space="preserve" text-anchor="start" font-family="Helvetica, Arial, sans-serif" font-size="12" id="svg_219" y="181.76949" x="66.161867" fill-opacity="null" stroke-opacity="null" stroke-width="0" stroke="null" fill="#ffffff">sjálfbæra þróun</text>
 </g>
</svg>