<svg width="218.00000000000003" height="218.00000000000003" xmlns="http://www.w3.org/2000/svg">
 <style type="text/css">.st0{fill:#A21C43;}
	.st1{fill:#FFFFFF;}
	.st2{enable-background:new    ;}</style>

 <g>
  <title>background</title>
  <rect fill="none" id="canvas_background" height="402" width="582" y="-1" x="-1"/>
 </g>
 <g>
  <title>Layer 1</title>
  <g id="svg_1">
   <circle id="svg_2" r="108" cy="108.939316" cx="109.382172" class="st0"/>
  </g>
  <g id="svg_3">
   <path id="svg_4" d="m26.755371,65.508301c0,-4.800293 3.000488,-7.950195 5.200195,-8.900391c-1.850097,-1.049805 -4.049804,-3.600097 -4.049804,-7.750488c0,-6.800293 3.700195,-10.650391 12.100586,-10.650391s12.100586,3.850098 12.100586,10.650391c0,4.150391 -2.200196,6.700683 -4.050293,7.750488c2.200195,0.950195 5.200683,4.100098 5.200683,8.900391c0,7.800781 -5.000488,11.601074 -13.250977,11.601074s-13.250976,-3.800293 -13.250976,-11.601074zm19.001465,-0.09961c0,-3.15039 -1.750488,-5.250488 -5.750488,-5.250488c-4.000489,0 -5.750489,2.100098 -5.750489,5.250488c0,2.350098 1.350098,4.850098 5.750489,4.850098s5.750488,-2.5 5.750488,-4.850098zm-1.500488,-16.051269c0,-2.850098 -1.949707,-4.350098 -4.25,-4.350098s-4.250489,1.5 -4.250489,4.350098c0,2.650391 1.550293,4.500488 4.250489,4.500488s4.25,-1.850097 4.25,-4.500488z" class="st1"/>
  </g>
  <g id="svg_33">
   <path id="svg_34" d="m130.370544,91.452866l-11.05603,10.484169c-0.381241,0.38124 -0.667168,0.762481 -0.667168,1.620277l0,29.450973c0,0.381257 0.285935,0.667176 0.667168,0.667176l11.437287,0c0.381225,0 0.667159,-0.285935 0.667159,-0.667176l0,-41.269485c0.000001,-0.381248 -0.285934,-0.95311 -1.048416,-0.285934" class="st1"/>
   <path id="svg_35" d="m98.632111,105.177597l-11.056031,10.484161c-0.38124,0.381249 -0.667167,0.76249 -0.667167,1.620278l0,15.72625c0,0.381256 0.285934,0.667175 0.667167,0.667175l11.437279,0c0.381241,0 0.667168,-0.285935 0.667168,-0.667175l0,-27.640076c-0.095307,-0.285927 -0.381241,-0.953102 -1.048416,-0.190613" class="st1"/>
   <path id="svg_36" d="m135.422012,78.681236c0,-0.095306 0,-0.190613 -0.095321,-0.285934c-0.095307,-0.095307 -0.095307,-0.095307 -0.190613,-0.095307l-0.095322,0l-0.095306,0l-8.482651,1.906212l-0.19062,0c-0.095307,0 -0.095307,0 -0.190621,0.095307c-0.095306,0.095314 -0.095306,0.285934 0,0.476555l0.095314,0.095314l1.906212,1.906212l-19.157433,19.157432l-8.863891,-8.863891c-0.095314,-0.095314 -0.285935,-0.095314 -0.381249,0l-2.382759,2.382766l0,0l-14.201286,14.201279c-0.095306,0.095314 -0.095306,0.285934 0,0.381248l2.382767,2.38276c0.095306,0.095314 0.285934,0.095314 0.38124,0l14.010659,-14.010659l6.385811,6.385811l0,0l2.382766,2.382767c0.095307,0.095306 0.285935,0.095306 0.381241,0l21.921463,-21.540192l2.001526,2.001526c0.095322,0.095306 0.285934,0.095306 0.476563,0c0.095306,-0.095314 0.095306,-0.095314 0.095306,-0.19062l0,0l1.906204,-8.768586l0,0z" class="st1"/>
   <path id="svg_37" d="m114.548981,106.988495l-5.337387,5.337395c-0.095314,0.095306 -0.285935,0.095306 -0.381249,0l-4.86084,-4.956147c-0.857795,-0.857803 -1.048416,-0.19062 -1.048416,0.190613l0,25.352623c0,0.381241 0.285935,0.667175 0.667176,0.667175l11.437271,0c0.381248,0 0.667175,-0.285934 0.667175,-0.667175l0,-25.733864c-0.095314,-0.38124 -0.381241,-0.953109 -1.14373,-0.19062" class="st1"/>
  </g>
  <text xml:space="preserve" text-anchor="start" font-family="Helvetica, Arial, sans-serif" font-size="18" id="svg_143" y="51.960525" x="63.912291" stroke-width="0" stroke="#000" fill="#ffffff">Góð atvinna</text>
  <text xml:space="preserve" text-anchor="start" font-family="Helvetica, Arial, sans-serif" font-size="18" id="svg_144" y="71.960525" x="64.614045" stroke-width="0" stroke="#000" fill="#ffffff">og hagvöxtur</text>
  <text xml:space="preserve" text-anchor="start" font-family="Helvetica, Arial, sans-serif" font-size="12" id="svg_145" y="149.855264" x="33.035097" stroke-width="0" stroke="#000" fill="#ffffff">Stuðla að viðvarandi sjálfbærum</text>
  <text xml:space="preserve" text-anchor="start" font-family="Helvetica, Arial, sans-serif" font-size="12" id="svg_146" y="164.942983" x="46.017553" stroke-width="0" stroke="#000" fill="#ffffff">hagvexti og arðbærum og</text>
  <text style="cursor: move;" xml:space="preserve" text-anchor="start" font-family="Helvetica, Arial, sans-serif" font-size="12" id="svg_147" y="180.38158" x="53.385975" stroke-width="0" stroke="#000" fill="#ffffff">mannsæmandi atvinnu-</text>
  <text xml:space="preserve" text-anchor="start" font-family="Helvetica, Arial, sans-serif" font-size="12" id="svg_148" y="195.118423" x="61.105273" fill-opacity="null" stroke-opacity="null" stroke-width="0" stroke="null" fill="#ffffff">tækifærum fyrir alla</text>
 </g>
</svg>