<svg width="218" height="218" xmlns="http://www.w3.org/2000/svg">
 <style type="text/css">.st0{fill:#1A96D4;}
	.st1{fill:#FFFFFF;}</style>

 <g>
  <title>background</title>
  <rect fill="none" id="canvas_background" height="402" width="582" y="-1" x="-1"/>
 </g>
 <g>
  <title>Layer 1</title>
  <g id="svg_1">
   <circle id="svg_2" r="108" cy="108.939316" cx="109.382172" class="st0"/>
  </g>
  <g id="svg_3">
   <path id="svg_4" d="m53.356445,31.457031l0,31.952149l-8.000488,0l0,-24.001465l-5.550293,0.200195l0,-5.550293l9.550293,-2.600586l4.000488,0z" class="st1"/>
   <path id="svg_5" d="m81.856445,53.258789l5.100586,0l0,7.550293l-5.100586,0l0,8.850586l-7.750488,0l0,-8.850586l-15.800781,0l0,-4.950195l17.150879,-24.351563l6.40039,0l0,21.751465zm-7.750488,0l0.100098,-8.800781l-6.200196,8.950683l6.100098,-0.149902z" class="st1"/>
  </g>
  <g id="svg_21">
   <path id="svg_22" d="m139.520309,117.559776c-1.365524,-1.792251 -10.07077,-12.972519 -22.360527,-12.972519c-10.66819,0 -22.019149,9.644051 -22.019149,9.644051s-4.267281,-8.790596 -13.057869,-9.558701c-0.085343,0 -0.085343,0 -0.170693,0l0,0c-0.170685,0 -0.341385,0.170693 -0.341385,0.341385s0.170693,0.341385 0.170693,0.341385c1.109497,1.877602 4.011238,7.169029 4.011238,12.545792c0,5.37677 -2.901749,10.668197 -4.011238,12.545791l-0.085343,0.085358c0,0.085342 -0.08535,0.085342 -0.08535,0.170685c0,0.170685 0.170693,0.34137 0.341385,0.34137l0.08535,0l0.085343,0c8.790588,-0.853455 13.057869,-9.558693 13.057869,-9.558693s11.350959,9.64405 22.019149,9.64405c12.289757,0 20.995003,-11.180267 22.360527,-12.972519c0,-0.08535 0.085358,-0.08535 0.085358,-0.08535c0,-0.085342 0,-0.085342 0,-0.170684s0,-0.085343 0,-0.170693c0,-0.085358 -0.085358,-0.085358 -0.085358,-0.170708m-15.532882,1.706917c-1.962952,0 -3.584511,-1.621567 -3.584511,-3.584511c0,-1.962951 1.621567,-3.584511 3.584511,-3.584511c1.962951,0 3.584511,1.621567 3.584511,3.584511s-1.62156,3.584511 -3.584511,3.584511" class="st1"/>
   <path id="svg_23" d="m81.826729,83.677605l0,0c-0.256043,0 -0.426727,0.170685 -0.426727,0.341385l0,2.475021c0,0.085342 0,0.170685 0.085342,0.256035c5.888847,5.120735 11.521652,0.341385 12.801834,-0.938797l0.085342,-0.085342c0.085343,0 0.085343,-0.08535 0.170693,-0.08535c0.085342,0 0.170685,0 0.256035,0.08535l0,0c6.656952,6.400909 13.655288,1.194831 15.191505,0l0.170685,-0.170693c0,0 0.085342,0 0.170692,0c0.085343,0 0.085343,0 0.170685,0l0.170692,0.170693c1.450867,1.194831 8.449204,6.400909 15.106156,0l0,0c0.08535,-0.08535 0.170685,-0.08535 0.256042,-0.08535c0.08535,0 0.170685,0 0.170685,0.08535l0.08535,0.085342c1.280182,1.280182 6.913002,6.059532 12.801827,0.938797c0.085357,-0.085342 0.085357,-0.170685 0.085357,-0.256035l0,-2.475021c0,-0.170693 -0.170684,-0.341385 -0.341384,-0.341385l-0.085343,0c-0.085358,0 -0.085358,0.085342 -0.170685,0.085342c-1.792266,0.938797 -7.425064,3.072441 -12.545799,-1.792259c-0.08535,-0.085343 -0.08535,-0.085343 -0.170685,-0.170685c-0.08535,0 -0.08535,0 -0.170692,0l-0.08535,0c-0.08535,0 -0.170685,0.085342 -0.170685,0.170685c-1.536224,1.194839 -8.534553,5.888847 -14.764786,0.08535l-0.085342,-0.08535c-0.085343,-0.085343 -0.170685,-0.085343 -0.256043,-0.085343c-0.085342,0 -0.170685,0.085343 -0.256035,0.085343l-0.085342,0.08535c-6.230232,5.803497 -13.228561,1.109489 -14.764786,-0.08535c0,-0.085343 -0.085342,-0.085343 -0.170685,-0.170685l-0.085342,0c-0.08535,0 -0.08535,0 -0.170692,0c-0.085343,0.085342 -0.170685,0.170685 -0.170685,0.170685c-5.120735,4.8647 -10.75354,2.645714 -12.545792,1.792259c-0.1707,0 -0.1707,-0.085342 -0.256042,-0.085342" class="st1"/>
   <path id="svg_24" d="m94.37252,94.601837l0.085343,-0.08535c0.08535,0 0.08535,-0.085342 0.170692,-0.085342s0.170685,0 0.256035,0.085342l0,0c6.65696,6.400917 13.655289,1.19484 15.191513,0l0.170685,-0.170685c0,0 0.085342,0 0.170692,0c0.085343,0 0.085343,0 0.170685,0l0.170693,0.170685c1.450866,1.19484 8.449211,6.400917 15.106155,0l0,0c0.08535,-0.085342 0.170692,-0.085342 0.256042,-0.085342s0.170685,0 0.170685,0.085342c0.08535,0 0.08535,0.08535 0.08535,0.08535c1.280182,1.280182 6.912995,6.059532 12.801834,0.938797c0.085343,-0.085342 0.085343,-0.170692 0.085343,-0.256042l0,-2.475022c0,-0.170685 -0.170685,-0.341385 -0.34137,-0.341385l-0.085358,0c-0.085342,0 -0.085342,0.08535 -0.170684,0.08535c-1.792252,0.938797 -7.425064,3.072434 -12.545792,-1.792259c-0.08535,-0.085342 -0.08535,-0.085342 -0.170685,-0.170685c-0.08535,0 -0.08535,0 -0.170692,0l-0.08535,0c-0.08535,0 -0.170685,0.085343 -0.170685,0.170685c-1.536224,1.19484 -8.534553,5.888848 -14.764786,0.085343l-0.085342,-0.085343c-0.085343,-0.085342 -0.170685,-0.085342 -0.256035,-0.085342s-0.170692,0 -0.256043,0.085342l-0.085342,0.085343c-6.230232,5.803505 -13.228561,1.109497 -14.764786,-0.085343c0,-0.085342 -0.085342,-0.085342 -0.170685,-0.170685l-0.085342,0c-0.08535,0 -0.08535,0 -0.170692,0c-0.085343,0.085343 -0.085343,0.085343 -0.170685,0.170685c-5.120735,4.864693 -10.75354,2.645714 -12.545792,1.792259c-0.08535,0 -0.08535,-0.08535 -0.170692,-0.08535l-0.085343,0c-0.170684,0 -0.341384,0.170693 -0.341384,0.341385l0,2.475022c0,0.08535 0,0.170692 0.085342,0.256042c5.80349,5.206078 11.350952,0.341385 12.716476,-0.938797" class="st1"/>
  </g>
  <text xml:space="preserve" text-anchor="start" font-family="Helvetica, Arial, sans-serif" font-size="18" id="svg_190" y="44.301156" x="95.96213" fill-opacity="null" stroke-opacity="null" stroke-width="0" stroke="null" fill="#ffffff">Líf í</text>
  <text xml:space="preserve" text-anchor="start" font-family="Helvetica, Arial, sans-serif" font-size="18" id="svg_191" y="62.022533" x="97.481105" fill-opacity="null" stroke-opacity="null" stroke-width="0" stroke="null" fill="#ffffff">vatni</text>
  <text xml:space="preserve" text-anchor="start" font-family="Helvetica, Arial, sans-serif" font-size="12" id="svg_192" y="151.895227" x="23.810813" fill-opacity="null" stroke-opacity="null" stroke-width="0" stroke="null" fill="#ffffff">Vernda og nýta hafið og auðlindir</text>
  <text xml:space="preserve" text-anchor="start" font-family="Helvetica, Arial, sans-serif" font-size="12" id="svg_193" y="166.578652" x="42.038514" fill-opacity="null" stroke-opacity="null" stroke-width="0" stroke="null" fill="#ffffff">þess á sjálfbæran hátt í því</text>
  <text xml:space="preserve" text-anchor="start" font-family="Helvetica, Arial, sans-serif" font-size="12" id="svg_194" y="181.008916" x="60.772539" fill-opacity="null" stroke-opacity="null" stroke-width="0" stroke="null" fill="#ffffff">skyni að stuðla að</text>
  <text xml:space="preserve" text-anchor="start" font-family="Helvetica, Arial, sans-serif" font-size="12" id="svg_195" y="195.692342" x="66.595278" fill-opacity="null" stroke-opacity="null" stroke-width="0" stroke="null" fill="#ffffff">sjálfbærri þróun</text>
 </g>
</svg>