<svg width="218" height="218" xmlns="http://www.w3.org/2000/svg">
 <style type="text/css">.st0{fill:#F99D27;}
	.st1{fill:#FFFFFF;}
	.st2{fill:#F7F7F9;}</style>

 <g>
  <title>background</title>
  <rect fill="none" id="canvas_background" height="402" width="582" y="-1" x="-1"/>
 </g>
 <g>
  <title>Layer 1</title>
  <g id="svg_1">
   <circle id="svg_2" r="108" cy="108.939316" cx="109.667886" class="st0"/>
  </g>
  <g id="svg_3">
   <path id="svg_4" d="m55.356445,28.457031l0,31.952149l-8.000488,0l0,-24.001465l-5.550293,0.200195l0,-5.550293l9.550293,-2.600586l4.000488,0z" class="st1"/>
   <path id="svg_5" d="m73.306152,28.457031l0,31.952149l-8.000488,0l0,-24.001465l-5.550781,0.200195l0,-5.550293l9.550781,-2.600586l4.000488,0z" class="st1"/>
  </g>
  <g id="svg_38">
   <g id="svg_39">
    <path id="svg_40" d="m75.04673,126.263069l0.15715,0l15.095749,0c0.205818,0 0.374146,-0.168327 0.374146,-0.374946c0,-0.095726 -0.038292,-0.182679 -0.098923,-0.248894l-0.020744,-0.022331l-7.588951,-9.819451l-0.073395,-0.081367c-0.069405,-0.075791 -0.166733,-0.121262 -0.276818,-0.121262c-0.094131,0 -0.178695,0.039093 -0.245704,0.095734l-0.046273,0.05265l-0.070999,0.080574l-7.403869,9.715744l-0.114083,0.13881c-0.040679,0.059028 -0.064613,0.131629 -0.064613,0.209808c0.002388,0.206604 0.170708,0.374931 0.377327,0.374931z" class="st1"/>
    <path id="svg_41" d="m90.25415,127.64875l-15.284004,0c-0.206619,0 -0.374145,0.167527 -0.374145,0.374138l0,11.960602c0,0.206619 0.167526,0.374939 0.374145,0.374939l4.919693,0l0,-7.524338c0,-0.208999 0.165932,-0.374145 0.374146,-0.374145l4.566299,0c0.206612,0 0.374138,0.165146 0.374138,0.374145l0,7.524338l5.049736,0c0.205818,0 0.374145,-0.16832 0.374145,-0.374939l0,-11.961395c-0.000007,-0.205818 -0.168334,-0.373345 -0.374153,-0.373345z" class="st1"/>
   </g>
   <path id="svg_42" d="m143.07608,124.5168l-15.127647,0c-0.204224,0 -0.369354,0.158752 -0.369354,0.359779l0,15.274437c0,0.198624 0.16513,0.358979 0.369354,0.358979l15.127647,0c0.205017,0 0.370163,-0.160355 0.370163,-0.358979l0,-15.274444c-0.000015,-0.20102 -0.165146,-0.359772 -0.370163,-0.359772m-8.276611,9.972626c0,0.199432 -0.164337,0.361374 -0.368561,0.361374l-4.519226,0c-0.206619,0 -0.372543,-0.161942 -0.372543,-0.361374l0,-2.74585c0,-0.201019 0.165924,-0.361374 0.372543,-0.361374l4.519226,0c0.204224,0 0.368561,0.160355 0.368561,0.361374l0,2.74585zm0,-5.075257c0,0.197846 -0.164337,0.359787 -0.368561,0.359787l-4.519226,0c-0.206619,0 -0.372543,-0.161941 -0.372543,-0.359787l0,-2.749031c0,-0.197044 0.165924,-0.358192 0.372543,-0.358192l4.519226,0c0.204224,0 0.368561,0.161148 0.368561,0.358192l0,2.749031zm6.906876,5.075257c0,0.199432 -0.164338,0.361374 -0.370163,0.361374l-4.518433,0c-0.205017,0 -0.370941,-0.161942 -0.370941,-0.361374l0,-2.74585c0,-0.201019 0.165924,-0.361374 0.370941,-0.361374l4.518433,0c0.205825,0 0.370163,0.160355 0.370163,0.361374l0,2.74585zm0,-5.075257c0,0.197846 -0.164338,0.359787 -0.370163,0.359787l-4.518433,0c-0.205017,0 -0.370941,-0.161941 -0.370941,-0.359787l0,-2.749031c0,-0.197044 0.165924,-0.358192 0.370941,-0.358192l4.518433,0c0.205825,0 0.370163,0.161148 0.370163,0.358192l0,2.749031z" class="st1"/>
   <path id="svg_43" d="m107.912247,89.060997l-14.803765,0c-0.197837,0 -0.362175,0.161148 -0.362175,0.362976l0,50.592232c0,0.199432 0.164338,0.361374 0.362175,0.361374l14.803765,0c0.197845,0 0.363777,-0.161942 0.363777,-0.361374l0,-50.592232c0,-0.201828 -0.165932,-0.362976 -0.363777,-0.362976m-8.806313,45.552864c0,0.107697 -0.086952,0.194657 -0.193848,0.194657l-3.390419,0c-0.106903,0 -0.194648,-0.086945 -0.194648,-0.194657l0,-3.77652c0,-0.106903 0.087745,-0.193054 0.194648,-0.193054l3.390419,0c0.106903,0 0.193848,0.086151 0.193848,0.193054l0,3.77652zm0,-8.675476c0,0.109291 -0.086952,0.194656 -0.193848,0.194656l-3.390419,0c-0.106903,0 -0.194648,-0.085365 -0.194648,-0.194656l0,-3.774933c0,-0.110092 0.087745,-0.194649 0.194648,-0.194649l3.390419,0c0.106903,0 0.193848,0.084557 0.193848,0.194649l0,3.774933zm0,-8.673088c0,0.106895 -0.086952,0.194649 -0.193848,0.194649l-3.390419,0c-0.106903,0 -0.194648,-0.087754 -0.194648,-0.194649l0,-3.777329c0,-0.107696 0.087745,-0.194648 0.194648,-0.194648l3.390419,0c0.106903,0 0.193848,0.086952 0.193848,0.194648l0,3.777329zm0,-8.675484c0,0.106896 -0.086952,0.194649 -0.193848,0.194649l-3.390419,0c-0.106903,0 -0.194648,-0.087753 -0.194648,-0.194649l0,-3.777328c0,-0.107697 0.087745,-0.192253 0.194648,-0.192253l3.390419,0c0.106903,0 0.193848,0.084564 0.193848,0.192253l0,3.777328zm0,-8.672294c0,0.106102 -0.086952,0.193847 -0.193848,0.193847l-3.390419,0c-0.106903,0 -0.194648,-0.087753 -0.194648,-0.193847l0,-3.778923c0,-0.10849 0.087745,-0.193848 0.194648,-0.193848l3.390419,0c0.106903,0 0.193848,0.085358 0.193848,0.193848l0,3.778923zm6.647614,34.696342c0,0.107697 -0.086953,0.194657 -0.19545,0.194657l-3.388825,0c-0.10849,0 -0.193847,-0.086945 -0.193847,-0.194657l0,-3.77652c0,-0.106903 0.085357,-0.193054 0.193847,-0.193054l3.388825,0c0.108497,0 0.19545,0.086151 0.19545,0.193054l0,3.77652zm0,-8.675476c0,0.109291 -0.086953,0.194656 -0.19545,0.194656l-3.388825,0c-0.10849,0 -0.193847,-0.085365 -0.193847,-0.194656l0,-3.774933c0,-0.110092 0.085357,-0.194649 0.193847,-0.194649l3.388825,0c0.108497,0 0.19545,0.084557 0.19545,0.194649l0,3.774933zm0,-8.673088c0,0.106895 -0.086953,0.194649 -0.19545,0.194649l-3.388825,0c-0.10849,0 -0.193847,-0.087754 -0.193847,-0.194649l0,-3.777329c0,-0.107696 0.085357,-0.194648 0.193847,-0.194648l3.388825,0c0.108497,0 0.19545,0.086952 0.19545,0.194648l0,3.777329zm0,-8.675484c0,0.106896 -0.086953,0.194649 -0.19545,0.194649l-3.388825,0c-0.10849,0 -0.193847,-0.087753 -0.193847,-0.194649l0,-3.777328c0,-0.107697 0.085357,-0.192253 0.193847,-0.192253l3.388825,0c0.108497,0 0.19545,0.084564 0.19545,0.192253l0,3.777328zm0,-8.672294c0,0.106102 -0.086953,0.193847 -0.19545,0.193847l-3.388825,0c-0.10849,0 -0.193847,-0.087753 -0.193847,-0.193847l0,-3.778923c0,-0.10849 0.085357,-0.193848 0.193847,-0.193848l3.388825,0c0.108497,0 0.19545,0.085358 0.19545,0.193848l0,3.778923z" class="st1"/>
   <path id="svg_44" d="m143.429474,122.980347c0,0.169121 -0.134827,0.304741 -0.303146,0.304741l-15.227364,0c-0.165924,0 -0.30394,-0.135613 -0.30394,-0.304741l0,-3.044998c0,-0.166726 0.138016,-0.30394 0.30394,-0.30394l15.227364,0c0.168319,0 0.303146,0.137214 0.303146,0.30394l0,3.044998z" class="st1"/>
   <path id="svg_45" d="m125.792915,98.6148c-0.049461,-0.161942 -0.193061,-0.282395 -0.37175,-0.282395c-0.07978,0 -0.149177,0.029518 -0.212211,0.070198c-0.008774,0.006386 -0.017548,0.01117 -0.027115,0.018349l-0.125244,0.157158l-14.549286,18.455841l-0.067009,0.090149c-0.074989,0.073395 -0.122856,0.174705 -0.126045,0.287987l0,0.023933l0,22.65596c0,0.197846 0.162742,0.359787 0.362976,0.359787l14.788604,0c0.201035,0 0.362175,-0.161941 0.362175,-0.359787l0,-41.324814c0.000008,-0.055046 -0.012756,-0.106094 -0.035095,-0.152366zm-6.125084,10.023674l0.1045,-0.130837c0.99559,-1.277985 2.673241,-3.341759 3.490944,-4.344521l0.107689,-0.12844c0.078186,-0.093331 0.193054,-0.153962 0.325485,-0.153962c0.201836,0 0.363762,0.146782 0.403656,0.339043l0,0.163544l0,0.133217l0,4.372451c0,0.224961 -0.179497,0.405251 -0.40287,0.415627c-0.006378,0 -0.011963,0.004784 -0.017548,0.004784c-0.005592,0 -0.01197,-0.004784 -0.017555,-0.004784l-3.45504,0l-0.181083,0c-0.00718,0 -0.012765,0.004784 -0.018349,0.004784s-0.011971,-0.004784 -0.01915,-0.004784c-0.220978,-0.010376 -0.400467,-0.189865 -0.400467,-0.415627c-0.001587,-0.094139 0.027931,-0.18029 0.079788,-0.250495zm-2.301498,25.847763c0,0.201034 -0.161148,0.362167 -0.362183,0.362167l-4.412323,0c-0.200241,0 -0.361381,-0.161133 -0.361381,-0.362167l0,-2.761002c0,-0.200241 0.16114,-0.361374 0.361381,-0.361374l4.412323,0c0.201035,0 0.362183,0.161133 0.362183,0.361374l0,2.761002zm0,-5.10318c0,0.201034 -0.161148,0.362167 -0.362183,0.362167l-4.412323,0c-0.200241,0 -0.361381,-0.161133 -0.361381,-0.362167l0,-2.761795c0,-0.201035 0.16114,-0.361382 0.361381,-0.361382l4.412323,0c0.201035,0 0.362183,0.16034 0.362183,0.361382l0,2.761795zm0,-5.101593c0,0.197845 -0.161148,0.359779 -0.362183,0.359779l-4.412323,0c-0.200241,0 -0.361381,-0.161942 -0.361381,-0.359779l0,-2.762589c0,-0.201034 0.16114,-0.362976 0.361381,-0.362976l4.412323,0c0.201035,0 0.362183,0.161941 0.362183,0.362976l0,2.762589zm0.011963,-11.183594l0,0.132431l0,5.951179c0,0.201035 -0.163536,0.362175 -0.361382,0.362175l-4.411529,0c-0.201828,0 -0.364571,-0.16114 -0.364571,-0.362175l0,-0.734718l0,-0.030319c0.001595,-0.04866 0.01117,-0.09333 0.027123,-0.135613c0.007179,-0.014358 0.009575,-0.01995 0.022331,-0.042282c0.009575,-0.016761 0.021545,-0.032707 0.032715,-0.047866c0.011162,-0.017548 0.027923,-0.039887 0.041481,-0.058236c0.564003,-0.808113 3.108818,-3.942459 4.176994,-5.253952l0.107697,-0.129234c0.077385,-0.09333 0.194656,-0.153961 0.325477,-0.153961c0.202629,0 0.364571,0.148376 0.403656,0.339043c0,-0.000001 0,0.163528 0.000008,0.163528zm6.731377,21.388367c0,0.201034 -0.163544,0.362167 -0.361382,0.362167l-4.410736,0c-0.201828,0 -0.36377,-0.161133 -0.36377,-0.362167l0,-2.761002c0,-0.200241 0.161942,-0.361374 0.36377,-0.361374l4.410736,0c0.197838,0 0.361382,0.161133 0.361382,0.361374l0,2.761002zm0,-5.10318c0,0.201034 -0.163544,0.362167 -0.361382,0.362167l-4.410736,0c-0.201828,0 -0.36377,-0.161133 -0.36377,-0.362167l0,-2.761795c0,-0.201035 0.161942,-0.361382 0.36377,-0.361382l4.410736,0c0.197838,0 0.361382,0.16034 0.361382,0.361382l0,2.761795zm0,-5.101593c0,0.197845 -0.163544,0.359779 -0.361382,0.359779l-4.410736,0c-0.201828,0 -0.36377,-0.161942 -0.36377,-0.359779l0,-2.762589c0,-0.201034 0.161942,-0.362976 0.36377,-0.362976l4.410736,0c0.197838,0 0.361382,0.161941 0.361382,0.362976l0,2.762589zm0,-5.103974c0,0.19944 -0.163544,0.359787 -0.361382,0.359787l-4.410736,0c-0.201828,0 -0.36377,-0.160347 -0.36377,-0.359787l0,-2.761787c0,-0.201035 0.161942,-0.361382 0.36377,-0.361382l4.410736,0c0.197838,0 0.361382,0.16034 0.361382,0.361382l0,2.761787zm0,-5.104774c0,0.201034 -0.163544,0.362182 -0.361382,0.362182l-4.410736,0c-0.201828,0 -0.36377,-0.161148 -0.36377,-0.362182l0,-2.760994c0,-0.202629 0.161942,-0.362976 0.36377,-0.362976l4.410736,0c0.197838,0 0.361382,0.160347 0.361382,0.362976l0,2.760994z" class="st1"/>
  </g>
  <text xml:space="preserve" text-anchor="start" font-family="Helvetica, Arial, sans-serif" font-size="18" id="svg_114" y="41.982143" x="83.714286" fill-opacity="null" stroke-opacity="null" stroke-width="0" stroke="null" fill="#ffffff">Sjálbærar</text>
  <text xml:space="preserve" text-anchor="start" font-family="Helvetica, Arial, sans-serif" font-size="18" id="svg_115" y="57.982143" x="83.428571" fill-opacity="null" stroke-opacity="null" stroke-width="0" stroke="null" fill="#ffffff">borgir og</text>
  <text xml:space="preserve" text-anchor="start" font-family="Helvetica, Arial, sans-serif" font-size="18" id="svg_116" y="73.982143" x="83.428571" fill-opacity="null" stroke-opacity="null" stroke-width="0" stroke="null" fill="#ffffff">samfélög</text>
  <text xml:space="preserve" text-anchor="start" font-family="Helvetica, Arial, sans-serif" font-size="12" id="svg_117" y="155.410714" x="23.714285" fill-opacity="null" stroke-opacity="null" stroke-width="0" stroke="null" fill="#ffffff">Gera borgir og íbúðasvæði öllum</text>
  <text xml:space="preserve" text-anchor="start" font-family="Helvetica, Arial, sans-serif" font-size="12" id="svg_118" y="170.267857" x="41.714286" fill-opacity="null" stroke-opacity="null" stroke-width="0" stroke="null" fill="#ffffff">mönnum auðnotuð, örugg,</text>
  <text xml:space="preserve" text-anchor="start" font-family="Helvetica, Arial, sans-serif" font-size="12" id="svg_119" y="185.982143" x="45.142857" fill-opacity="null" stroke-opacity="null" stroke-width="0" stroke="null" fill="#ffffff">viðnámsþolin og sjálfbær</text>
 </g>
</svg>