<svg width="218" height="218" xmlns="http://www.w3.org/2000/svg">
 <style type="text/css">.st0{fill:#BE8B2C;}
	.st1{fill:#FFFFFF;}
	.st2{fill:#FFFFFF;stroke:#FFFFFF;stroke-width:0.73;stroke-miterlimit:10;}
	.st3{fill:#F7F5F5;}</style>

 <g>
  <title>background</title>
  <rect fill="none" id="canvas_background" height="402" width="582" y="-1" x="-1"/>
 </g>
 <g>
  <title>Layer 1</title>
  <g id="svg_1">
   <circle id="svg_2" r="108" cy="108.9" cx="109.4" class="st0"/>
  </g>
  <g id="svg_3">
   <path id="svg_4" d="m43.4,40.5l0,32l-8,0l0,-24l-5.6,0.2l0,-5.6l9.6,-2.6c0,0 4,0 4,0z" class="st1"/>
   <path id="svg_5" d="m59.2,47.7c-3.4,0 -6,0.8 -8.4,1.9l0,-7.5c2,-0.9 5.4,-1.6 9.3,-1.6c10.1,0 11.5,5.2 11.5,9.8c0,6.3 -5.2,10.4 -11.8,14.8l12.2,-0.2l0,7.5l-22.7,0l0,-5.3c10.7,-8.3 14.1,-12.3 14.1,-15.9c0,-2.2 -0.9,-3.5 -4.2,-3.5z" class="st1"/>
  </g>
  <path id="svg_6" d="m150.6,99.1c-7.1,-5.6 -16.5,-5.7 -20,-4.9l-0.4,0.1c-4,0.9 -10.3,2.5 -17.7,11.7c0,0.1 -0.1,0.1 -0.1,0.2l-0.1,0.1c-0.1,0.1 -0.1,0.2 -0.1,0.4c0,0.1 0,0.2 0.1,0.3l0.2,0.3c0.9,1.6 2.1,3.6 3.1,5.4c0,0 0,0 0,0.1c0.1,0.2 0.3,0.3 0.6,0.3c0.2,0 0.3,-0.1 0.4,-0.2c0,-0.1 0.1,-0.1 0.1,-0.2c6.6,-9.1 11.7,-10.3 15.2,-11.2l0.4,-0.1c1.8,-0.4 8.7,-0.4 13.7,3.5c3.9,3.1 5.9,8 5.9,14.5c0,11 -5.4,15.3 -9.8,17c-7,2.6 -13.6,-0.9 -13.7,-0.9l-0.3,-0.1c-3.8,-1.7 -9.5,-5.1 -14.9,-15.9c-10.8,-21.8 -19.9,-23.8 -25.9,-25.2l-0.3,-0.1c-2.7,-0.6 -12.2,-1.1 -19.7,4.9c-3.9,3.1 -8.5,9.1 -8.5,20.3c0,6.8 1.4,11.3 5,16c0.8,1.1 8.8,11.4 24.3,8.4c2.5,-0.5 5.8,-1.7 9.5,-4.4l3.4,3.1c0.2,0.2 0.6,0.2 0.8,0c0.1,-0.1 0.1,-0.2 0.1,-0.4l0,0l2.5,-15.1l0,-0.2c0,-0.1 -0.1,-0.3 -0.2,-0.4s-0.2,-0.1 -0.4,-0.1l-0.1,0l-0.2,0l-14.5,4.1l-0.3,0c-0.1,0 -0.2,0.1 -0.3,0.2c-0.2,0.2 -0.2,0.6 0,0.8l0.2,0.2l3.3,2.9c-2.1,1.4 -3.9,2 -5.3,2.3c-11.2,2.1 -16.8,-5.2 -17,-5.5l-0.1,-0.1c-2.6,-3.4 -3.5,-6.3 -3.5,-11.5c0,-6.6 1.9,-11.5 5.8,-14.5c4.9,-3.9 11.5,-3.9 13.4,-3.5l0.3,0.1c4.9,1.1 11.6,2.6 20.9,21.3c4.8,9.7 10.8,16 18.4,19.3c1,0.5 5.6,2.7 11.6,2.7c2.5,0 5.2,-0.4 8.1,-1.4c4.4,-1.6 14.6,-7.3 14.6,-23.9c0.2,-11.5 -4.6,-17.6 -8.5,-20.7" class="st2"/>
  <g id="svg_57">
   <path id="svg_58" d="m85.8,31.7l-3.5,0l0,2l3.8,0l0,1.8l-5.7,0l0,-9l5.7,0l0,1.8l-3.8,0l0,1.7l3.5,0l0,1.7z" class="st3"/>
   <path id="svg_59" d="m91.9,35.5l-2.9,-5.4l0,5.4l-1.9,0l0,-9l1.9,0l2.9,5.4l0,-5.4l1.9,0l0,9l-1.9,0z" class="st3"/>
   <path id="svg_60" d="m101.1,32.6c0,2.2 -1.4,3 -3.5,3c-1,0 -2.2,-0.2 -2.8,-0.6l0,-2c0.4,0.2 1.4,0.7 2.6,0.7c1.4,0 1.8,-0.4 1.8,-1c0,-0.7 -0.3,-0.9 -1.2,-1c-2.3,-0.3 -3.2,-1 -3.2,-2.7c0,-1.6 1,-2.7 3.4,-2.7c1.2,0 2.1,0.2 2.5,0.4l0,1.9c-0.5,-0.2 -1.5,-0.5 -2.4,-0.5c-1,0 -1.5,0.3 -1.5,0.9s0.3,0.9 1.3,1c1.9,0.3 3,0.7 3,2.6z" class="st3"/>
   <path id="svg_61" d="m102,32.6l0,-6.2l1.9,0l0,6.1c0,1.2 0.8,1.4 1.4,1.4s1.4,-0.2 1.4,-1.4l0,-6.1l1.9,0l0,6.2c0,2.5 -2,3 -3.3,3s-3.3,-0.5 -3.3,-3z" class="st3"/>
   <path id="svg_62" d="m111.7,35.5l-1.9,0l0,-9l3.1,0c2.4,0 3.2,1.1 3.2,2.8c0,1.1 -0.3,2 -1.3,2.4l1.6,3.8l-2.2,0l-1.2,-3.4l-1.2,0l-0.1,3.4l0,0zm0,-5.2l1.3,0c0.9,0 1,-0.6 1,-1.1s-0.1,-1.1 -1,-1.1l-1.3,0l0,2.2z" class="st3"/>
   <path id="svg_63" d="m122.4,31.7l-3.5,0l0,2l3.8,0l0,1.8l-5.7,0l0,-9l5.7,0l0,1.8l-3.8,0l0,1.7l3.5,0c0,0 0,1.7 0,1.7z" class="st3"/>
   <path id="svg_64" d="m86.7,47c0,2.2 -1.4,3 -3.5,3c-1,0 -2.2,-0.2 -2.8,-0.6l0,-2c0.4,0.2 1.4,0.7 2.6,0.7c1.4,0 1.8,-0.4 1.8,-1c0,-0.7 -0.3,-0.9 -1.2,-1c-2.3,-0.3 -3.2,-1 -3.2,-2.7c0,-1.6 1,-2.7 3.4,-2.7c1.2,0 2.1,0.2 2.5,0.4l0,1.9c-0.5,-0.2 -1.5,-0.5 -2.4,-0.5c-1,0 -1.5,0.3 -1.5,0.9c0,0.6 0.3,0.9 1.3,1c1.9,0.3 3,0.7 3,2.6z" class="st3"/>
   <path id="svg_65" d="m87.5,47l0,-6.2l1.9,0l0,6.1c0,1.2 0.8,1.4 1.4,1.4s1.4,-0.2 1.4,-1.4l0,-6.1l1.9,0l0,6.2c0,2.5 -2,3 -3.3,3s-3.3,-0.5 -3.3,-3z" class="st3"/>
   <path id="svg_66" d="m101.5,47c0,2.2 -1.4,3 -3.5,3c-1,0 -2.2,-0.2 -2.8,-0.6l0,-2c0.4,0.2 1.4,0.7 2.6,0.7c1.4,0 1.8,-0.4 1.8,-1c0,-0.7 -0.3,-0.9 -1.2,-1c-2.3,-0.3 -3.2,-1 -3.2,-2.7c0,-1.6 1,-2.7 3.4,-2.7c1.2,0 2.1,0.2 2.5,0.4l0,1.9c-0.5,-0.2 -1.5,-0.5 -2.4,-0.5c-1,0 -1.5,0.3 -1.5,0.9c0,0.6 0.3,0.9 1.3,1c1.9,0.3 3,0.7 3,2.6z" class="st3"/>
   <path id="svg_67" d="m105.8,42.6l0,7.2l-1.9,0l0,-7.2l-2.2,0l0,-1.8l6.3,0l0,1.8l-2.2,0z" class="st3"/>
   <path id="svg_68" d="m107.4,49.9l2.5,-9l2.2,0l2.5,9l-2,0l-0.4,-1.8l-2.3,0l-0.4,1.8l-2.1,0zm2.8,-3.4l1.5,0l-0.8,-3.4l-0.7,3.4z" class="st3"/>
   <path id="svg_69" d="m115.5,49.9l0,-9l1.9,0l0,9l-1.9,0z" class="st3"/>
   <path id="svg_70" d="m123.4,49.9l-2.9,-5.4l0,5.4l-1.9,0l0,-9l1.9,0l2.9,5.4l0,-5.4l1.9,0l0,9l-1.9,0z" class="st3"/>
   <path id="svg_71" d="m126.1,49.9l2.5,-9l2.2,0l2.5,9l-2,0l-0.4,-1.8l-2.3,0l-0.4,1.8l-2.1,0zm2.9,-3.4l1.5,0l-0.8,-3.4l-0.7,3.4z" class="st3"/>
   <path id="svg_72" d="m134.1,40.9l3.2,0c2.3,0 2.9,1.1 2.9,2.5c0,0.8 -0.4,1.4 -1,1.7c0.7,0.2 1.2,0.9 1.2,2c0,1.6 -0.7,2.7 -3.1,2.7l-3.3,0l0,-8.9l0.1,0zm3.2,1.6l-1.3,0l0,1.9l1.2,0c0.8,0 0.9,-0.6 0.9,-1c0.1,-0.4 0,-0.9 -0.8,-0.9zm-1.3,5.7l1.3,0c0.8,0 1.1,-0.5 1.1,-1.1c0,-0.7 -0.3,-1.1 -1.1,-1.1l-1.3,0l0,2.2z" class="st3"/>
   <path id="svg_73" d="m143.2,48.1l3.6,0l0,1.8l-5.6,0l0,-9l1.9,0l0,7.2l0.1,0z" class="st3"/>
   <path id="svg_74" d="m153,46.1l-3.5,0l0,2l3.8,0l0,1.8l-5.7,0l0,-9l5.7,0l0,1.8l-3.8,0l0,1.7l3.5,0l0,1.7z" class="st3"/>
   <path id="svg_75" d="m84.3,55.1c1,0 1.5,0.2 1.9,0.3l0,1.8c-0.5,-0.2 -1,-0.3 -1.7,-0.3c-1.5,0 -2.1,0.6 -2.1,2.9s0.7,2.9 2.1,2.9c0.7,0 1.1,-0.1 1.7,-0.3l0,1.8c-0.4,0.1 -0.8,0.3 -1.9,0.3c-2.6,0 -3.9,-1.3 -3.9,-4.7c0,-3.4 1.3,-4.7 3.9,-4.7z" class="st3"/>
   <path id="svg_76" d="m87.1,59.8c0,-2.7 0.8,-4.7 3.6,-4.7c2.8,0 3.6,1.9 3.6,4.7s-0.8,4.7 -3.6,4.7c-2.8,-0.1 -3.6,-2 -3.6,-4.7zm2,0c0,2.1 0.5,2.9 1.6,2.9c1.2,0 1.6,-0.8 1.6,-2.9c0,-2.1 -0.5,-2.9 -1.6,-2.9c-1.2,-0.1 -1.6,0.8 -1.6,2.9z" class="st3"/>
   <path id="svg_77" d="m100.1,64.3l-2.9,-5.4l0,5.4l-1.9,0l0,-9l1.9,0l2.9,5.4l0,-5.4l1.9,0l0,9l-1.9,0z" class="st3"/>
   <path id="svg_78" d="m109.3,61.4c0,2.2 -1.4,3 -3.5,3c-1,0 -2.2,-0.2 -2.8,-0.6l0,-2c0.4,0.2 1.4,0.7 2.6,0.7c1.4,0 1.8,-0.4 1.8,-1c0,-0.7 -0.3,-0.9 -1.2,-1c-2.3,-0.3 -3.2,-1 -3.2,-2.7c0,-1.6 1,-2.7 3.4,-2.7c1.2,0 2.1,0.2 2.5,0.4l0,1.9c-0.5,-0.2 -1.5,-0.5 -2.4,-0.5c-1,0 -1.5,0.3 -1.5,0.9c0,0.6 0.3,0.9 1.3,1c1.9,0.3 3,0.7 3,2.6z" class="st3"/>
   <path id="svg_79" d="m110.2,61.4l0,-6.2l1.9,0l0,6.1c0,1.2 0.8,1.4 1.4,1.4s1.4,-0.2 1.4,-1.4l0,-6.1l1.9,0l0,6.2c0,2.5 -2,3 -3.3,3s-3.3,-0.5 -3.3,-3z" class="st3"/>
   <path id="svg_80" d="m123.1,63.2l-1.9,0l-1.4,-4.4l0.1,5.5l-1.9,0l0,-9l2.4,0l1.8,5.6l1.8,-5.6l2.4,0l0,9l-1.9,0l0.1,-5.5l-1.5,4.4z" class="st3"/>
   <path id="svg_81" d="m129.3,64.3l-1.9,0l0,-9l3,0c2.4,0 3.2,1.4 3.2,2.9c0,1.6 -0.8,2.9 -3.2,2.9l-1.1,0l0,3.2l0,0zm0,-4.9l1.1,0c1,0 1.1,-0.7 1.1,-1.2s-0.2,-1.2 -1.1,-1.2l-1.1,0l0,2.4z" class="st3"/>
   <path id="svg_82" d="m138.1,57l0,7.2l-1.9,0l0,-7.2l-2.2,0l0,-1.8l6.3,0l0,1.8l-2.2,0z" class="st3"/>
   <path id="svg_83" d="m141.1,64.3l0,-9l1.9,0l0,9l-1.9,0z" class="st3"/>
   <path id="svg_84" d="m144.2,59.8c0,-2.7 0.8,-4.7 3.6,-4.7s3.6,1.9 3.6,4.7s-0.8,4.7 -3.6,4.7c-2.8,-0.1 -3.6,-2 -3.6,-4.7zm2,0c0,2.1 0.5,2.9 1.6,2.9c1.2,0 1.6,-0.8 1.6,-2.9c0,-2.1 -0.5,-2.9 -1.6,-2.9c-1.2,-0.1 -1.6,0.8 -1.6,2.9z" class="st3"/>
   <path id="svg_85" d="m157.2,64.3l-2.9,-5.4l0,5.4l-1.9,0l0,-9l1.9,0l2.9,5.4l0,-5.4l1.9,0l0,9l-1.9,0z" class="st3"/>
   <path id="svg_86" d="m162.3,64.3l2.5,-9l2.2,0l2.5,9l-2,0l-0.4,-1.8l-2.3,0l-0.4,1.8l-2.1,0zm2.8,-3.4l1.5,0l-0.8,-3.4l-0.7,3.4z" class="st3"/>
   <path id="svg_87" d="m175,64.3l-2.9,-5.4l0,5.4l-1.9,0l0,-9l1.9,0l2.9,5.4l0,-5.4l1.9,0l0,9l-1.9,0z" class="st3"/>
   <path id="svg_88" d="m178,64.3l0,-9l2.9,0c3,0 3.8,1.9 3.8,4.5s-0.8,4.5 -3.8,4.5l-2.9,0zm2,-1.8l1,0c1.4,0 1.8,-1 1.8,-2.7s-0.4,-2.7 -1.8,-2.7l-1,0l0,5.4z" class="st3"/>
   <path id="svg_89" d="m82.4,78.7l-1.9,0l0,-9l3,0c2.4,0 3.2,1.4 3.2,2.9c0,1.6 -0.8,2.9 -3.2,2.9l-1.1,0l0,3.2zm0,-4.9l1.1,0c1,0 1.1,-0.7 1.1,-1.2s-0.2,-1.2 -1.1,-1.2l-1.1,0l0,2.4z" class="st3"/>
   <path id="svg_90" d="m89.3,78.7l-1.9,0l0,-9l3.1,0c2.4,0 3.2,1.1 3.2,2.8c0,1.1 -0.3,2 -1.3,2.4l1.6,3.8l-2.2,0l-1.2,-3.4l-1.2,0l-0.1,3.4l0,0zm0,-5.2l1.3,0c0.9,0 1,-0.6 1,-1.1s-0.1,-1.1 -1,-1.1l-1.3,0l0,2.2z" class="st3"/>
   <path id="svg_91" d="m94.6,74.2c0,-2.7 0.8,-4.7 3.6,-4.7c2.8,0 3.6,1.9 3.6,4.7s-0.8,4.7 -3.6,4.7c-2.8,-0.1 -3.6,-2 -3.6,-4.7zm2,0c0,2.1 0.5,2.9 1.6,2.9c1.2,0 1.6,-0.8 1.6,-2.9s-0.5,-2.9 -1.6,-2.9c-1.2,-0.1 -1.6,0.8 -1.6,2.9z" class="st3"/>
   <path id="svg_92" d="m102.8,78.7l0,-9l2.9,0c3,0 3.8,1.9 3.8,4.5s-0.8,4.5 -3.8,4.5l-2.9,0zm2,-1.8l1,0c1.4,0 1.8,-1 1.8,-2.7s-0.4,-2.7 -1.8,-2.7l-1,0l0,5.4z" class="st3"/>
   <path id="svg_93" d="m110.5,75.8l0,-6.2l1.9,0l0,6.1c0,1.2 0.8,1.4 1.4,1.4s1.4,-0.2 1.4,-1.4l0,-6.1l1.9,0l0,6.2c0,2.5 -2,3 -3.3,3s-3.3,-0.5 -3.3,-3z" class="st3"/>
   <path id="svg_94" d="m122.1,69.5c1,0 1.5,0.2 1.9,0.3l0,1.8c-0.5,-0.2 -1,-0.3 -1.7,-0.3c-1.5,0 -2.1,0.6 -2.1,2.9s0.7,2.9 2.1,2.9c0.7,0 1.1,-0.1 1.7,-0.3l0,1.8c-0.4,0.1 -0.8,0.3 -1.9,0.3c-2.6,0 -3.9,-1.3 -3.9,-4.7c0,-3.4 1.3,-4.7 3.9,-4.7z" class="st3"/>
   <path id="svg_95" d="m128.5,71.4l0,7.2l-1.9,0l0,-7.2l-2.2,0l0,-1.8l6.3,0l0,1.8l-2.2,0z" class="st3"/>
   <path id="svg_96" d="m131.5,78.7l0,-9l1.9,0l0,9l-1.9,0z" class="st3"/>
   <path id="svg_97" d="m134.6,74.2c0,-2.7 0.8,-4.7 3.6,-4.7s3.6,1.9 3.6,4.7s-0.8,4.7 -3.6,4.7c-2.8,-0.1 -3.6,-2 -3.6,-4.7zm1.9,0c0,2.1 0.5,2.9 1.6,2.9c1.2,0 1.6,-0.8 1.6,-2.9s-0.5,-2.9 -1.6,-2.9c-1.1,-0.1 -1.6,0.8 -1.6,2.9z" class="st3"/>
   <path id="svg_98" d="m147.6,78.7l-2.9,-5.4l0,5.4l-1.9,0l0,-9l1.9,0l2.9,5.4l0,-5.4l1.9,0l0,9l-1.9,0z" class="st3"/>
   <path id="svg_99" d="m154.9,78.7l-1.9,0l0,-9l3,0c2.4,0 3.2,1.4 3.2,2.9c0,1.6 -0.8,2.9 -3.2,2.9l-1.1,0l0,3.2zm0,-4.9l1.1,0c1,0 1.1,-0.7 1.1,-1.2s-0.2,-1.2 -1.1,-1.2l-1.1,0l0,2.4z" class="st3"/>
   <path id="svg_100" d="m158.7,78.7l2.5,-9l2.2,0l2.5,9l-2,0l-0.4,-1.8l-2.3,0l-0.4,1.8l-2.1,0zm2.9,-3.4l1.5,0l-0.8,-3.4l-0.7,3.4z" class="st3"/>
   <path id="svg_101" d="m169.3,71.4l0,7.2l-1.9,0l0,-7.2l-2.2,0l0,-1.8l6.3,0l0,1.8l-2.2,0z" class="st3"/>
   <path id="svg_102" d="m175.9,71.4l0,7.2l-1.9,0l0,-7.2l-2.2,0l0,-1.8l6.3,0l0,1.8l-2.2,0z" class="st3"/>
   <path id="svg_103" d="m184.2,74.9l-3.5,0l0,2l3.8,0l0,1.8l-5.7,0l0,-9l5.7,0l0,1.8l-3.8,0l0,1.7l3.5,0l0,1.7z" class="st3"/>
   <path id="svg_104" d="m187.5,78.7l-1.9,0l0,-9l3.1,0c2.4,0 3.2,1.1 3.2,2.8c0,1.1 -0.3,2 -1.3,2.4l1.6,3.8l-2.2,0l-1.2,-3.4l-1.2,0l0,3.4l-0.1,0zm0,-5.2l1.3,0c0.9,0 1,-0.6 1,-1.1s-0.1,-1.1 -1,-1.1l-1.3,0l0,2.2z" class="st3"/>
   <path id="svg_105" d="m197.6,78.7l-2.9,-5.4l0,5.4l-1.9,0l0,-9l1.9,0l2.9,5.4l0,-5.4l1.9,0l0,9l-1.9,0z" class="st3"/>
   <path id="svg_106" d="m206.8,75.8c0,2.2 -1.4,3 -3.5,3c-1,0 -2.2,-0.2 -2.8,-0.6l0,-2c0.4,0.2 1.4,0.7 2.6,0.7c1.4,0 1.8,-0.4 1.8,-1c0,-0.7 -0.3,-0.9 -1.2,-1c-2.3,-0.3 -3.2,-1 -3.2,-2.7c0,-1.6 1,-2.7 3.4,-2.7c1.2,0 2.1,0.2 2.5,0.4l0,1.9c-0.5,-0.2 -1.5,-0.5 -2.4,-0.5c-1,0 -1.5,0.3 -1.5,0.9s0.3,0.9 1.3,1c1.9,0.3 3,0.7 3,2.6z" class="st3"/>
  </g>
  <rect id="svg_107" height="56.9" width="80.3" class="st0" y="22" x="76.8"/>
  <path id="svg_108" d="m182,89.1l-28.3,0c-3.8,0 -6.8,-3.1 -6.8,-6.8l0,-28.4c0,-3.8 3.1,-6.8 6.8,-6.8l28.3,0c3.8,0 6.8,3.1 6.8,6.8l0,28.3c0,3.8 -3.1,6.9 -6.8,6.9z" class="st0"/>
  <rect id="svg_109" height="13.5" width="23.7" class="st0" y="69.5" x="184"/>
  <rect id="svg_110" height="18.8" width="19.7" class="st0" y="65.2" x="187"/>
  <text xml:space="preserve" text-anchor="start" font-family="Helvetica, Arial, sans-serif" font-size="18" id="svg_147" y="52.408305" x="81.466128" fill-opacity="null" stroke-opacity="null" stroke-width="0" stroke="null" fill="#ffffff">Ábyrg neysla</text>
  <text xml:space="preserve" text-anchor="start" font-family="Helvetica, Arial, sans-serif" font-size="18" id="svg_148" y="72.408034" x="80.370253" fill-opacity="null" stroke-opacity="null" stroke-width="0" stroke="null" fill="#ffffff">og framleiðsla</text>
  <text xml:space="preserve" text-anchor="start" font-family="Helvetica, Arial, sans-serif" font-size="12" id="svg_149" y="168.023173" x="26.124414" fill-opacity="null" stroke-opacity="null" stroke-width="0" stroke="null" fill="#ffffff">Sjálfbær neyslu- og framleiðslu-</text>
  <text xml:space="preserve" text-anchor="start" font-family="Helvetica, Arial, sans-serif" font-size="12" id="svg_150" y="186.927025" x="75.164845" fill-opacity="null" stroke-opacity="null" stroke-width="0" stroke="null" fill="#ffffff">verði tryggð</text>
 </g>
</svg>