<svg width="218" height="218" xmlns="http://www.w3.org/2000/svg">
 <style type="text/css">.st0{fill:#3F7F44;}
	.st1{fill:#FFFFFF;}
	.st2{fill:#F7F7F9;}</style>

 <g>
  <title>background</title>
  <rect fill="none" id="canvas_background" height="402" width="582" y="-1" x="-1"/>
 </g>
 <g>
  <title>Layer 1</title>
  <g id="svg_1">
   <circle id="svg_2" r="108" cy="108.939316" cx="109.382172" class="st0"/>
  </g>
  <g id="svg_3">
   <path id="svg_4" d="m67.356445,30.457031l0,31.952149l-8.000488,0l0,-24.001465l-5.550293,0.200195l0,-5.550293l9.550293,-2.600586l4.000488,0z" class="st1"/>
   <path id="svg_5" d="m73.305176,39.507813l0,-7.450684c2.100098,-1 6.300293,-1.600098 9.650879,-1.600098c8.65039,0 11.750488,3.800293 11.750488,10.400879c0,4.050293 -1.75,6.550293 -4.050293,8.000488c2.650391,0.899903 5.150391,3.5 5.150391,8.400391c0,7.300293 -3.400391,12.100586 -13.101075,12.100586c-3.399902,0 -6.90039,-0.5 -9.500488,-1.649902l0,-7.400391c2.850098,1.200195 5.600586,1.700195 9.000488,1.700195c4.350586,0 5.450684,-2.000488 5.450684,-4.750488c0,-3.149902 -1.850098,-4.450195 -5.150391,-4.450195l-5.65039,0l0,-7.050293l5.850098,0c2.300293,0 3.800293,-1.200196 3.800293,-4.050293c0,-2.600098 -1.25,-3.950196 -4.800293,-3.950196c-3.149903,0.000001 -5.650391,0.649903 -8.400391,1.750001z" class="st1"/>
  </g>
  <path id="svg_20" d="m158.091171,108.391815c-3.496002,-4.903 -19.309997,-24.481003 -48.704994,-24.481003c-29.400001,0 -45.208999,19.578003 -48.710003,24.481003c-0.148998,0.209999 -0.277,0.391998 -0.382,0.545998c0.104,0.157997 0.233002,0.338997 0.382,0.551002c3.501004,4.901001 19.310002,24.479004 48.710003,24.479004c29.394997,0 45.208,-19.578003 48.704994,-24.479004c0.153,-0.211998 0.278,-0.392997 0.378998,-0.551002c-0.100998,-0.154991 -0.225998,-0.335991 -0.378998,-0.545998m-65.102989,-12.101997c0.264999,-0.389 1.144997,-1.499001 1.251999,-1.639c0.225998,-0.292 0.675003,-0.351998 0.990997,-0.406998c0.311997,-0.060997 0.727997,0.114998 0.778,0.349999c0.054001,0.235 -0.121002,1.146003 -0.274002,1.302002c-0.431,0.446998 -1.554001,1.079002 -2.171997,0.978996c-0.477997,-0.072998 -0.665993,-0.443001 -0.574997,-0.584999m-1.049995,2.088997c0.045997,-0.056 0.087997,-0.101998 0.106002,-0.124001c0.370003,-0.421997 1.106003,-0.512001 1.614998,-0.591003c0.510002,-0.087998 1.189003,0.168999 1.271004,0.508003c0.086998,0.336998 -1.278,0.955002 -1.527,1.186997c-0.707001,0.652 -1.814003,1.978996 -2.461998,2.122001c-0.211998,0.047997 -0.386002,0.015999 -0.529,-0.056c0.425995,-1.061996 0.93499,-2.081993 1.525994,-3.045997m11.000999,22.569c-0.398002,1.565002 -0.861999,2.129997 -1.259003,2.624c-0.394996,0.5 -1.861,1.136002 -2.791999,1.068001c-0.932,-0.07 -1.060997,-2.556 -1.060997,-3.833999c0,-0.441002 -0.625,0.866996 -0.950997,-1.793c-0.208,-1.703003 -1.302002,0.178002 -1.377998,-0.958c-0.078003,-1.134003 -0.624001,-0.907997 -1.198998,-1.615997c-0.570999,-0.708 -1.283996,0.069 -2.083,0.427002c-0.793999,0.353996 -0.467003,0.539001 -1.597,0.183998c-0.028999,-0.009003 -0.042999,-0.017998 -0.071999,-0.027001c-1.036003,-2.450996 -1.609001,-5.143997 -1.609001,-7.971c0,-0.692002 0.037003,-1.372002 0.101998,-2.043999c0.039001,-0.068001 0.079002,-0.135002 0.125999,-0.191002c1.083,-1.279999 1.058998,-1.581001 1.058998,-1.581001l1.197998,-0.415001c0,0 1.914002,0.294998 3.355004,0.837997c1.186996,0.445 3.056999,1.452004 4.143997,1.009003c0.786003,-0.322998 1.401001,-0.753998 1.327003,-1.407997c-0.088997,-0.82 -0.735,-1.016998 -1.517997,-0.462997c-0.289002,0.204002 -0.904,-1.237 -1.387001,-1.165001c-0.482003,0.072998 0.597,1.694 0.188003,1.763c-0.411003,0.07 -1.235,-1.689003 -1.375999,-1.974998c-0.139,-0.283997 -0.775002,-0.990998 -1.347,-0.450997c-1.208001,1.147003 -3.169999,1.077004 -3.563004,1.372002c-1.198997,0.897003 -1.515999,-0.294998 -1.488998,-1.021004c0.047996,-0.165001 0.097,-0.333 0.150001,-0.497001c0.391998,-0.432 1.795998,-0.574997 2.278999,-0.252999c0.529999,0.353996 0.910004,-0.091003 1.116997,-0.306c0.209999,-0.209999 0.136002,-0.551002 0.003998,-0.833c-0.135002,-0.283996 0.264999,-0.492996 0.539002,-0.565002c0.276,-0.073998 1.189003,-0.711998 1.553001,-0.926003c0.367996,-0.210998 2.261002,-0.441002 3.110001,-0.016998c0.847999,0.427002 1.625999,0.078003 2.043998,-0.413002c0.523003,-0.620003 1.189003,-1.094002 1.484001,-1.237c0.296998,-0.138999 -0.730003,-1.098999 -1.574996,-0.053001c-0.847001,1.041 -1.278,1.137001 -1.676003,1.137001s-2.762001,-0.589996 -3.054001,-1.336998c-0.288002,-0.746002 0.738999,-1.305 1.612,-1.728996c0.872001,-0.415001 3.260002,-0.410004 3.870002,-0.547997c1.240998,-0.272003 2.827004,-0.896003 3.625,-0.352997c0.795998,0.535004 -3.336998,1.476998 -1.978996,2.21c0.483002,0.265998 2.667999,-1.256997 3.417,-1.646004c1.761001,-0.907997 -1.708,-1.209 -1.258003,-3.056c0.509002,-2.086998 -4.254998,-1.278999 -6.628998,-1.101997c3.184997,-2.041001 6.967003,-3.227997 11.028,-3.227997c9.661003,0 17.752998,6.692001 19.911987,15.692001c0.014999,0.445 -0.054993,0.765999 -0.100006,0.947998c-0.186005,0.737 -1.585991,1.372002 -2.397988,0.183998c-0.207,-0.299003 -1.084999,-1.128997 -1.055999,0.290001c0.028,1.419998 1.380005,1.564003 0.069999,2.417c-1.307998,0.851997 -1.547996,0.646004 -2.152,0.860001c-0.603996,0.213997 -1.188004,1.676002 -1.044998,2.458c0.146003,0.781998 2.014,2.916 0.627998,2.829002c-0.323997,-0.024002 -2.771004,-1.695999 -3.176002,-2.770996c-0.426003,-1.132004 -0.891999,-2.237999 -1.222,-3.092003c-0.334,-0.850998 -1.196999,-1.068001 -1.929001,-0.567001c-0.728997,0.499 0.203003,0.996002 -0.320999,2.063003c-0.521004,1.064003 -0.896004,2.016999 -1.666001,1.136002c-1.999,-2.291 -4.903,-1.160004 -5.358002,-3.709c-0.246002,-1.383003 -1.435997,-1.249 -2.43,-2.031997c-1,-0.778 -1.556999,-1.200997 -1.725998,-0.638001c-0.148002,0.494004 3.130997,3.093002 3.363999,3.760002c0.347999,0.988999 -0.982003,1.861 -1.955002,2.096001c-0.969002,0.232002 -1.397003,-0.545998 -2.350998,-1.540001c-0.954002,-0.991997 -1.372002,-1.702003 -1.438004,-0.921997c-0.096,1.126 0.905999,2.780998 1.877999,3.399002c0.829002,0.525002 1.757004,0.763001 1.488998,1.614998c-0.269996,0.853996 -0.004997,0.370003 -0.933998,1.288002c-0.93,0.924004 -1.107002,1.221001 -1.040001,2.495003c0.066002,1.278999 -0.265999,1.352997 -0.466003,2.415001c-0.193993,1.066963 -0.654991,0.146965 -1.056992,1.705963m21.968002,-8.166c0.688004,-0.056 1.723008,0.898002 1.317994,1.264999c-0.403,0.362999 -1.435997,0.230003 -1.953003,-0.175003c-0.514992,-0.400993 0.326004,-1.062996 0.635009,-1.089996m-0.870002,-0.629998c-0.221001,-0.082 -0.416001,-0.291 -0.583001,-0.793998c-0.166999,-0.501999 0.255997,-0.789002 0.668999,-0.587998c0.419998,0.214996 0.964996,0.841004 0.964996,1.176003s-0.825996,0.294998 -1.050994,0.205993m-9.038002,-0.034996c-0.404,0.360001 -1.440003,0.228997 -1.958,-0.176002c-0.514,-0.400002 0.327003,-1.064003 0.635002,-1.088997c0.689003,-0.062004 1.723999,0.900993 1.322998,1.264999m-8.362999,4.066994c-0.281998,0.460998 -1.052002,3.905998 -1.569001,3.504997c-0.518997,-0.402 0.209,-3.995002 0.359002,-4.268997c0.808998,-1.482994 2.558998,-1.409996 1.209999,0.764m2.785003,13.348c-2.000999,0 -3.930999,-0.292008 -5.756996,-0.824997c-0.262001,-0.214005 -0.412002,-0.570999 -0.248001,-1.001c0.634003,-1.652 2.520996,-2.299003 4.011002,-2.442001c3.319999,-0.322998 7.684997,2.155998 8.378998,1.755997c0.696998,-0.399003 2.099998,-2.224999 4.160003,-2.148003c1.405998,0.054001 1.396004,0.290001 1.867996,0.468002c-3.445007,2.627007 -7.745002,4.192002 -12.413002,4.192002m14.441994,-5.961998c-0.205002,-0.057 -0.415001,-0.124001 -0.642998,-0.237c-1.118003,-0.568001 -0.984001,0.339996 -1.532997,0.139999c-0.554001,-0.205001 0.620003,-1.480003 -1.031997,-0.402c-1.643998,1.075996 -1.198998,-0.166 -1.917,-1.987999c-0.724999,-1.823997 0.824997,-3.903999 2.119003,-4.375999c1.778999,-0.644997 2.884003,-0.775002 3.718002,-0.981003c2.461007,-0.613999 2.980004,-2.073998 3.426987,-1.185997c0.085007,0.166 0.166001,0.323997 0.240006,0.473999c0.143997,0.265999 0.309005,0.803001 0.315994,1.333999c-1.044991,2.736 -2.655998,5.194001 -4.695,7.222001m5.609993,-10.338997c-0.550003,-0.149002 -2.849999,-3.329003 -1.031006,-5.420998c0.302002,-0.344002 -0.609993,-1.356003 -0.360001,-1.375c0.994004,-0.078003 1.522996,0.539002 1.783997,1.429001c0.020996,0.392998 0.035004,0.788002 0.035004,1.188003c0.000015,1.431992 -0.149994,2.829995 -0.427994,4.178994" class="st1"/>
  <text xml:space="preserve" text-anchor="start" font-family="Helvetica, Arial, sans-serif" font-size="18" id="svg_72" y="42.183299" x="100.066662" fill-opacity="null" stroke-opacity="null" stroke-width="0" stroke="null" fill="#ffffff">Aðgerðir í</text>
  <text style="cursor: move;" xml:space="preserve" text-anchor="start" font-family="Helvetica, Arial, sans-serif" font-size="18" id="svg_73" y="60.849975" x="98.733328" fill-opacity="null" stroke-opacity="null" stroke-width="0" stroke="null" fill="#ffffff">loftslags-</text>
  <text xml:space="preserve" text-anchor="start" font-family="Helvetica, Arial, sans-serif" font-size="18" id="svg_74" y="76.049983" x="98.999994" fill-opacity="null" stroke-opacity="null" stroke-width="0" stroke="null" fill="#ffffff">málum</text>
  <text xml:space="preserve" text-anchor="start" font-family="Helvetica, Arial, sans-serif" font-size="12" id="svg_75" y="149.383354" x="34.999961" fill-opacity="null" stroke-opacity="null" stroke-width="0" stroke="null" fill="#ffffff">Grípa til bráðra aðgerða gegn</text>
  <text xml:space="preserve" text-anchor="start" font-family="Helvetica, Arial, sans-serif" font-size="12" id="svg_76" y="166.45003" x="54.733305" fill-opacity="null" stroke-opacity="null" stroke-width="0" stroke="null" fill="#ffffff">loftslagsbreytingum og</text>
  <text xml:space="preserve" text-anchor="start" font-family="Helvetica, Arial, sans-serif" font-size="12" id="svg_77" y="182.450038" x="74.466649" fill-opacity="null" stroke-opacity="null" stroke-width="0" stroke="null" fill="#ffffff">áhrifum þeirra</text>
 </g>
</svg>