<svg width="218" height="218" xmlns="http://www.w3.org/2000/svg">

 <g>
  <title>background</title>
  <rect fill="none" id="canvas_background" height="402" width="582" y="-1" x="-1"/>
 </g>
 <g>
  <title>Layer 1</title>
  <g id="svg_1">
   <circle id="svg_2" r="108" cy="108.939" cx="109.382" fill="#DD1768"/>
  </g>
  <g id="svg_3">
   <path id="svg_4" d="m55.356,32.457l0,31.952l-8,0l0,-24.001l-5.55,0.2l0,-5.55l9.55,-2.601l4,0z" fill="#FFFFFF"/>
   <path id="svg_5" d="m61.205,48.758c0,-12.451 3.75,-16.301 12.751,-16.301s12.75,3.851 12.75,16.301s-3.75,16.351 -12.75,16.351s-12.751,-3.9 -12.751,-16.351zm7.851,0c0,7.4 1.25,9.101 4.9,9.101s4.9,-1.7 4.9,-9.101c0,-7.25 -1.25,-9.051 -4.9,-9.051s-4.9,1.801 -4.9,9.051z" fill="#FFFFFF"/>
  </g>
  <g id="svg_67">
   <path id="svg_68" d="m108.656,108.377c-4.477,0 -8.953,-0.024 -13.429,0.02c-0.946,0.009 -1.213,-0.303 -1.191,-1.219c0.055,-2.349 0.04,-4.7 0.006,-7.05c-0.011,-0.729 0.152,-1.09 0.977,-1.089c9.103,0.02 18.204,0.018 27.307,0.001c0.741,-0.001 0.97,0.283 0.961,0.992c-0.026,2.425 -0.036,4.85 0.005,7.273c0.015,0.83 -0.261,1.093 -1.094,1.087c-4.514,-0.034 -9.028,-0.015 -13.542,-0.015z" fill="#FEFEFD" clip-rule="evenodd" fill-rule="evenodd"/>
   <path id="svg_69" d="m108.825,117.356c4.406,0 8.812,0.029 13.217,-0.022c1.003,-0.011 1.282,0.305 1.255,1.278c-0.063,2.275 -0.053,4.555 -0.004,6.831c0.02,0.894 -0.217,1.242 -1.182,1.239c-8.961,-0.032 -17.922,-0.032 -26.882,-0.002c-0.943,0.003 -1.217,-0.308 -1.193,-1.226c0.057,-2.202 0.018,-4.406 0.019,-6.608c0,-1.487 0.001,-1.489 1.442,-1.489c4.442,-0.001 8.886,-0.001 13.328,-0.001z" fill="#FEFEFD" clip-rule="evenodd" fill-rule="evenodd"/>
   <path id="svg_70" d="m82.314,112.961c0,4.217 0.003,8.434 -0.006,12.65c-0.001,0.358 0.176,0.854 -0.186,1.041c-0.415,0.217 -0.618,-0.3 -0.859,-0.54c-4.179,-4.159 -8.334,-8.342 -12.527,-12.487c-0.592,-0.586 -0.607,-0.92 -0.006,-1.515c4.216,-4.175 8.394,-8.388 12.591,-12.581c0.221,-0.221 0.418,-0.661 0.788,-0.483c0.338,0.162 0.199,0.605 0.199,0.929c0.008,4.328 0.006,8.658 0.006,12.986z" fill="#FEFEFD" clip-rule="evenodd" fill-rule="evenodd"/>
   <path id="svg_71" d="m135.05,112.873c-0.001,-4.292 -0.004,-8.585 0.007,-12.877c0.001,-0.317 -0.176,-0.763 0.157,-0.929c0.434,-0.216 0.632,0.283 0.872,0.522c4.174,4.166 8.326,8.354 12.514,12.506c0.577,0.572 0.646,0.904 0.029,1.515c-4.223,4.17 -8.405,8.381 -12.609,12.569c-0.22,0.22 -0.41,0.664 -0.786,0.488c-0.351,-0.165 -0.176,-0.604 -0.177,-0.917c-0.011,-4.291 -0.007,-8.584 -0.007,-12.877z" fill="#FEFEFD" clip-rule="evenodd" fill-rule="evenodd"/>
   <path id="svg_72" d="m108.6,86.463c-4.256,0 -8.512,0.004 -12.767,-0.006c-0.321,0 -0.771,0.165 -0.937,-0.154c-0.227,-0.434 0.284,-0.624 0.521,-0.863c4.161,-4.18 8.346,-8.337 12.492,-12.531c0.58,-0.586 0.905,-0.624 1.508,-0.015c4.144,4.197 8.328,8.354 12.494,12.529c0.229,0.23 0.655,0.443 0.55,0.782c-0.145,0.461 -0.644,0.248 -0.982,0.249c-4.293,0.015 -8.586,0.009 -12.879,0.009z" fill="#FEFEFD" clip-rule="evenodd" fill-rule="evenodd"/>
   <path id="svg_73" d="m108.632,139.257c4.287,0 8.574,-0.003 12.861,0.006c0.319,0.001 0.765,-0.165 0.931,0.156c0.225,0.435 -0.285,0.625 -0.522,0.864c-4.155,4.174 -8.333,8.327 -12.475,12.515c-0.571,0.578 -0.886,0.643 -1.495,0.025c-4.162,-4.22 -8.369,-8.396 -12.553,-12.595c-0.219,-0.219 -0.667,-0.398 -0.516,-0.771c0.151,-0.373 0.597,-0.192 0.908,-0.193c4.287,-0.011 8.574,-0.007 12.861,-0.007z" fill="#FEFEFD" clip-rule="evenodd" fill-rule="evenodd"/>
  </g>
  <text xml:space="preserve" text-anchor="start" font-family="Helvetica, Arial, sans-serif" font-size="18" id="svg_74" y="46.708782" x="97.03039" fill-opacity="null" stroke-opacity="null" stroke-width="0" stroke="null" fill="#ffffff">Aukinn</text>
  <text xml:space="preserve" text-anchor="start" font-family="Helvetica, Arial, sans-serif" font-size="18" id="svg_75" y="62.769272" x="96.121305" fill-opacity="null" stroke-opacity="null" stroke-width="0" stroke="null" fill="#ffffff">jöfnuður</text>
  <text xml:space="preserve" text-anchor="start" font-family="Helvetica, Arial, sans-serif" font-size="12" id="svg_76" y="167.920025" x="43.091387" fill-opacity="null" stroke-opacity="null" stroke-width="0" stroke="null" fill="#ffffff">Draga úr ójöfnuði innan og</text>
  <text style="cursor: move;" xml:space="preserve" text-anchor="start" font-family="Helvetica, Arial, sans-serif" font-size="12" id="svg_77" y="185.798684" x="77.333563" fill-opacity="null" stroke-opacity="null" stroke-width="0" stroke="null" fill="#ffffff">á milli landa</text>
 </g>
</svg>