<svg width="218" height="218" xmlns="http://www.w3.org/2000/svg">
 <style type="text/css">.st0{fill:#5CBA47;}
	.st1{fill:#FFFFFF;}</style>

 <g>
  <title>background</title>
  <rect fill="none" id="canvas_background" height="402" width="582" y="-1" x="-1"/>
 </g>
 <g>
  <title>Layer 1</title>
  <g id="svg_1">
   <circle id="svg_2" r="108" cy="108.65683" cx="109.382172" class="st0"/>
  </g>
  <g id="svg_3">
   <path id="svg_4" d="m67.356445,22.457031l0,31.952149l-8.000488,0l0,-24.001465l-5.550293,0.200195l0,-5.550293l9.550293,-2.600586l4.000488,0z" class="st1"/>
   <path id="svg_5" d="m73.205078,59.659668l0,-7.100586c1.950195,0.799805 5.600586,1.5 8.600586,1.5c3.850098,0 6.500488,-1.100098 6.500488,-5.250488c0,-4.25 -2.450195,-4.799805 -6.000488,-4.799805l-8.150391,0l0,-20.851562l21.001465,0l0,7.500488l-13.250976,0l0,6.050293l2.90039,0c5.550293,0 11.450684,1.600098 11.450684,12.100586c0,10.750976 -6.950684,12.550781 -14.150879,12.550781c-3.550293,0 -6.650391,-0.599609 -8.900879,-1.699707z" class="st1"/>
  </g>
  <g id="svg_17">
   <path id="svg_18" d="m105.752433,91.693567c0.093376,0 0.186745,0.093368 0.186745,0.186744l0,7.003014c0,0.093369 -0.093368,0.186745 -0.186745,0.186745l-2.894577,0c-0.093368,0 -0.186744,-0.093376 -0.186744,-0.186745l0,-7.003014c0,-0.093376 0.093376,-0.186744 0.186744,-0.186744l2.894577,0z" class="st1"/>
   <path id="svg_19" d="m137.125946,102.151407l-46.966881,0c-0.093376,0 -0.186745,0.093368 -0.186745,0.186737l0,2.894584c0,0.093369 0.093368,0.186737 0.186745,0.186737l46.96688,0c0.093369,0 0.186738,-0.093368 0.186738,-0.186737l0,-2.894584c0,-0.093369 -0.093384,-0.186737 -0.186737,-0.186737" class="st1"/>
   <path id="svg_20" d="m137.125946,107.847184l-46.966881,0c-0.093376,0 -0.186745,0.093377 -0.186745,0.186745l0,2.894577c0,0.093376 0.093368,0.186745 0.186745,0.186745l46.96688,0c0.093369,0 0.186738,-0.093369 0.186738,-0.186745l0,-2.894577c0,-0.093368 -0.093384,-0.186745 -0.186737,-0.186745" class="st1"/>
   <path id="svg_21" d="m128.162078,83.850198c-0.560241,-0.466865 -2.147598,-1.493973 -4.015068,-1.493973c-1.400596,0 -2.614456,0.560242 -3.734939,1.587342c-0.093369,0.093376 -0.093369,0.186744 -0.093369,0.280128l0,0.280113c0,0.093377 0,0.280129 0.093369,0.280129c0.093376,0.093368 0.186744,0.093368 0.373497,0.093368l0.093376,0c0.093368,0 0.186745,-0.093368 0.280121,-0.186744c0.280121,-0.186745 0.933731,-0.373497 1.86747,-0.373497c1.027107,0 2.987945,0.280128 4.855415,2.054214l0,0c0.093376,0.093376 0.280128,0.186745 0.373497,0.186745c0.186745,0 0.280128,-0.093369 0.373497,-0.186745l0,0c1.86747,-1.774093 3.828315,-2.054214 4.855415,-2.054214c0.933746,0 1.680725,0.186744 1.867478,0.373497c0.093368,0.093376 0.186737,0.093376 0.28012,0.186744c0,0 0.186737,0 0.280121,0c0.186752,-0.093368 0.280121,-0.186744 0.280121,-0.373497l0,-0.186744c0,-0.093369 0,-0.186745 -0.093369,-0.280121c-1.120483,-1.120476 -2.427719,-1.680725 -3.828323,-1.680725c-1.960838,0 -3.548187,1.027115 -4.108429,1.49398" class="st1"/>
   <path id="svg_22" d="m125.267501,65.1755c-0.093376,0.093369 -0.186744,0.093369 -0.186744,0.280121l-0.093377,0.186745c0,0.093368 0,0.280121 0.093377,0.373497c0.093368,0.093368 0.186744,0.186745 0.28012,0.186745c0,0 0,0 0.093377,0c0.093368,0 0.186744,0 0.186744,-0.093377c0,0 0.093369,0 0.280121,0c0.186745,0 2.147591,0.093377 3.361443,2.147599l0,0c0.093376,0.093368 0.186744,0.186737 0.280121,0.28012c0,0 0.093376,0 0.186744,0c0.093376,0 0.186753,0 0.280121,-0.093376l0,0c0.65361,-0.373489 1.400604,-0.560234 2.054207,-0.560234c1.213867,0 1.960861,0.466866 2.147598,0.65361c0,0.093369 0.093384,0.093369 0.186752,0.186745c0,0 0.093369,0.093369 0.186737,0.093369c0,0 0,0 0.093384,0l0,0c0.093369,0 0.093369,0 0.186737,-0.093369c0.093384,-0.093376 0.186753,-0.093376 0.186753,-0.280128l0,-0.093369l0,-0.093368c0,-0.093377 0,-0.186745 -0.093384,-0.186745c-0.933731,-1.587349 -2.240967,-1.960846 -3.174698,-1.960846c-0.746986,0 -1.307221,0.186745 -1.680725,0.280121c-0.466866,-0.560234 -1.493973,-1.774094 -3.174698,-1.774094c-0.560226,0.093361 -1.120476,0.280106 -1.68071,0.560234" class="st1"/>
   <path id="svg_23" d="m115.276535,72.365251l0,0.186745c0,0.093376 0.093376,0.280128 0.186744,0.280128c0.093376,0.093369 0.186745,0.093369 0.280129,0.093369l0.093368,0c0.093376,0 0.186745,-0.093369 0.186745,-0.186745c0.186745,-0.186745 0.840362,-0.373497 1.774101,-0.373497c0.933731,0 2.334336,0.280128 3.73494,1.400604l0,0c0.093368,0.093376 0.186745,0.093376 0.373489,0.093376l0,0c0.186745,0 0.280129,-0.093376 0.373497,-0.186744l0,0c1.587349,-1.680726 3.268074,-1.86747 4.108437,-1.86747c0.65361,0 1.027107,0.093368 1.213859,0.186745c0.093369,0.093368 0.186745,0.093368 0.280121,0.093368c0,0 0.093376,0 0.186745,0l0.093376,0c0.186745,-0.093368 0.280121,-0.186745 0.280121,-0.373497l0,-0.186745c0,-0.093368 -0.093369,-0.186737 -0.186745,-0.280121c-0.933731,-0.746986 -1.960838,-1.213859 -2.987945,-1.213859c-1.680725,0 -2.987954,0.933739 -3.548203,1.49398c-0.466865,-0.373497 -1.680725,-1.027107 -3.174698,-1.027107c-1.213859,0 -2.334335,0.560234 -3.361442,1.493973c0.186737,0.18676 0.093361,0.280128 0.093361,0.373497" class="st1"/>
   <path id="svg_24" d="m91.559669,76.100198c0,-2.801208 2.240967,-5.135544 5.135544,-5.135544c0.093368,0 0.186737,0 0.280121,0c0.28012,-3.548194 3.268074,-6.349403 6.816269,-6.349403c3.828308,0 6.909637,3.081329 6.909637,6.909638c0,1.120483 -0.280121,2.054214 -0.65361,2.987953c3.454819,0.746994 6.069275,3.828308 6.069275,7.469879c0,4.295181 -3.454811,7.656624 -7.656624,7.656624c-0.280121,0 -10.27108,-0.093369 -10.27108,-0.093369l0,0c-2.987953,0 -5.415672,-2.427711 -5.415672,-5.415672c0,-1.400597 0.560241,-2.801201 1.49398,-3.73494c-1.680733,-0.746971 -2.70784,-2.334328 -2.70784,-4.295166z" class="st1"/>
  </g>
  <text xml:space="preserve" text-anchor="start" font-family="Helvetica, Arial, sans-serif" font-size="18" id="svg_356" y="35.394776" x="104.903955" fill-opacity="null" stroke-opacity="null" stroke-width="0" stroke="null" fill="#ffffff">Líf á</text>
  <text xml:space="preserve" text-anchor="start" font-family="Helvetica, Arial, sans-serif" font-size="18" id="svg_357" y="53.473872" x="104.903954" fill-opacity="null" stroke-opacity="null" stroke-width="0" stroke="null" fill="#ffffff">landi</text>
  <text xml:space="preserve" text-anchor="start" font-family="Helvetica, Arial, sans-serif" font-size="12" id="svg_358" y="121.270484" x="4.903951" fill-opacity="null" stroke-opacity="null" stroke-width="0" stroke="null" fill="#ffffff">Vernda, endurheimta og stuðla að sjálf-</text>
  <text xml:space="preserve" text-anchor="start" font-family="Helvetica, Arial, sans-serif" font-size="12" id="svg_359" y="133.134892" x="17.050843" fill-opacity="null" stroke-opacity="null" stroke-width="0" stroke="null" fill="#ffffff">bærri nýtingu vistkerfa á landi, sjálf-</text>
  <text xml:space="preserve" text-anchor="start" font-family="Helvetica, Arial, sans-serif" font-size="12" id="svg_360" y="144.999299" x="12.53107" fill-opacity="null" stroke-opacity="null" stroke-width="0" stroke="null" fill="#ffffff">bærrisstjórnun skógarauðlindarinnar,</text>
  <text xml:space="preserve" text-anchor="start" font-family="Helvetica, Arial, sans-serif" font-size="12" id="svg_361" y="156.863707" x="24.677963" fill-opacity="null" stroke-opacity="null" stroke-width="0" stroke="null" fill="#ffffff">berjast gegn eyðimerkurmyndun,</text>
  <text xml:space="preserve" text-anchor="start" font-family="Helvetica, Arial, sans-serif" font-size="12" id="svg_362" y="167.59817" x="41.062144" fill-opacity="null" stroke-opacity="null" stroke-width="0" stroke="null" fill="#ffffff">stöðva jarðvegseyðingu og</text>
  <text xml:space="preserve" text-anchor="start" font-family="Helvetica, Arial, sans-serif" font-size="12" id="svg_363" y="179.180092" x="44.734461" fill-opacity="null" stroke-opacity="null" stroke-width="0" stroke="null" fill="#ffffff">endurheimta landgæði og</text>
  <text xml:space="preserve" text-anchor="start" font-family="Helvetica, Arial, sans-serif" font-size="12" id="svg_364" y="189.349584" x="60.836156" fill-opacity="null" stroke-opacity="null" stroke-width="0" stroke="null" fill="#ffffff">sporna við hnignun</text>
  <text xml:space="preserve" text-anchor="start" font-family="Helvetica, Arial, sans-serif" font-size="12" id="svg_365" y="199.801562" x="74.112993" fill-opacity="null" stroke-opacity="null" stroke-width="0" stroke="null" fill="#ffffff">líffræðilegrar</text>
  <text xml:space="preserve" text-anchor="start" font-family="Helvetica, Arial, sans-serif" font-size="12" id="svg_366" y="210.536025" x="85.129943" fill-opacity="null" stroke-opacity="null" stroke-width="0" stroke="null" fill="#ffffff">fjölbreytni</text>
 </g>
</svg>