<svg width="218" height="218" xmlns="http://www.w3.org/2000/svg">
 <style type="text/css">.st0{fill:#FAC313;}
	.st1{fill:#FFFFFF;}
	.st2{enable-background:new    ;}</style>

 <g>
  <title>background</title>
  <rect fill="none" id="canvas_background" height="402" width="582" y="-1" x="-1"/>
 </g>
 <g>
  <title>Layer 1</title>
  <g id="svg_1">
   <circle id="svg_2" r="108" cy="108.939316" cx="109.382172" class="st0"/>
  </g>
  <g id="svg_3">
   <path id="svg_4" d="m44.255371,70.659668l13.80127,-30.301758l-16.30127,0.149902l0,-7.350585l23.851563,0l0,4.90039l-12.300782,32.602051l-9.050781,0z" class="st1"/>
  </g>
  <g id="svg_28">
   <path id="svg_29" d="m110.599998,92.199997c-9.099998,0 -16.400001,7.300003 -16.400001,16.400001s7.300003,16.400002 16.400001,16.400002s16.400002,-7.300003 16.400002,-16.400002s-7.300003,-16.400001 -16.400002,-16.400001m-1.199996,6.5c0,-0.5 0.5,-1.099999 1.199996,-1.099999s1.199997,0.599999 1.199997,1.099999l0,5.599998c0,0.5 -0.5,1.099999 -1.199997,1.099999s-1.199996,-0.599999 -1.199996,-1.099999l0,-5.599998zm1.199996,18.300003c-4.699996,0 -8.5,-3.800003 -8.5,-8.5c0,-3.800003 2.5,-7.099998 6,-8.099998l0,3.199996c-1.800003,0.900002 -3,2.800004 -3,5c0,3.099999 2.5,5.599999 5.599999,5.599999s5.599998,-2.5 5.599998,-5.599999c0,-2.199996 -1.199996,-4.099998 -3.099998,-5l0,-3.199996c3.5,1.099998 6,4.300003 6,8.199996c-0.099999,4.599999 -3.899994,8.400002 -8.599999,8.400002" class="st1"/>
   <path id="svg_30" d="m91.800003,108.400002c0,-0.699997 -0.699997,-1.300004 -1.300003,-1.300004l-7.199997,0c-0.599998,0 -1.300003,0.599999 -1.300003,1.300004c0,0.699996 0.699997,1.400001 1.300003,1.400001l7.199997,0c0.599998,0 1.300003,-0.600006 1.300003,-1.400001" class="st1"/>
   <path id="svg_31" d="m139.199997,108.400002c0,-0.699997 -0.699997,-1.300004 -1.300003,-1.300004l-7.199997,0c-0.600006,0 -1.300003,0.599999 -1.300003,1.300004c0,0.699996 0.699997,1.400001 1.300003,1.400001l7.199997,0c0.600006,0 1.300003,-0.600006 1.300003,-1.400001" class="st1"/>
   <path id="svg_32" d="m110.599998,89.599998c0.699997,0 1.300004,-0.699996 1.300004,-1.300003l0,-7.199997c0,-0.599998 -0.599999,-1.300003 -1.300004,-1.300003c-0.699996,0 -1.400001,0.699997 -1.400001,1.300003l0,7.199997c0.100006,0.600007 0.700005,1.300003 1.400001,1.300003" class="st1"/>
   <path id="svg_33" d="m110.599998,137c0.699997,0 1.300004,-0.699997 1.300004,-1.300003l0,-7.199997c0,-0.599998 -0.599999,-1.300003 -1.300004,-1.300003c-0.699996,0 -1.400001,0.699997 -1.400001,1.300003l0,7.199997c0.100006,0.600006 0.700005,1.300003 1.400001,1.300003" class="st1"/>
   <path id="svg_34" d="m94.300003,99.099998c0.400002,-0.599998 0.099999,-1.5 -0.400001,-1.800003l-6.199997,-3.599998c-0.5,-0.300003 -1.400002,-0.099999 -1.800003,0.5s-0.099999,1.5 0.400001,1.800003l6.199997,3.599998c0.5,0.300004 1.400002,0.099999 1.800003,-0.5" class="st1"/>
   <path id="svg_35" d="m135.399994,122.599998c0.399994,-0.599998 0.100006,-1.5 -0.399994,-1.800003l-6.199997,-3.599998c-0.5,-0.300003 -1.400001,-0.099999 -1.800003,0.5s-0.099998,1.5 0.400002,1.800003l6.200004,3.599998c0.5,0.400002 1.399994,0.200005 1.799988,-0.5" class="st1"/>
   <path id="svg_36" d="m120,92.099998c0.599998,0.400002 1.5,0.099999 1.800003,-0.400001l3.599999,-6.199997c0.300003,-0.5 0.099998,-1.400002 -0.5,-1.800003s-1.5,-0.099999 -1.800004,0.400001l-3.599998,6.199997c-0.400002,0.500008 -0.199997,1.400002 0.5,1.800003" class="st1"/>
   <path id="svg_37" d="m96.400002,133.199997c0.599998,0.399994 1.5,0.100006 1.800003,-0.399994l3.599998,-6.199997c0.300003,-0.5 0.099999,-1.400001 -0.5,-1.800003s-1.5,-0.099998 -1.800003,0.400002l-3.599998,6.200004c-0.300004,0.599991 -0.099999,1.399994 0.5,1.799988" class="st1"/>
   <path id="svg_38" d="m101.199997,92.099998c0.599998,-0.400001 0.800003,-1.199996 0.5,-1.800003l-3.599999,-6.199997c-0.300003,-0.5 -1.199996,-0.800003 -1.800003,-0.400001c-0.599998,0.400001 -0.800003,1.199997 -0.5,1.800003l3.599999,6.199997c0.300003,0.5 1.200004,0.800003 1.800003,0.400001" class="st1"/>
   <path id="svg_39" d="m124.800003,133.199997c0.599999,-0.399994 0.800003,-1.199997 0.5,-1.800003l-3.599998,-6.199997c-0.300003,-0.5 -1.199997,-0.800003 -1.800003,-0.400002c-0.599999,0.400002 -0.800004,1.199997 -0.5,1.800003l3.599998,6.200005c0.300003,0.5 1.199997,0.699997 1.800003,0.399994" class="st1"/>
   <path id="svg_40" d="m126.900002,99c0.400001,0.599998 1.200004,0.800003 1.799995,0.5l6.199997,-3.599998c0.5,-0.300004 0.800003,-1.199997 0.399994,-1.800004c-0.399994,-0.599998 -1.199997,-0.800003 -1.800003,-0.5l-6.199997,3.599999c-0.499985,0.300003 -0.69999,1.200005 -0.399986,1.800003" class="st1"/>
   <path id="svg_41" d="m85.900002,122.699997c0.400001,0.599998 1.199996,0.800003 1.800003,0.5l6.199997,-3.599999c0.5,-0.300003 0.800003,-1.199996 0.400001,-1.800003c-0.400001,-0.599998 -1.199997,-0.800003 -1.800003,-0.5l-6.199997,3.599999c-0.5,0.300003 -0.800003,1.100006 -0.400001,1.800003" class="st1"/>
  </g>
  <text xml:space="preserve" text-anchor="start" font-family="Helvetica, Arial, sans-serif" font-size="18" id="svg_111" y="45.70673" x="73.807695" stroke-width="0" stroke="#000" fill="#ffffff">Sjálbær</text>
  <text xml:space="preserve" text-anchor="start" font-family="Helvetica, Arial, sans-serif" font-size="18" id="svg_112" y="65.706729" x="75.730772" stroke-width="0" stroke="#000" fill="#ffffff">orka</text>
  <text xml:space="preserve" text-anchor="start" font-family="Helvetica, Arial, sans-serif" font-size="12" id="svg_113" y="156.091336" x="28.807699" stroke-width="0" stroke="#000" fill="#ffffff">Tryggja aðgang allra að öruggri</text>
  <text xml:space="preserve" text-anchor="start" font-family="Helvetica, Arial, sans-serif" font-size="12" id="svg_114" y="171.47595" x="59.192312" stroke-width="0" stroke="#000" fill="#ffffff">og fjálfbærri orku á</text>
  <text xml:space="preserve" text-anchor="start" font-family="Helvetica, Arial, sans-serif" font-size="12" id="svg_115" y="187.24518" x="60.346158" stroke-width="0" stroke="#000" fill="#ffffff">viðráðanlegu verði</text>
 </g>
</svg>