<svg width="218" height="218" xmlns="http://www.w3.org/2000/svg">
 <style type="text/css">.st0{fill:#4BA146;}
	.st1{fill:#FFFFFF;}
	.st2{enable-background:new    ;}</style>

 <g>
  <title>background</title>
  <rect fill="none" id="canvas_background" height="402" width="582" y="-1" x="-1"/>
 </g>
 <g>
  <title>Layer 1</title>
  <g id="svg_1">
   <circle id="svg_2" r="108" cy="108.939316" cx="109.603165" class="st0"/>
  </g>
  <g id="svg_3">
   <path id="svg_4" d="m41.355469,40.507813l0,-7.450684c2.100097,-1 6.300293,-1.600098 9.65039,-1.600098c8.650879,0 11.750977,3.800293 11.750977,10.400879c0,4.050293 -1.75,6.550293 -4.050293,8.000488c2.650391,0.899903 5.150391,3.5 5.150391,8.400391c0,7.300293 -3.400391,12.100586 -13.101075,12.100586c-3.399902,0 -6.90039,-0.5 -9.500488,-1.649902l0,-7.400391c2.850098,1.200195 5.600586,1.700195 9.000488,1.700195c4.350586,0 5.450684,-2.000488 5.450684,-4.750488c0,-3.149902 -1.850098,-4.450195 -5.150391,-4.450195l-5.65039,0l0,-7.050293l5.850097,0c2.300293,0 3.800293,-1.200196 3.800293,-4.050293c0,-2.600098 -1.25,-3.950196 -4.800293,-3.950196c-3.149902,0.000001 -5.65039,0.649903 -8.40039,1.750001z" class="st1"/>
  </g>
  <g id="svg_5">
   <path id="svg_6" d="m283.694336,37.617676c0,-4.177735 1.504394,-6.226563 5.154297,-6.226563c1.632324,0 2.816894,0.240235 3.537109,0.560059l0,2.49707c-0.992187,-0.416015 -2.064941,-0.65625 -3.057129,-0.65625c-2.289062,0 -3.041015,1.024414 -3.041015,3.825684c0,2.993164 0.815918,3.825683 3.041015,3.825683c0.240235,0 0.560059,-0.016113 0.736328,-0.048339l0,-2.432618l-1.696777,0l0,-2.289062l4.257813,0l0,6.354492c-0.720215,0.448242 -2.128907,0.816406 -3.857422,0.816406c-3.569825,0 -5.074219,-2.048828 -5.074219,-6.226562z" class="st1"/>
   <path id="svg_7" d="m293.950195,37.617676c0,-3.665528 1.008301,-6.226563 4.786133,-6.226563c3.777344,0 4.785645,2.561035 4.785645,6.226563s-1.008301,6.226562 -4.785645,6.226562c-3.777832,0 -4.786133,-2.561035 -4.786133,-6.226562zm2.593262,0c0,2.801269 0.60791,3.905762 2.192871,3.905762c1.584473,0 2.192871,-1.104493 2.192871,-3.905762s-0.608398,-3.905762 -2.192871,-3.905762c-1.584961,0 -2.192871,1.104492 -2.192871,3.905762z" class="st1"/>
   <path id="svg_8" d="m304.830078,37.617676c0,-3.665528 1.008301,-6.226563 4.786133,-6.226563c3.777344,0 4.785644,2.561035 4.785644,6.226563s-1.0083,6.226562 -4.785644,6.226562c-3.777832,0 -4.786133,-2.561035 -4.786133,-6.226562zm2.593262,0c0,2.801269 0.60791,3.905762 2.192871,3.905762c1.584473,0 2.192871,-1.104493 2.192871,-3.905762s-0.608398,-3.905762 -2.192871,-3.905762c-1.584961,0 -2.192871,1.104492 -2.192871,3.905762z" class="st1"/>
   <path id="svg_9" d="m315.790039,43.620117l0,-12.004883l3.889649,0c4.065429,0 5.12207,2.593262 5.12207,6.002442s-1.056641,6.002441 -5.12207,6.002441l-3.889649,0zm2.560547,-2.336914l1.376953,0c1.873047,0 2.416992,-1.344726 2.416992,-3.665527c0,-2.304688 -0.543945,-3.665528 -2.416992,-3.665528l-1.376953,0l0,7.331055z" class="st1"/>
   <path id="svg_10" d="m335.520508,43.620117l0,-5.025879l-3.650391,0l0,5.025879l-2.560547,0l0,-12.004883l2.560547,0l0,4.64209l3.650391,0l0,-4.64209l2.560547,0l0,12.004883l-2.560547,0z" class="st1"/>
   <path id="svg_11" d="m346.736328,38.562012l-4.625976,0l0,2.721191l5.09082,0l0,2.336914l-7.651367,0l0,-12.004883l7.651367,0l0,2.336914l-5.09082,0l0,2.320801l4.625976,0l0,2.289063z" class="st1"/>
   <path id="svg_12" d="m348.09375,43.620117l3.329102,-12.068847l2.945312,0l3.329102,12.068847l-2.720703,0l-0.560547,-2.464844l-3.041016,0l-0.560547,2.464844l-2.720703,0zm3.777344,-4.498047l2.048828,0l-1.024414,-4.54541l-1.024414,4.54541z" class="st1"/>
   <path id="svg_13" d="m361.310547,41.283203l4.850586,0l0,2.336914l-7.411133,0l0,-12.004883l2.560547,0l0,9.667969z" class="st1"/>
   <path id="svg_14" d="m370.431641,33.952148l0,9.667969l-2.560547,0l0,-9.667969l-2.897461,0l0,-2.336914l8.355469,0l0,2.336914l-2.897461,0z" class="st1"/>
   <path id="svg_15" d="m380.512695,43.620117l0,-5.025879l-3.65039,0l0,5.025879l-2.560547,0l0,-12.004883l2.560547,0l0,4.64209l3.65039,0l0,-4.64209l2.560547,0l0,12.004883l-2.560547,0z" class="st1"/>
   <path id="svg_16" d="m283.358398,62.820313l3.329102,-12.068848l2.945313,0l3.329101,12.068848l-2.720703,0l-0.560547,-2.464844l-3.041015,0l-0.560547,2.464844l-2.720704,0zm3.777344,-4.498047l2.048828,0l-1.024414,-4.545411l-1.024414,4.545411z" class="st1"/>
   <path id="svg_17" d="m300.353027,62.820313l-3.873535,-7.170899l0.063965,7.170899l-2.528809,0l0,-12.004883l2.528809,0l3.873535,7.170898l-0.063965,-7.170898l2.529297,0l0,12.004883l-2.529297,0z" class="st1"/>
   <path id="svg_18" d="m304.350586,62.820313l0,-12.004883l3.889648,0c4.06543,0 5.122071,2.593261 5.122071,6.002441s-1.056641,6.002442 -5.122071,6.002442l-3.889648,0zm2.561035,-2.336915l1.376465,0c1.873047,0 2.416992,-1.344726 2.416992,-3.665527c0,-2.304687 -0.543945,-3.665527 -2.416992,-3.665527l-1.376465,0l0,7.331054z" class="st1"/>
   <path id="svg_19" d="m325.618164,50.81543l1.328125,8.371582l0.976563,-8.371582l2.737304,0l-1.856445,12.068847l-3.330078,0l-1.536133,-9.011718l-1.537109,9.011718l-3.329102,0l-1.856445,-12.068847l2.737304,0l0.975586,8.371582l1.329102,-8.371582l3.361328,0z" class="st1"/>
   <path id="svg_20" d="m338.976563,57.762207l-4.625977,0l0,2.721191l5.09082,0l0,2.336915l-7.651367,0l0,-12.004883l7.651367,0l0,2.336914l-5.09082,0l0,2.320801l4.625977,0l0,2.289062z" class="st1"/>
   <path id="svg_21" d="m343.310547,60.483398l4.850586,0l0,2.336915l-7.411133,0l0,-12.004883l2.560547,0l0,9.667968z" class="st1"/>
   <path id="svg_22" d="m351.630859,60.483398l4.850586,0l0,2.336915l-7.411132,0l0,-12.004883l2.560546,0l0,9.667968z" class="st1"/>
   <path id="svg_23" d="m361.294922,58.818848l-4.161133,0l0,-2.208985l4.161133,0l0,2.208985z" class="st1"/>
   <path id="svg_24" d="m362.509766,50.81543l4.305664,0c3.041015,0 3.874023,1.440429 3.874023,3.393554c0,1.024415 -0.512695,1.856446 -1.296875,2.27295c0.896485,0.303711 1.648438,1.184082 1.648438,2.672851c0,2.081055 -0.944336,3.665528 -4.161133,3.665528l-4.370117,0l0,-12.004883zm4.209961,2.176758l-1.649414,0l0,2.577148l1.649414,0c1.055664,0 1.248046,-0.736328 1.248046,-1.280273c0,-0.560547 -0.175781,-1.296875 -1.248046,-1.296875zm-1.649414,7.651367l1.777343,0c1.072266,0 1.472657,-0.624512 1.472657,-1.504883c0,-0.895996 -0.416016,-1.488281 -1.472657,-1.488281l-1.777343,0l0,2.993164z" class="st1"/>
   <path id="svg_25" d="m379.3125,57.762207l-4.625977,0l0,2.721191l5.090821,0l0,2.336915l-7.651368,0l0,-12.004883l7.651368,0l0,2.336914l-5.090821,0l0,2.320801l4.625977,0l0,2.289062z" class="st1"/>
   <path id="svg_26" d="m381.261719,62.820313l0,-12.004883l2.561523,0l0,12.004883l-2.561523,0z" class="st1"/>
   <path id="svg_27" d="m391.808594,62.820313l-3.874024,-7.170899l0.064454,7.170899l-2.529297,0l0,-12.004883l2.529297,0l3.873046,7.170898l-0.063476,-7.170898l2.52832,0l0,12.004883l-2.52832,0z" class="st1"/>
   <path id="svg_28" d="m395.725586,56.817871c0,-4.177734 1.504883,-6.226562 5.154297,-6.226562c1.632812,0 2.817383,0.240234 3.537109,0.560058l0,2.49707c-0.992187,-0.416015 -2.064453,-0.65625 -3.05664,-0.65625c-2.289063,0 -3.041993,1.024415 -3.041993,3.825684c0,2.993164 0.816407,3.825684 3.041993,3.825684c0.239257,0 0.55957,-0.016114 0.735351,-0.04834l0,-2.432617l-1.696289,0l0,-2.289063l4.257813,0l0,6.354492c-0.720704,0.448243 -2.128907,0.816407 -3.857422,0.816407c-3.569336,0 -5.074219,-2.048828 -5.074219,-6.226563z" class="st1"/>
  </g>
  <g id="svg_29">
   <path id="svg_30" d="m150.403168,109.800003c0,-3.400001 -2.199997,-6.199997 -5.5,-6.199997c-1.699997,0 -3.699997,1.800003 -4.800003,2.900002c-1.100006,-1.099999 -3,-2.900002 -4.600006,-2.900002c-3.300004,0 -5.699997,2.800003 -5.699997,6.199997c0,1.699997 0.699997,3.300003 1.800003,4.400002l0,0l8.5,8.5l8.5,-8.5l0,0c1.099991,-1.200005 1.800003,-2.700005 1.800003,-4.400002z" class="st1"/>
   <g id="svg_31">
    <path id="svg_32" d="m114.103165,136.600006c-0.100006,0 -0.100006,0 0,0c-0.699997,0 -1.300003,-0.5 -1.400002,-1.199997l-4.300003,-25.199997l-6.599998,12.199997c-0.300004,0.5 -0.900002,0.800003 -1.5,0.699997c-0.599999,-0.099998 -1.099999,-0.599998 -1.099999,-1.199997l-2.800003,-19.5l-5.099998,11.400002c-0.199997,0.5 -0.699997,0.800003 -1.300004,0.800003l-19.799995,0c-0.800003,0 -1.400001,-0.599999 -1.400001,-1.400002s0.599998,-1.400001 1.400001,-1.400001l18.900002,0l6.699997,-15c0.300003,-0.599999 0.900001,-0.900002 1.5,-0.800003s1.099998,0.599998 1.199996,1.199997l2.900002,20.099998l6.5,-12c0.300003,-0.5 0.900001,-0.800003 1.5,-0.699997c0.599998,0.099999 1.099998,0.599999 1.199997,1.099999l4,23.400001l14.599998,-48.5c0.199997,-0.599998 0.699997,-0.900001 1.199997,-1c0.600006,0 1.100006,0.300003 1.399994,0.800003l7.699997,15.900002c0.300003,0.699997 0,1.5 -0.699997,1.900001c-0.699997,0.300003 -1.5,0 -1.899994,-0.699997l-6.100006,-12.699997l-15.300003,50.800004c-0.29998,0.599975 -0.79998,0.999984 -1.399978,0.999984z" class="st1"/>
   </g>
  </g>
  <text xml:space="preserve" text-anchor="start" font-family="Helvetica, Arial, sans-serif" font-size="18" id="svg_88" y="42.4375" x="77.5" fill-opacity="null" stroke-opacity="null" stroke-width="0" stroke="null" fill="#ffffff">Heilsa og</text>
  <text xml:space="preserve" text-anchor="start" font-family="Helvetica, Arial, sans-serif" font-size="18" id="svg_89" y="68.4375" x="78.5" fill-opacity="null" stroke-opacity="null" stroke-width="0" stroke="null" fill="#ffffff">vellíðan</text>
  <text xml:space="preserve" text-anchor="start" font-family="Helvetica, Arial, sans-serif" font-size="12" id="svg_90" y="154.4375" x="37.5" fill-opacity="null" stroke-opacity="null" stroke-width="0" stroke="null" fill="#ffffff">Stuðla að heilbrigðu líferni og</text>
  <text xml:space="preserve" text-anchor="start" font-family="Helvetica, Arial, sans-serif" font-size="12" id="svg_91" y="173.4375" x="63.5" fill-opacity="null" stroke-opacity="null" stroke-width="0" stroke="null" fill="#ffffff">vellíðan fyrir alla frá</text>
  <text xml:space="preserve" text-anchor="start" font-family="Helvetica, Arial, sans-serif" font-size="12" id="svg_92" y="192.4375" x="73.5" fill-opacity="null" stroke-opacity="null" stroke-width="0" stroke="null" fill="#ffffff">vöggu til grafar</text>
 </g>
</svg>