<svg width="218" height="218" xmlns="http://www.w3.org/2000/svg">
 <style type="text/css">.st0{fill:#DDA839;}
	.st1{fill:#FFFFFF;}
	.st2{enable-background:new    ;}</style>

 <g>
  <title>background</title>
  <rect fill="none" id="canvas_background" height="402" width="582" y="-1" x="-1"/>
 </g>
 <g>
  <title>Layer 1</title>
  <g id="svg_1">
   <circle id="svg_2" r="108" cy="108.939316" cx="109.406334" class="st0"/>
  </g>
  <g id="svg_3">
   <path id="svg_4" d="m78.256348,31.70752c-3.400391,0 -6.000489,0.75 -8.400879,1.850097l0,-7.500488c2.000488,-0.899902 5.40039,-1.600098 9.300781,-1.600098c10.100586,0 11.500488,5.200684 11.500488,9.800781c0,6.300293 -5.25,10.400879 -11.750488,14.800782l12.150879,-0.149903l0,7.500489l-22.751465,0l0,-5.250489c10.650391,-8.300293 14.100586,-12.250488 14.100586,-15.850585c0,-2.300293 -0.850098,-3.600586 -4.149902,-3.600586z" class="st1"/>
  </g>
  <g id="svg_16">
   <path id="svg_17" d="m100.847,133.679001l0,1.856003c-0.001999,0.013 -0.005997,0.028 -0.005997,0.042007c0,0.016007 0.004998,0.029999 0.005997,0.044006c0.018997,0.459 0.393997,0.824997 0.856003,0.834c0.005997,0 0.010002,0.003006 0.016998,0.003006c0.005997,0 0.014,-0.003006 0.022003,-0.003006l21.772004,0c0.005996,0 0.012001,0.003006 0.017997,0.003006s0.013001,-0.003006 0.018997,-0.003006c0.475998,-0.009003 0.855004,-0.395996 0.859002,-0.871002c0,-0.001999 0.002998,-0.003006 0.002998,-0.005997c0,0 -0.002998,-0.003006 -0.002998,-0.005997l0,-2.100006c12.255996,-4.018005 21.438003,-13.951004 23.457,-26.056999c0.005005,-0.026001 0.007996,-0.050003 0.011994,-0.071998c0.007004,-0.042 0.011993,-0.081002 0.011993,-0.122002c0,-0.487 -0.391998,-0.879997 -0.880005,-0.879997l-68.974983,0l-0.415001,0c-0.488998,0 -0.883003,0.392997 -0.883003,0.879997l0.045998,0.396004c2.121002,12.218979 11.554,22.207977 24.063003,26.061981" class="st1"/>
   <path id="svg_18" d="m124.389999,76.723c-0.286003,0.406997 -6.989998,10.058998 0.150002,17.862999c3.274002,3.582 2.989998,6.741996 2.055,8.876999l4.580002,0c0.927002,-3.152001 0.544998,-7.105004 -3.173004,-11.167c-5.261002,-5.751 0.067001,-13.524002 0.147003,-13.643998c0.628006,-0.887 0.292007,-2.029998 -0.742996,-2.563003c-1.040009,-0.529999 -2.386009,-0.246994 -3.016007,0.634003" class="st1"/>
   <path id="svg_19" d="m112.791,103.462997l4.582001,0c0.926003,-3.152999 0.541,-7.104003 -3.177002,-11.166999c-5.262001,-5.751999 0.061997,-13.521004 0.146004,-13.648003c0.625,-0.883003 0.293998,-2.024002 -0.745003,-2.558998c-1.035004,-0.528999 -2.384003,-0.248001 -3.012001,0.634003c-0.288002,0.404998 -6.997002,10.058998 0.149002,17.862999c3.274002,3.583 2.988999,6.744003 2.056999,8.876998" class="st1"/>
   <path id="svg_20" d="m96.778,76.723c-0.290001,0.406997 -6.994003,10.058998 0.147003,17.862999c3.276001,3.583999 2.991997,6.744003 2.059998,8.876999l4.580002,0c0.926002,-3.150002 0.542999,-7.102997 -3.178002,-11.167c-5.262001,-5.751 0.066002,-13.524002 0.150002,-13.648003c0.622001,-0.884003 0.291,-2.026001 -0.748001,-2.559997c-1.035004,-0.531998 -2.383004,-0.246995 -3.011002,0.635002" class="st1"/>
  </g>
  <text xml:space="preserve" text-anchor="start" font-family="Helvetica, Arial, sans-serif" font-size="18" id="svg_106" y="38.4375" x="99.5" fill-opacity="null" stroke-opacity="null" stroke-width="0" stroke="null" fill="#ffffff">Ekkert</text>
  <text xml:space="preserve" text-anchor="start" font-family="Helvetica, Arial, sans-serif" font-size="18" id="svg_107" y="56.4375" x="99.5" fill-opacity="null" stroke-opacity="null" stroke-width="0" stroke="null" fill="#ffffff">hungur</text>
  <text xml:space="preserve" text-anchor="start" font-family="Helvetica, Arial, sans-serif" font-size="12" id="svg_108" y="150.4375" x="18.5" fill-opacity="null" stroke-opacity="null" stroke-width="0" stroke="null" fill="#ffffff">Útrýma hungri, tryggja fæðuöryggi</text>
  <text xml:space="preserve" text-anchor="start" font-family="Helvetica, Arial, sans-serif" font-size="12" id="svg_109" y="168.4375" x="36.5" fill-opacity="null" stroke-opacity="null" stroke-width="0" stroke="null" fill="#ffffff">og bætta næringu og stuðla</text>
  <text xml:space="preserve" text-anchor="start" font-family="Helvetica, Arial, sans-serif" font-size="12" id="svg_110" y="184.4375" x="39.5" fill-opacity="null" stroke-opacity="null" stroke-width="0" stroke="null" fill="#ffffff">að sjálfbærum landbúnaði</text>
 </g>
</svg>