<svg width="218" height="218" xmlns="http://www.w3.org/2000/svg">
 <style type="text/css">.st0{fill:#EF402B;}
	.st1{fill:#FFFFFF;}
	.st2{enable-background:new    ;}</style>

 <g>
  <title>background</title>
  <rect fill="none" id="canvas_background" height="402" width="582" y="-1" x="-1"/>
 </g>
 <g>
  <title>Layer 1</title>
  <g id="svg_1">
   <circle id="svg_2" r="108" cy="108.939316" cx="109.382172" class="st0"/>
  </g>
  <g id="svg_3">
   <path id="svg_4" d="m59.255371,63.659668l0,-7.100586c1.950195,0.799805 5.600586,1.5 8.600586,1.5c3.850098,0 6.500488,-1.100098 6.500488,-5.250488c0,-4.25 -2.450195,-4.799805 -6.000488,-4.799805l-8.150391,0l0,-20.851562l21.001465,0l0,7.500488l-13.250976,0l0,6.050293l2.90039,0c5.550293,0 11.450684,1.600098 11.450684,12.100586c0,10.750976 -6.950684,12.550781 -14.150879,12.550781c-3.550293,0 -6.650391,-0.599609 -8.900879,-1.699707z" class="st1"/>
  </g>
  <g id="svg_20">
   <path id="svg_21" d="m137.363159,74.911003l-17.776001,0c-0.122001,0 -0.225998,0.084999 -0.225998,0.191002l0,4.988998c0,0.107003 0.103997,0.192002 0.225998,0.192002l7.078003,0l-7.859001,6.639c-3.959,-2.626999 -8.940002,-4.198998 -14.353996,-4.198998c-12.835999,0 -23.281998,8.820999 -23.281998,19.663002c0,9.983002 8.856003,18.243004 20.277,19.493004l0,5.748001l-7.011001,0c-0.129998,0 -0.228997,0.084999 -0.228997,0.190002l0,5.347c0,0.106003 0.098999,0.190995 0.228997,0.190995l7.011001,0l0,5.656997c0,0.106003 0.100998,0.190995 0.225998,0.190995l6.328003,0c0.126,0 0.228996,-0.085007 0.228996,-0.190995l0,-5.656997l7.010002,0c0.125,0 0.225998,-0.085007 0.225998,-0.190995l0,-5.347c0,-0.105003 -0.100998,-0.190002 -0.225998,-0.190002l-7.010002,0l0,-5.842003c11.045998,-1.529999 19.502999,-9.643997 19.502999,-19.400001c0,-4.208001 -1.577004,-8.108002 -4.251999,-11.309998l7.747001,-6.543999l0,5.583c0,0.106003 0.104004,0.191002 0.229004,0.191002l5.906006,0c0.126999,0 0.231003,-0.084999 0.231003,-0.191002l0,-15.014015c-0.000015,-0.103996 -0.104019,-0.188995 -0.231018,-0.188995m-32.911003,41.947998c-9.448997,0 -17.135002,-6.493004 -17.135002,-14.472999c0,-7.981003 7.685997,-14.473 17.135002,-14.473c9.449997,0 17.138001,6.491997 17.138001,14.473c0,7.979995 -7.688004,14.472999 -17.138001,14.472999" class="st1"/>
   <path id="svg_22" d="m114.920158,96.445l-20.786003,0c-0.125,0 -0.225998,0.078003 -0.225998,0.170997l0,4.25c0,0.099999 0.100998,0.174004 0.225998,0.174004l20.785996,0c0.128998,0 0.230003,-0.074997 0.230003,-0.174004l0,-4.25c0,-0.092994 -0.100998,-0.170997 -0.229996,-0.170997" class="st1"/>
   <path id="svg_23" d="m114.920158,104.033997l-20.786003,0c-0.125,0 -0.225998,0.080001 -0.225998,0.177002l0,4.25c0,0.095001 0.100998,0.171997 0.225998,0.171997l20.785996,0c0.128998,0 0.230003,-0.075997 0.230003,-0.171997l0,-4.25c0,-0.097001 -0.100998,-0.177002 -0.229996,-0.177002" class="st1"/>
  </g>
  <text xml:space="preserve" text-anchor="start" font-family="Helvetica, Arial, sans-serif" font-size="18" id="svg_73" y="41.017046" x="92.86363" stroke-width="0" stroke="#000" fill="#ffffff">Jafnrétti</text>
  <text xml:space="preserve" text-anchor="start" font-family="Helvetica, Arial, sans-serif" font-size="18" id="svg_74" y="60.562501" x="92.409084" stroke-width="0" stroke="#000" fill="#ffffff">kynjanna</text>
  <text xml:space="preserve" text-anchor="start" font-family="Helvetica, Arial, sans-serif" font-size="12" id="svg_75" y="158.744318" x="33.772721" stroke-width="0" stroke="#000" fill="#ffffff">Jafnrétti kynjanna verði tryggt</text>
  <text xml:space="preserve" text-anchor="start" font-family="Helvetica, Arial, sans-serif" font-size="12" id="svg_76" y="173.744317" x="51.499994" stroke-width="0" stroke="#000" fill="#ffffff">og völd allra kvenna og</text>
  <text xml:space="preserve" text-anchor="start" font-family="Helvetica, Arial, sans-serif" font-size="12" id="svg_77" y="188.744318" x="72.86363" stroke-width="0" stroke="#000" fill="#ffffff">stúlkna efld</text>
 </g>
</svg>