<svg width="218" height="218" xmlns="http://www.w3.org/2000/svg">
 <style type="text/css">.st0{fill:#00689D;}
	.st1{fill:#FFFFFF;}
	.st2{fill:#F9F9FA;}</style>

 <g>
  <title>background</title>
  <rect fill="none" id="canvas_background" height="402" width="582" y="-1" x="-1"/>
 </g>
 <g>
  <title>Layer 1</title>
  <g id="svg_1">
   <circle id="svg_2" r="108" cy="108.939316" cx="109.382172" class="st0"/>
  </g>
  <g id="svg_3">
   <path id="svg_4" d="m46.061523,33.566406l0,26.842774l-6.721191,0l0,-20.163574l-4.662598,0.167968l0,-4.662597l8.02295,-2.184571l3.360839,0z" class="st1"/>
   <path id="svg_5" d="m57.610352,43.102051c1.470214,-2.058106 4.116699,-2.604492 6.51123,-2.604492c7.645508,0 8.905762,5.586914 8.905762,10.291992c0,4.662597 -1.386231,10.207519 -10.62793,10.207519c-8.779785,0 -11.21582,-4.662597 -11.21582,-14.030273c0,-11.005859 2.016113,-18.651367 12.812011,-18.651367c3.612793,0 6.595215,0.882324 7.813477,1.512207l0,6.217285c-1.932617,-1.008301 -4.200684,-1.554199 -7.057129,-1.554199c-6.049316,0 -6.93164,3.402343 -7.141601,8.611328zm5.083007,3.36084c-3.444336,0 -4.746582,1.260254 -4.746582,4.32666s1.302246,4.32666 4.242676,4.32666s4.284668,-1.260254 4.284668,-4.32666s-1.302246,-4.32666 -3.780762,-4.32666z" class="st1"/>
  </g>
  <g id="svg_41">
   <path id="svg_42" d="m126.974136,72.416832c0,0 -1.047111,1.368095 -0.732978,2.736183c0.31414,1.368096 1.780098,2.104752 1.780098,2.104752s1.047119,-1.368088 0.732971,-2.736176c-0.209412,-1.262855 -1.780091,-2.104759 -1.780091,-2.104759" class="st1"/>
   <path id="svg_43" d="m125.298744,80.309662c0,0 1.047119,-1.368088 0.732979,-2.736176c-0.31414,-1.368095 -1.78009,-2.104751 -1.78009,-2.104751s-1.047119,1.368088 -0.732979,2.736175s1.78009,2.104752 1.78009,2.104752" class="st1"/>
   <path id="svg_44" d="m129.591919,78.836334c0,0 1.047119,1.157616 2.303665,0.947144c1.256531,-0.10524 2.198944,-1.368096 2.198944,-1.368096s-1.047119,-1.157615 -2.30365,-0.947143c-1.256561,0.10524 -2.198959,1.368095 -2.198959,1.368095" class="st1"/>
   <path id="svg_45" d="m131.372025,72.943024c-1.04712,1.052375 -0.837708,2.841415 -0.837708,2.841415s1.780106,0.10524 2.82721,-0.841904c1.047119,-1.052375 0.837707,-2.841415 0.837707,-2.841415s-1.780106,-0.210472 -2.827209,0.841904" class="st1"/>
   <path id="svg_46" d="m129.17308,82.940605c1.256546,0.10524 2.408371,-0.947136 2.408371,-0.947136s-0.837692,-1.262848 -2.094223,-1.473335c-1.256546,-0.105232 -2.408371,0.947144 -2.408371,0.947144s0.837677,1.368087 2.094223,1.473327" class="st1"/>
   <path id="svg_47" d="m130.2202,103.041016l-9.319329,0c-0.732978,0 -1.361251,0.631424 -1.361251,1.368095c0,0.736664 0.628265,1.368088 1.361251,1.368088l9.319329,0c0.732986,0 1.361251,-0.631424 1.361251,-1.368088c0,-0.736671 -0.628265,-1.368095 -1.361251,-1.368095" class="st1"/>
   <path id="svg_48" d="m130.2202,117.563812l-9.319329,0c-0.732978,0 -1.361251,0.631432 -1.361251,1.368096s0.628265,1.368095 1.361251,1.368095l9.319329,0c0.732986,0 1.361251,-0.631424 1.361251,-1.368095c-0.000015,-0.736657 -0.628265,-1.368096 -1.361251,-1.368096" class="st1"/>
   <path id="svg_49" d="m88.545006,99.778648c-0.209419,-0.10524 -0.418854,-0.10524 -0.628273,-0.210472c-0.000008,0.105225 0.209419,0.210472 0.628273,0.210472" class="st1"/>
   <path id="svg_50" d="m129.906067,106.619095l-8.58635,0c-0.418846,0 -0.732971,0.315719 -0.732971,0.736664l0,2.630943l-5.654426,0.631424l-8.167504,-0.210472l0,-5.051415c1.047112,-0.105232 2.198937,-0.315712 3.246056,-0.631424c7.853363,-2.209991 9.633461,-7.156166 9.424034,-11.681389c-0.209419,-4.630462 1.256538,-6.419494 3.45549,-7.261405c0.628265,-0.210473 1.256531,-0.420952 1.78009,-0.420952c0,1.157615 0.20942,2.420471 0.732979,3.999038c0.209419,0 0.418839,0 0.52356,0c-0.52356,-1.578567 -0.732979,-2.946655 -0.732979,-4.10427c1.047111,-0.10524 1.884811,-0.10524 1.884811,-0.10524s-0.732978,-0.420952 -1.780098,-1.262848c0.314141,-2.209992 1.675393,-3.578087 3.036629,-4.946167c0.732987,-0.736664 1.465958,-1.578568 2.094238,-2.420471l-0.418838,-0.31572c-0.52356,0.841904 -1.256546,1.6838 -1.989517,2.420471c-1.256539,1.368096 -2.617791,2.736183 -3.036629,4.840935c-0.418846,-0.420952 -0.8377,-0.841904 -1.361252,-1.368095c-1.989525,-2.209992 -4.502601,-0.631424 -8.06279,2.736183c-3.560196,3.367599 -8.062782,3.472847 -12.460678,-1.052376c-5.759132,-5.99855 -10.889999,-5.893318 -14.345474,-5.577606c2.408371,1.052376 3.246056,3.262367 4.397881,8.945205c1.256538,5.893311 4.39788,8.629494 8.795768,8.945206c-1.989517,0.31572 -2.513077,0.631424 -5.759132,2.841416c-2.513077,1.789039 -6.073273,1.157615 -7.53923,0.841911c2.61779,0.841904 5.75914,3.578079 8.586349,4.630455c1.675377,0.526192 3.350761,0.947143 5.130867,1.052383l0,4.840935l-15.497314,-0.31572l0,3.367608l28.272117,-0.631432l5.654427,0.631432l0,2.630943c0,0.420952 0.314132,0.736656 0.732979,0.736656l8.586334,0c0.418838,0 0.732986,-0.315712 0.732986,-0.736656l0,-8.629486c-0.209442,-0.420952 -0.523575,-0.736664 -0.942413,-0.736664zm-26.387314,-1.052376c0.628266,0 1.256531,0 1.884812,0l0,4.840935l-1.884812,0l0,-4.840935z" class="st1"/>
   <path id="svg_51" d="m85.822495,112.722885c0,0.736656 -0.523552,1.262848 -1.047112,1.262848l-0.628265,0c-0.628273,0 -1.04712,-0.526192 -1.04712,-1.262848l0,-2.315231c0,-0.736656 0.52356,-1.262848 1.04712,-1.262848l0.628265,0c0.628265,0 1.047112,0.526192 1.047112,1.262848l0,2.315231z" class="st1"/>
  </g>
  <text xml:space="preserve" text-anchor="start" font-family="Helvetica, Arial, sans-serif" font-size="12" id="svg_361" y="35.406203" x="88.268399" fill-opacity="null" stroke-opacity="null" stroke-width="0" stroke="null" fill="#ffffff">Friður og</text>
  <text xml:space="preserve" text-anchor="start" font-family="Helvetica, Arial, sans-serif" font-size="12" id="svg_362" y="54.105294" x="86.642391" fill-opacity="null" stroke-opacity="null" stroke-width="0" stroke="null" fill="#ffffff">réttlæti</text>
  <text xml:space="preserve" text-anchor="start" font-family="Helvetica, Arial, sans-serif" font-size="12" id="svg_363" y="130.798666" x="19.163063" fill-opacity="null" stroke-opacity="null" stroke-width="0" stroke="null" fill="#ffffff">Stuðla að friðsælum og sjálfbærum</text>
  <text xml:space="preserve" text-anchor="start" font-family="Helvetica, Arial, sans-serif" font-size="12" id="svg_364" y="142.722724" x="18.079058" fill-opacity="null" stroke-opacity="null" stroke-width="0" stroke="null" fill="#ffffff">samfélögum fyrir alla menn, tryggja</text>
  <text xml:space="preserve" text-anchor="start" font-family="Helvetica, Arial, sans-serif" font-size="12" id="svg_365" y="156.543792" x="22.415079" fill-opacity="null" stroke-opacity="null" stroke-width="0" stroke="null" fill="#ffffff">öllum jafnan aðgang að réttarkerfi</text>
  <text xml:space="preserve" text-anchor="start" font-family="Helvetica, Arial, sans-serif" font-size="12" id="svg_366" y="170.364859" x="41.114169" fill-opacity="null" stroke-opacity="null" stroke-width="0" stroke="null" fill="#ffffff">og byggja upp skilvirkar og</text>
  <text xml:space="preserve" text-anchor="start" font-family="Helvetica, Arial, sans-serif" font-size="12" id="svg_367" y="184.185926" x="45.721192" fill-opacity="null" stroke-opacity="null" stroke-width="0" stroke="null" fill="#ffffff">ábyrgar stofnanir fyrir alla</text>
  <text xml:space="preserve" text-anchor="start" font-family="Helvetica, Arial, sans-serif" font-size="12" id="svg_368" y="197.464991" x="54.122233" fill-opacity="null" stroke-opacity="null" stroke-width="0" stroke="null" fill="#ffffff">menn á öllum sviðum</text>
 </g>
</svg>